<svg width="56" height="56" viewBox="0 0 56 56" fill="none" xmlns="http://www.w3.org/2000/svg">
<rect width="56" height="56" rx="28" fill="#F5F6F5"/>
<path d="M32.9232 34.3365H37.9713C39.5645 34.3365 40.9263 32.968 40.1754 31.5629C38.9408 29.2528 36.1582 27.8461 32.9232 27.8461C31.3403 27.8461 29.87 28.167 28.637 28.764M14.1326 35.1687C15.3672 32.8585 18.1499 31.4518 21.3848 31.4518C24.6197 31.4518 27.4024 32.8585 28.637 35.1687C29.3878 36.5738 28.026 37.9422 26.4328 37.9422H16.3367C14.7436 37.9422 13.3817 36.5738 14.1326 35.1687ZM24.9905 23.5192C24.9905 25.5105 23.3762 27.1249 21.3848 27.1249C19.3934 27.1249 17.779 25.5105 17.779 23.5192C17.779 21.5277 19.3934 19.9134 21.3848 19.9134C23.3762 19.9134 24.9905 21.5277 24.9905 23.5192ZM36.529 19.9134C36.529 21.9048 34.9146 23.5192 32.9232 23.5192C30.9318 23.5192 29.3174 21.9048 29.3174 19.9134C29.3174 17.922 30.9318 16.3076 32.9232 16.3076C34.9146 16.3076 36.529 17.922 36.529 19.9134Z" stroke="#103339" stroke-width="1.80288" stroke-linecap="round"/>
</svg>
