<svg width="56" height="56" viewBox="0 0 56 56" fill="none" xmlns="http://www.w3.org/2000/svg">
<rect width="56" height="56" rx="28" fill="#B5BFC1"/>
<g clip-path="url(#clip0_54_579)">
<path d="M22.0481 26.5385V20.4087C22.0481 17.4215 24.4696 15 27.4567 15C30.4439 15 32.8654 17.4215 32.8654 20.4087V26.5385M19.8846 40.9615H35.0289C36.622 40.9615 37.9135 39.6701 37.9135 38.0769V29.4231C37.9135 27.8299 36.622 26.5385 35.0289 26.5385H19.8846C18.2915 26.5385 17 27.8299 17 29.4231V38.0769C17 39.6701 18.2915 40.9615 19.8846 40.9615ZM30.7019 33.75C30.7019 35.3432 29.4105 36.6346 27.8173 36.6346C26.2241 36.6346 24.9327 35.3432 24.9327 33.75C24.9327 32.1568 26.2241 30.8654 27.8173 30.8654C29.4105 30.8654 30.7019 32.1568 30.7019 33.75Z" stroke="#103339" stroke-width="1.92308" stroke-linecap="round"/>
</g>
<defs>
<clipPath id="clip0_54_579">
<rect width="34.6154" height="34.6154" fill="white" transform="translate(9.84615 10.5381)"/>
</clipPath>
</defs>
</svg>
