<svg width="57" height="56" viewBox="0 0 57 56" fill="none" xmlns="http://www.w3.org/2000/svg">
<rect x="0.5" width="56" height="56" rx="28" fill="#B5BFC1"/>
<path d="M37.9893 18.5133L28.6143 15.2045C27.9931 14.9852 27.3155 14.9852 26.6943 15.2045L17.3192 18.5133C16.1659 18.9204 15.3947 20.0104 15.3947 21.2335V32.5062C15.3947 33.6236 16.04 34.6405 17.051 35.1162L26.426 39.5281C27.204 39.8942 28.1046 39.8942 28.8825 39.5279L38.2575 35.1162C39.2686 34.6405 39.9139 33.6236 39.9139 32.5062V21.2335C39.9139 20.0104 39.1427 18.9204 37.9893 18.5133Z" stroke="#103339" stroke-width="1.80288" stroke-linecap="round"/>
<path d="M27.6544 24.9611L35.7674 20.8145M27.6544 24.9611L19.5414 20.8145M27.6544 24.9611V35.7784" stroke="#103339" stroke-width="1.80288" stroke-linecap="round"/>
</svg>
