<svg width="427" height="412" viewBox="0 0 427 412" fill="none" xmlns="http://www.w3.org/2000/svg">
<g clip-path="url(#clip0_741_3)">
<path d="M0 20C0 8.95431 8.9543 0 20 0H407C418.046 0 427 8.95431 427 20V392C427 403.046 418.046 412 407 412H20C8.9543 412 0 403.046 0 392V20Z" fill="#F5F6F5"/>
<path d="M16 84H411" stroke="#B5BFC1" stroke-width="2" stroke-linecap="round"/>
<g opacity="0.05">
<path d="M562.781 191.539H809.731L835.235 142.016H582.552C553.721 142.016 539.014 191.703 514.581 191.703C490.149 191.703 271.383 191.689 271.383 191.689L245.891 241.213H493.256C522.44 241.213 537.225 191.539 562.781 191.539Z" fill="#103339"/>
<path d="M519.777 276.941H766.727L792.231 227.417H539.548C510.717 227.417 496.01 277.105 471.578 277.105C447.145 277.105 228.379 277.091 228.379 277.091L202.887 326.614H450.252C479.436 326.614 494.221 276.941 519.777 276.941Z" fill="#103339"/>
<path d="M476.418 362.35H723.367L748.871 312.826H496.189C467.358 312.826 452.65 362.514 428.218 362.514C403.786 362.514 185.02 362.5 185.02 362.5L159.527 412.023H406.893C436.077 412.023 450.861 362.35 476.418 362.35Z" fill="#103339"/>
</g>
</g>
<defs>
<clipPath id="clip0_741_3">
<path d="M0 20C0 8.95431 8.9543 0 20 0H407C418.046 0 427 8.95431 427 20V392C427 403.046 418.046 412 407 412H20C8.9543 412 0 403.046 0 392V20Z" fill="white"/>
</clipPath>
</defs>
</svg>
