<svg width="267" height="270" viewBox="0 0 267 270" fill="none" xmlns="http://www.w3.org/2000/svg">
<g opacity="0.15">
<path d="M402.488 49.5394H648.859L674.303 0.015625H422.212C393.449 0.015625 378.776 49.7033 354.401 49.7033C330.026 49.7033 111.772 49.6892 111.772 49.6892L86.3391 99.2129H333.125C362.241 99.2129 376.991 49.5394 402.488 49.5394Z" fill="#F5F6F5"/>
<path d="M359.585 134.941H605.956L631.4 85.417H379.309C350.546 85.417 335.873 135.105 311.498 135.105C287.123 135.105 68.8691 135.091 68.8691 135.091L43.4361 184.614H290.222C319.338 184.614 334.088 134.941 359.585 134.941Z" fill="#F5F6F5"/>
<path d="M316.325 220.35H562.696L588.141 170.826H336.05C307.286 170.826 292.613 220.514 268.238 220.514C243.864 220.514 25.6099 220.5 25.6099 220.5L0.17688 270.023H246.963C276.079 270.023 290.829 220.35 316.325 220.35Z" fill="#F5F6F5"/>
</g>
</svg>
