<svg width="426" height="412" viewBox="0 0 426 412" fill="none" xmlns="http://www.w3.org/2000/svg">
<g clip-path="url(#clip0_740_17)">
<path d="M0 20C0 8.95431 8.95431 0 20 0H406C417.046 0 426 8.95431 426 20V392C426 403.046 417.046 412 406 412H20C8.95431 412 0 403.046 0 392V20Z" fill="#B5BFC1"/>
<g opacity="0.15">
<path d="M561.489 191.539H807.859L833.304 142.016H581.213C552.449 142.016 537.776 191.703 513.401 191.703C489.027 191.703 270.773 191.689 270.773 191.689L245.34 241.213H492.126C521.242 241.213 535.992 191.539 561.489 191.539Z" fill="#F5F6F5"/>
<path d="M518.582 276.941H764.953L790.397 227.417H538.307C509.543 227.417 494.87 277.105 470.495 277.105C446.12 277.105 227.867 277.091 227.867 277.091L202.434 326.614H449.22C478.335 326.614 493.085 276.941 518.582 276.941Z" fill="#F5F6F5"/>
<path d="M475.324 362.35H721.695L747.14 312.826H495.049C466.285 312.826 451.612 362.514 427.237 362.514C402.862 362.514 184.609 362.5 184.609 362.5L159.176 412.023H405.962C435.078 412.023 449.827 362.35 475.324 362.35Z" fill="#F5F6F5"/>
</g>
<path d="M16 84H410" stroke="#F5F6F5" stroke-width="2" stroke-linecap="round"/>
</g>
<defs>
<clipPath id="clip0_740_17">
<path d="M0 20C0 8.95431 8.95431 0 20 0H406C417.046 0 426 8.95431 426 20V392C426 403.046 417.046 412 406 412H20C8.95431 412 0 403.046 0 392V20Z" fill="white"/>
</clipPath>
</defs>
</svg>
