<svg width="268" height="269" viewBox="0 0 268 269" fill="none" xmlns="http://www.w3.org/2000/svg">
<g opacity="0.05">
<path d="M403.782 49.5394H650.732L676.236 0.015625H423.553C394.722 0.015625 380.015 49.7033 355.582 49.7033C331.15 49.7033 112.384 49.6892 112.384 49.6892L86.8916 99.2129H334.257C363.441 99.2129 378.226 49.5394 403.782 49.5394Z" fill="#103339"/>
<path d="M360.779 134.941H607.728L633.232 85.417H380.549C351.718 85.417 337.011 135.105 312.579 135.105C288.147 135.105 69.3806 135.091 69.3806 135.091L43.8879 184.614H291.253C320.437 184.614 335.222 134.941 360.779 134.941Z" fill="#103339"/>
<path d="M317.418 220.35H564.367L589.871 170.826H337.189C308.358 170.826 293.65 220.514 269.218 220.514C244.786 220.514 26.0198 220.5 26.0198 220.5L0.5271 270.023H247.893C277.077 270.023 291.861 220.35 317.418 220.35Z" fill="#103339"/>
</g>
</svg>
