<svg width="710" height="440" viewBox="0 0 710 440" fill="none" xmlns="http://www.w3.org/2000/svg">
<g clip-path="url(#clip0_739_5)">
<rect width="710" height="440" fill="#B5BFC1"/>
<g opacity="0.2">
<path d="M915.719 75.7134H1354.67L1400 0H950.861C899.615 0 873.472 75.964 830.045 75.964C786.617 75.964 397.766 75.9425 397.766 75.9425L352.453 151.656H792.139C844.013 151.656 870.293 75.7134 915.719 75.7134Z" fill="#F5F6F5"/>
<path d="M839.286 206.275H1278.23L1323.56 130.562H874.427C823.181 130.562 797.039 206.526 753.611 206.526C710.184 206.526 321.332 206.504 321.332 206.504L276.02 282.217H715.706C767.58 282.217 793.859 206.275 839.286 206.275Z" fill="#F5F6F5"/>
<path d="M762.211 336.85H1201.16L1246.49 261.137H797.353C746.107 261.137 719.965 337.101 676.537 337.101C633.109 337.101 244.258 337.079 244.258 337.079L198.945 412.793H638.632C690.506 412.793 716.785 336.85 762.211 336.85Z" fill="#F5F6F5"/>
</g>
</g>
<defs>
<clipPath id="clip0_739_5">
<rect width="710" height="440" fill="white"/>
</clipPath>
</defs>
</svg>
