<svg width="31" height="31" viewBox="0 0 31 31" fill="none" xmlns="http://www.w3.org/2000/svg">
<path d="M15.5646 20.2957L15.5651 20.2959C15.6993 20.3442 15.844 20.3687 16 20.3687C16.156 20.3687 16.3007 20.3442 16.4349 20.2959L16.4354 20.2957C16.5653 20.2497 16.6883 20.1703 16.8043 20.0543L21.3043 15.5543C21.5129 15.3457 21.6188 15.0804 21.6188 14.75C21.6188 14.4196 21.5129 14.1543 21.3043 13.9457C21.0955 13.7369 20.8243 13.6252 20.4823 13.615L15.5646 20.2957ZM15.5646 20.2957C15.4347 20.2497 15.3117 20.1703 15.1957 20.0543L10.6957 15.5543C10.4871 15.3457 10.3812 15.0804 10.3812 14.75C10.3812 14.4196 10.4871 14.1543 10.6957 13.9457C10.9045 13.7369 11.1757 13.6252 11.5177 13.615C11.8591 13.6056 12.1284 13.7073 12.3355 13.9145L14.6793 16.2582L14.85 16.4289M15.5646 20.2957L14.85 16.4289M14.85 16.4289V16.1875M14.85 16.4289V16.1875M14.85 16.1875V7.25C14.85 6.92107 14.9604 6.64982 15.1807 6.42946C15.4002 6.21001 15.671 6.1 16 6.1C16.329 6.1 16.6002 6.20997 16.8205 6.42945C17.04 6.64976 17.15 6.92102 17.15 7.25V16.1875V16.4289M14.85 16.1875L17.15 16.4289M17.15 16.4289L17.3207 16.2582M17.15 16.4289L17.3207 16.2582M17.3207 16.2582L19.6645 13.9145M17.3207 16.2582L19.6645 13.9145M19.6645 13.9145C19.8716 13.7073 20.1408 13.6057 20.482 13.615L19.6645 13.9145ZM25.9 23.5C25.9 24.1608 25.6661 24.7241 25.1955 25.1955C24.7241 25.6661 24.1608 25.9 23.5 25.9H8.5C7.83921 25.9 7.27625 25.6661 6.80571 25.1955C6.3343 24.7241 6.1 24.1607 6.1 23.5V21C6.1 20.671 6.20997 20.3998 6.42945 20.1795C6.64976 19.96 6.92102 19.85 7.25 19.85C7.57893 19.85 7.85015 19.9599 8.07044 20.1794C8.28999 20.3997 8.4 20.671 8.4 21V23.5V23.6H8.5H23.5H23.6V23.5V21C23.6 20.6711 23.7104 20.3998 23.9307 20.1795C24.1502 19.96 24.421 19.85 24.75 19.85C25.079 19.85 25.3498 19.96 25.5693 20.1795C25.7896 20.3998 25.9 20.6711 25.9 21V23.5Z" fill="#103339" stroke="#F5F6F5" stroke-width="0.2"/>
</svg>
