<svg width="1475" height="490" viewBox="0 0 1475 490" fill="none" xmlns="http://www.w3.org/2000/svg">
<g opacity="0.1">
<path d="M880.064 89.8534H1418.95L1474.61 0H923.208C860.293 0 828.199 90.1509 774.883 90.1509C721.568 90.1509 244.181 90.1253 244.181 90.1253L188.551 179.979H728.347C792.032 179.979 824.295 89.8534 880.064 89.8534Z" fill="#B5BFC1"/>
<path d="M786.221 244.803H1325.11L1380.76 154.949H829.364C766.449 154.949 734.355 245.1 681.04 245.1C627.724 245.1 150.337 245.074 150.337 245.074L94.707 334.928H634.504C698.189 334.928 730.451 244.803 786.221 244.803Z" fill="#B5BFC1"/>
<path d="M691.6 399.764H1230.49L1286.14 309.91H734.743C671.828 309.91 639.734 400.061 586.419 400.061C533.103 400.061 55.7158 400.036 55.7158 400.036L0.0859375 489.889H539.883C603.568 489.889 635.83 399.764 691.6 399.764Z" fill="#B5BFC1"/>
</g>
</svg>
