<svg width="258" height="25" viewBox="0 0 258 25" fill="none" xmlns="http://www.w3.org/2000/svg">
<path d="M219.043 7.6685C217.733 9.32498 216.417 10.9762 215.106 12.6327C212.299 16.1763 209.487 19.7199 206.679 23.2635C206.351 23.6776 205.97 23.8716 205.408 23.8559C204.026 23.8243 202.644 23.8453 201.18 23.8453V0.455505H206.281V16.5013C206.357 16.517 206.44 16.5327 206.515 16.5485C206.784 16.1867 207.045 15.8199 207.324 15.4686C209.754 12.4388 212.195 9.41934 214.625 6.38946C216.127 4.51282 217.602 2.61521 219.103 0.738571C219.213 0.597036 219.426 0.44502 219.59 0.44502C221.151 0.424051 222.713 0.429293 224.319 0.429293C224.341 0.675668 224.368 0.864381 224.368 1.05309C224.368 8.44957 224.368 15.8461 224.368 23.2373C224.368 23.6042 224.351 23.8559 223.843 23.8506C222.326 23.8297 220.802 23.8401 219.213 23.8401V7.71569L219.043 7.66326V7.6685Z" fill="#E7E9E7"/>
<path d="M86.063 0.424805C86.063 1.63046 86.063 2.75227 86.063 3.8793C86.0522 10.3217 86.0358 16.7589 86.0358 23.2013C86.0358 23.7151 85.8829 23.8723 85.3368 23.8618C83.9114 23.8251 82.4806 23.8513 80.9624 23.8513V7.74266C80.9133 7.72169 80.8641 7.69547 80.8204 7.67451C80.3508 8.20919 79.8538 8.7334 79.4115 9.28905C75.6488 14.0174 71.9026 18.7614 68.129 23.4844C67.9706 23.6836 67.6047 23.8251 67.3316 23.8356C66.081 23.8723 64.8304 23.8199 63.5853 23.8671C62.99 23.888 62.8043 23.7255 62.8099 23.1437C62.8263 20.3706 62.7771 17.5924 62.7771 14.8193C62.7771 10.2012 62.8043 5.58294 62.8263 0.964731C62.8263 0.817955 62.8426 0.671182 62.8536 0.477228H67.8886V16.5492C67.9487 16.5754 68.0034 16.6016 68.0633 16.6278C68.615 15.9568 69.1829 15.3016 69.7236 14.6202C72.8855 10.652 76.0474 6.68377 79.204 2.71557C79.6681 2.12846 80.0941 1.50991 80.602 0.954253C80.815 0.718362 81.1808 0.466747 81.4813 0.456263C82.9557 0.403844 84.4302 0.435291 86.0685 0.435291L86.063 0.424805Z" fill="#E7E9E7"/>
<path d="M118.997 12.0928C118.937 6.28463 122.939 1.50391 128.794 0.350674C131.852 -0.252158 134.845 -0.110622 137.745 1.03214C142.043 2.7253 144.445 5.87051 145.156 10.2004C146.008 15.4424 143.604 21.8167 136.248 23.7196C130.929 25.0982 126.014 24.1809 122.054 20.2232C120.116 18.2888 119.035 15.2695 119.002 12.0875L118.997 12.0928ZM124.578 12.1872C124.392 15.4372 125.921 17.7175 128.887 19.18C130.236 19.8458 131.71 19.7357 133.157 19.6885C134.489 19.6465 135.697 19.222 136.756 18.4671C139.181 16.732 139.983 14.3049 139.82 11.5372C139.443 5.16809 133.113 3.16039 128.427 5.36203C125.555 6.71447 124.409 9.17298 124.572 12.1872H124.578Z" fill="#E7E9E7"/>
<path d="M114.51 0.485817C114.51 1.60761 114.51 2.67173 114.51 3.73062C114.504 10.215 114.494 16.6942 114.499 23.1785C114.499 23.666 114.406 23.8757 113.833 23.8599C112.359 23.8233 110.884 23.8495 109.338 23.8495V14.5187H97.0729C97.0565 14.7756 97.0293 15.0428 97.0293 15.3155C97.0293 17.9626 97.0347 20.6047 97.0402 23.2519C97.0402 23.5663 97.0784 23.8599 96.5815 23.8547C95.0414 23.8389 93.496 23.8495 91.9068 23.8495V0.464844H97.0074V9.75369H109.273V0.485817H114.504H114.51Z" fill="#E7E9E7"/>
<path d="M172.014 23.851C170.446 23.851 168.949 23.8406 167.453 23.8563C166.967 23.8616 166.967 23.5942 166.962 23.2692C166.951 22.053 166.918 20.8421 166.918 19.626C166.918 14.9658 166.918 10.3057 166.94 5.64031C166.94 5.25763 166.808 5.16851 166.427 5.16851C162.724 5.16851 159.022 5.16852 155.318 5.13183C154.751 5.12659 154.719 5.33101 154.719 5.78183C154.734 11.6161 154.729 17.4453 154.723 23.2796C154.723 23.5628 154.756 23.8563 154.298 23.8563C152.779 23.8458 151.262 23.8563 149.656 23.8563V0.47168H172.014V23.8563V23.851Z" fill="#E7E9E7"/>
<path d="M248.973 16.9512C249.651 17.9628 250.295 18.9483 250.967 19.9233C251.234 20.3113 251.213 20.5943 250.847 20.9351C248.979 22.6754 246.745 23.619 244.185 24.0645C240.58 24.6883 237.228 24.0488 234.207 22.2299C229.991 19.6927 228.501 15.7717 228.779 11.164C228.981 7.8038 230.417 4.96264 233.098 2.77147C234.781 1.39807 236.752 0.559344 238.963 0.213372C242.028 -0.268894 244.987 0.0823205 247.821 1.21983C248.848 1.63395 249.765 2.29445 250.797 2.87631C249.974 4.22876 249.225 5.45538 248.444 6.72919C248.198 6.53523 247.941 6.29935 247.653 6.1054C246.26 5.19853 244.758 4.56947 243.033 4.57472C241.47 4.57996 239.914 4.47513 238.44 5.20901C235.032 6.90742 233.743 10.4091 234.283 13.5385C234.944 17.3128 237.991 19.2995 240.52 19.6141C243.649 20.0072 246.494 19.441 248.712 17.0874C248.778 17.014 248.892 16.9826 248.969 16.9406L248.973 16.9512Z" fill="#E7E9E7"/>
<path d="M184.271 23.8458V5.39917H175.948V0.47168H197.923V5.39393C196.155 5.39393 194.391 5.39393 192.626 5.39393C191.829 5.39393 191.032 5.42538 190.24 5.3782C189.65 5.34151 189.465 5.48827 189.469 6.08587C189.498 10.725 189.481 15.3642 189.481 20.0034C189.481 21.1095 189.465 22.2155 189.469 23.3216C189.469 23.6518 189.415 23.8563 188.995 23.851C187.455 23.8353 185.915 23.8458 184.271 23.8458Z" fill="#E7E9E7"/>
<path d="M27.5602 0.570312C29.3083 1.35863 33.5528 3.55551 36.6996 8.37345C39.7284 13.0113 40.078 17.5291 40.1146 19.4339L51.7299 0.570312H27.5602Z" fill="#E7E9E7"/>
<path d="M21.1388 2.98926L7.92105 23.7875H35.5987C35.6771 21.8757 35.6234 16.8168 32.2395 11.6476C28.4636 5.87671 22.9421 3.63834 21.1388 2.98926Z" fill="#E7E9E7"/>
</svg>
