<svg width="36" height="135" viewBox="0 0 36 135" fill="none" xmlns="http://www.w3.org/2000/svg">
<rect width="36" height="135" fill="#3B575C"/>
<mask id="mask0_738_16" style="mask-type:alpha" maskUnits="userSpaceOnUse" x="0" y="0" width="36" height="135">
<rect width="36" height="135" fill="#3B575C"/>
</mask>
<g mask="url(#mask0_738_16)">
<path d="M29.9234 66.9668H156.888L170 45H40.0881C25.2652 45 17.7036 67.0395 5.14227 67.0395C-7.41905 67.0395 -119.893 67.0332 -119.893 67.0332L-133 89H-5.82178C9.18267 89 16.7839 66.9668 29.9234 66.9668Z" fill="#5D7478"/>
<path d="M13.9234 118.967H140.888L154 97H24.0881C9.26522 97 1.70359 119.039 -10.8577 119.039C-23.419 119.039 -135.893 119.033 -135.893 119.033L-149 141H-21.8218C-6.81733 141 0.78386 118.967 13.9234 118.967Z" fill="#5D7478"/>
<path d="M45.9234 14.9668H172.888L186 -7H56.0881C41.2652 -7 33.7036 15.0395 21.1423 15.0395C8.58095 15.0395 -103.893 15.0332 -103.893 15.0332L-117 37H10.1782C25.1827 37 32.7839 14.9668 45.9234 14.9668Z" fill="#5D7478"/>
<path d="M53.9234 -11.0332H180.888L194 -33H64.0881C49.2652 -33 41.7036 -10.9605 29.1423 -10.9605C16.581 -10.9605 -95.8934 -10.9668 -95.8934 -10.9668L-109 11H18.1782C33.1827 11 40.7839 -11.0332 53.9234 -11.0332Z" fill="#5D7478"/>
<path d="M21.9234 92.9668H148.888L162 71H32.0881C17.2652 71 9.70359 93.0395 -2.85773 93.0395C-15.419 93.0395 -127.893 93.0332 -127.893 93.0332L-141 115H-13.8218C1.18267 115 8.78386 92.9668 21.9234 92.9668Z" fill="#5D7478"/>
<path d="M5.92337 144.967H132.888L146 123H16.0881C1.26522 123 -6.29641 145.039 -18.8577 145.039C-31.419 145.039 -143.893 145.033 -143.893 145.033L-157 167H-29.8218C-14.8173 167 -7.21614 144.967 5.92337 144.967Z" fill="#5D7478"/>
<path d="M37.9234 40.9668H164.888L178 19H48.0881C33.2652 19 25.7036 41.0395 13.1423 41.0395C0.580952 41.0395 -111.893 41.0332 -111.893 41.0332L-125 63H2.17822C17.1827 63 24.7839 40.9668 37.9234 40.9668Z" fill="#5D7478"/>
</g>
</svg>
