<svg width="316" height="47" viewBox="0 0 316 47" fill="none" xmlns="http://www.w3.org/2000/svg">
<path d="M172.894 8.03753C171.821 9.44976 170.743 10.8575 169.67 12.2698C167.371 15.2909 165.068 18.3119 162.769 21.333C162.501 21.6861 162.188 21.8515 161.727 21.8381C160.596 21.8112 159.464 21.8291 158.266 21.8291V1.88808H162.443V15.5679C162.505 15.5813 162.572 15.5947 162.635 15.6082C162.854 15.2998 163.069 14.987 163.297 14.6875C165.287 12.1044 167.286 9.5302 169.276 6.94707C170.506 5.34714 171.714 3.72934 172.944 2.12941C173.033 2.00874 173.207 1.87914 173.342 1.87914C174.621 1.86126 175.9 1.86573 177.215 1.86573C177.232 2.07578 177.255 2.23667 177.255 2.39755C177.255 8.70343 177.255 15.0093 177.255 21.3107C177.255 21.6235 177.241 21.8381 176.825 21.8336C175.582 21.8157 174.334 21.8246 173.033 21.8246V8.07775L172.894 8.03306V8.03753Z" fill="#103339"/>
<path d="M63.992 1.86133C63.992 2.88922 63.992 3.84561 63.992 4.80646C63.983 10.299 63.9696 15.787 63.9696 21.2795C63.9696 21.7175 63.8444 21.8515 63.3972 21.8426C62.2299 21.8113 61.0582 21.8337 59.8149 21.8337V8.10017C59.7747 8.08229 59.7344 8.05995 59.6986 8.04207C59.314 8.49792 58.9071 8.94483 58.5448 9.41855C55.4634 13.4497 52.3955 17.4942 49.3052 21.5208C49.1755 21.6906 48.8758 21.8113 48.6522 21.8203C47.6281 21.8515 46.6039 21.8068 45.5843 21.8471C45.0968 21.8649 44.9447 21.7264 44.9492 21.2303C44.9626 18.8662 44.9224 16.4976 44.9224 14.1334C44.9224 10.1962 44.9447 6.2589 44.9626 2.32164C44.9626 2.19651 44.976 2.07138 44.985 1.90602H49.1084V15.6082C49.1576 15.6306 49.2023 15.6529 49.2515 15.6753C49.7032 15.1032 50.1683 14.5446 50.6111 13.9636C53.2005 10.5805 55.7899 7.19742 58.3749 3.81432C58.755 3.31378 59.1038 2.78643 59.5198 2.31271C59.6942 2.1116 59.9938 1.89709 60.2398 1.88815C61.4473 1.84346 62.6548 1.87027 63.9965 1.87027L63.992 1.86133Z" fill="#103339"/>
<path d="M90.962 11.8097C90.9128 6.85797 94.1909 2.78217 98.9852 1.79897C101.49 1.28502 103.94 1.40569 106.315 2.37995C109.835 3.82346 111.803 6.50492 112.384 10.1964C113.082 14.6655 111.114 20.0999 105.09 21.7221C100.734 22.8975 96.7088 22.1154 93.4664 18.7413C91.8788 17.0922 90.9933 14.518 90.9664 11.8052L90.962 11.8097ZM95.5326 11.8902C95.3805 14.661 96.6328 16.605 99.0612 17.8519C100.166 18.4195 101.373 18.3256 102.558 18.2854C103.65 18.2497 104.638 17.8877 105.506 17.2441C107.491 15.7648 108.149 13.6957 108.015 11.336C107.706 5.90606 102.523 4.19439 98.6855 6.07141C96.3331 7.22443 95.394 9.32043 95.5281 11.8902H95.5326Z" fill="#103339"/>
<path d="M87.2877 1.91436C87.2877 2.87075 87.2877 3.77797 87.2877 4.68073C87.2832 10.209 87.2743 15.7328 87.2788 21.261C87.2788 21.6766 87.2027 21.8554 86.7331 21.842C85.5256 21.8107 84.3181 21.8331 83.0525 21.8331V13.8781H73.0078C72.9944 14.0971 72.9721 14.325 72.9721 14.5574C72.9721 16.8143 72.9765 19.0667 72.981 21.3236C72.981 21.5917 73.0123 21.842 72.6053 21.8375C71.3442 21.8241 70.0785 21.8331 68.7771 21.8331V1.89648H72.9542V9.8157H82.9988V1.91436H87.2832H87.2877Z" fill="#103339"/>
<path d="M134.38 21.8344C133.097 21.8344 131.871 21.8255 130.646 21.8389C130.248 21.8434 130.248 21.6155 130.243 21.3384C130.234 20.3016 130.208 19.2692 130.208 18.2324C130.208 14.2594 130.208 10.2863 130.225 6.30886C130.225 5.98262 130.118 5.90664 129.805 5.90664C126.773 5.90664 123.741 5.90664 120.709 5.87536C120.243 5.87089 120.217 6.04518 120.217 6.42952C120.23 11.4036 120.226 16.3732 120.221 21.3473C120.221 21.5887 120.248 21.8389 119.872 21.8389C118.629 21.83 117.386 21.8389 116.071 21.8389V1.90234H134.38V21.8389V21.8344Z" fill="#103339"/>
<path d="M197.404 15.9511C197.959 16.8137 198.486 17.6539 199.036 18.4851C199.256 18.8158 199.238 19.0572 198.938 19.3477C197.408 20.8314 195.579 21.6358 193.482 22.0157C190.53 22.5475 187.784 22.0023 185.311 20.4515C181.859 18.2885 180.638 14.9456 180.866 11.0173C181.031 8.1526 182.207 5.73036 184.403 3.86228C185.781 2.69138 187.395 1.97633 189.206 1.68137C191.715 1.27021 194.139 1.56964 196.46 2.53943C197.301 2.89249 198.052 3.45559 198.898 3.95166C198.222 5.10468 197.61 6.15045 196.97 7.23643C196.769 7.07108 196.559 6.86997 196.322 6.70462C195.181 5.93147 193.951 5.39517 192.538 5.39964C191.259 5.40411 189.985 5.31473 188.777 5.9404C185.986 7.38838 184.931 10.3737 185.374 13.0418C185.915 16.2595 188.41 17.9533 190.481 18.2214C193.044 18.5566 195.374 18.074 197.189 16.0673C197.243 16.0048 197.337 15.978 197.4 15.9422L197.404 15.9511Z" fill="#103339"/>
<path d="M144.417 21.83V6.10328H137.602V1.90234H155.598V6.09881C154.149 6.09881 152.704 6.09881 151.26 6.09881C150.607 6.09881 149.954 6.12563 149.305 6.0854C148.822 6.05412 148.67 6.17925 148.675 6.68873C148.697 10.6439 148.684 14.599 148.684 18.5541C148.684 19.4971 148.67 20.4401 148.675 21.3831C148.675 21.6646 148.63 21.8389 148.286 21.8344C147.025 21.821 145.763 21.83 144.417 21.83Z" fill="#103339"/>
<path d="M16.083 1.98633C17.5147 2.65841 20.9906 4.53136 23.5676 8.6389C26.048 12.5929 26.3343 16.4446 26.3643 18.0685L35.8764 1.98633H16.083Z" fill="#103339"/>
<path d="M10.8244 4.04688L0 21.7785H22.6661C22.7303 20.1485 22.6863 15.8355 19.9152 11.4286C16.823 6.50858 12.3012 4.60025 10.8244 4.04688Z" fill="#DD4425"/>
<path d="M1.33164 39.2846V43.4231H0V32.6538C0.203662 32.6538 0.657985 32.6538 1.3943 32.6385C2.13062 32.6231 2.63194 32.6231 2.86694 32.6231C4.30824 32.6231 5.34221 32.9462 5.96886 33.5769C6.61118 34.2077 6.92451 34.9923 6.92451 35.9615C6.92451 36.9 6.57985 37.7 5.89053 38.3615C5.21688 39.0231 4.24557 39.3462 2.9766 39.3462C2.36561 39.3462 1.81729 39.3308 1.33164 39.2846ZM2.99227 33.8538C2.56928 33.8538 2.02095 33.8692 1.33164 33.8846V38.0385C1.92696 38.0846 2.45961 38.1154 2.9296 38.1154C4.54323 38.1154 5.51454 37.3 5.51454 35.9462C5.51454 34.6385 4.68423 33.8538 2.99227 33.8538Z" fill="#103339"/>
<path d="M8.54891 37.9615L8.21992 36.9769C8.90924 36.5615 9.69255 36.3462 10.5699 36.3462C12.5125 36.3462 13.2801 37.2846 13.2801 39.1769V43.4231H12.0895V42.5308C11.5412 43.1923 10.7892 43.5308 9.83355 43.5308C8.53324 43.5308 7.6716 42.7 7.6716 41.3923C7.6716 40.0231 8.76824 39.1923 10.3349 39.1923C11.0869 39.1923 11.6665 39.3462 12.0895 39.6385C12.0895 38.1615 11.7918 37.4538 10.4915 37.4538C9.84921 37.4538 9.20689 37.6231 8.54891 37.9615ZM10.2722 42.4231C10.9772 42.4231 11.5725 42.1308 12.0895 41.5308V40.6538C11.6508 40.3462 11.1182 40.1923 10.5072 40.1923C9.67688 40.1923 9.00323 40.5923 9.00323 41.3308C9.00323 42.0077 9.47322 42.4231 10.2722 42.4231Z" fill="#103339"/>
<path d="M17.7131 43.5769C17.1648 43.5769 16.6008 43.4846 16.0211 43.3154C15.4415 43.1308 15.0342 42.9 14.7992 42.6385L15.4415 41.7154C16.0055 42.1615 16.8828 42.4692 17.5251 42.4692C18.6061 42.4692 19.3737 42.0077 19.3737 41.3308C19.3737 40.7615 18.8567 40.4385 17.9951 40.4385H16.8044V39.4385H17.9168C18.6217 39.4385 19.1387 39.0077 19.1387 38.4538C19.1387 37.8385 18.5591 37.4538 17.6348 37.4538C16.8828 37.4538 16.1778 37.7154 15.5198 38.2231L15.0342 37.2692C15.5981 36.7 16.6948 36.3462 17.8228 36.3462C19.5147 36.3462 20.4704 37.0538 20.4704 38.2077C20.4704 39.0077 20.063 39.5462 19.2327 39.8385V39.8692C20.1727 39.9769 20.7054 40.6538 20.7054 41.5C20.7054 42.7769 19.4834 43.5769 17.7131 43.5769Z" fill="#103339"/>
<path d="M23.8686 46.5H22.6153V36.5H23.8686V37.3154C24.3699 36.7462 25.3099 36.3462 26.2656 36.3462C27.2525 36.3462 28.0515 36.6692 28.6312 37.3308C29.2265 37.9769 29.5241 38.8231 29.5241 39.8538C29.5241 40.9154 29.1795 41.8077 28.5058 42.5154C27.8322 43.2231 26.9392 43.5769 25.8582 43.5769C25.0279 43.5769 24.3543 43.4231 23.8686 43.1V46.5ZM25.9052 37.5C25.0749 37.5 24.3856 37.8231 23.8686 38.4538V41.8846C24.4169 42.2385 25.0436 42.4231 25.7486 42.4231C27.2369 42.4231 28.1925 41.3769 28.1925 39.9C28.1925 38.4692 27.3309 37.5 25.9052 37.5Z" fill="#103339"/>
<path d="M31.6965 37.9615L31.3675 36.9769C32.0568 36.5615 32.8401 36.3462 33.7175 36.3462C35.6601 36.3462 36.4277 37.2846 36.4277 39.1769V43.4231H35.2371V42.5308C34.6888 43.1923 33.9368 43.5308 32.9811 43.5308C31.6808 43.5308 30.8192 42.7 30.8192 41.3923C30.8192 40.0231 31.9158 39.1923 33.4825 39.1923C34.2344 39.1923 34.8141 39.3462 35.2371 39.6385C35.2371 38.1615 34.9394 37.4538 33.6391 37.4538C32.9968 37.4538 32.3545 37.6231 31.6965 37.9615ZM33.4198 42.4231C34.1248 42.4231 34.7201 42.1308 35.2371 41.5308V40.6538C34.7984 40.3462 34.2658 40.1923 33.6548 40.1923C32.8245 40.1923 32.1508 40.5923 32.1508 41.3308C32.1508 42.0077 32.6208 42.4231 33.4198 42.4231Z" fill="#103339"/>
<path d="M43.9783 32.5L44.6519 33.4692C44.4013 33.8077 44.1036 34.0385 43.7433 34.1615C43.383 34.2846 42.9443 34.3923 42.4273 34.4692C41.9103 34.5462 41.456 34.6846 41.0643 34.8538C39.999 35.3308 39.4037 36.4385 39.2784 38.1923H39.3097C39.764 37.2231 40.9077 36.5769 42.0983 36.5769C44.1036 36.5769 45.3726 37.9308 45.3726 40.0231C45.3726 41.0077 45.0279 41.8538 44.3543 42.5462C43.6806 43.2385 42.8033 43.5769 41.7537 43.5769C40.61 43.5769 39.7014 43.1923 39.0277 42.4231C38.3541 41.6538 38.0251 40.6077 38.0251 39.2692C38.0251 36.2692 38.9024 34.4077 40.6414 33.6846C41.0643 33.5 41.5343 33.3769 42.02 33.3C43.007 33.1308 43.5553 33.0385 43.9783 32.5ZM39.3567 39.5C39.3567 41.2692 40.328 42.4231 41.7223 42.4231C42.396 42.4231 42.96 42.1923 43.383 41.7462C43.8216 41.3 44.0409 40.7462 44.0409 40.0846C44.0409 38.6846 43.2106 37.7308 41.785 37.7308C41.1583 37.7308 40.6257 37.9 40.187 38.2538C39.7484 38.6077 39.4664 39.0231 39.3567 39.5Z" fill="#103339"/>
<path d="M47.7344 42.5615C47.0451 41.8692 46.7004 41.0077 46.7004 39.9615C46.7004 38.9154 47.0451 38.0538 47.7344 37.3769C48.4394 36.6846 49.348 36.3462 50.4603 36.3462C51.5726 36.3462 52.4813 36.6846 53.1706 37.3769C53.8756 38.0538 54.2203 38.9154 54.2203 39.9615C54.2203 41.0077 53.8756 41.8692 53.1706 42.5615C52.4813 43.2385 51.5726 43.5769 50.4603 43.5769C49.348 43.5769 48.4394 43.2385 47.7344 42.5615ZM48.0321 39.9615C48.0321 40.6846 48.2514 41.2692 48.7057 41.7308C49.16 42.1923 49.7554 42.4231 50.4603 42.4231C51.886 42.4231 52.8886 41.4231 52.8886 39.9615C52.8886 39.2385 52.6536 38.6538 52.1993 38.1923C51.745 37.7308 51.1653 37.5 50.4603 37.5C49.7554 37.5 49.1757 37.7308 48.7214 38.1923C48.2671 38.6385 48.0321 39.2385 48.0321 39.9615Z" fill="#103339"/>
<path d="M57.4452 37.7308H54.8602V36.5H61.2834V37.7308H58.6985V43.4231H57.4452V37.7308Z" fill="#103339"/>
<path d="M67.1807 36.5H68.8257L65.7394 39.8077L69.1233 43.4231H67.3844L64.2041 39.8846L67.1807 36.5ZM63.9064 43.4231H62.6531V36.5H63.9064V43.4231Z" fill="#103339"/>
<path d="M70.8317 37.9615L70.5027 36.9769C71.192 36.5615 71.9753 36.3462 72.8526 36.3462C74.7953 36.3462 75.5629 37.2846 75.5629 39.1769V43.4231H74.3723V42.5308C73.8239 43.1923 73.072 43.5308 72.1163 43.5308C70.816 43.5308 69.9544 42.7 69.9544 41.3923C69.9544 40.0231 71.051 39.1923 72.6176 39.1923C73.3696 39.1923 73.9493 39.3462 74.3723 39.6385C74.3723 38.1615 74.0746 37.4538 72.7743 37.4538C72.132 37.4538 71.4897 37.6231 70.8317 37.9615ZM72.555 42.4231C73.26 42.4231 73.8553 42.1308 74.3723 41.5308V40.6538C73.9336 40.3462 73.401 40.1923 72.79 40.1923C71.9597 40.1923 71.286 40.5923 71.286 41.3308C71.286 42.0077 71.756 42.4231 72.555 42.4231Z" fill="#103339"/>
<path d="M77.3796 42.7154C77.3796 42.2231 77.7086 41.9 78.2726 41.9C78.9462 41.9 79.4005 42.4846 79.4005 43.3923C79.4005 44.5154 78.7269 45.3615 77.6773 45.6692L77.3326 45.0846C77.8809 44.9154 78.2099 44.5615 78.3352 44.0538C78.4136 43.7 78.4136 43.4538 78.3196 43.2846C78.2569 43.3769 78.1472 43.4231 77.9749 43.4231C77.6616 43.4231 77.3796 43.1 77.3796 42.7154Z" fill="#103339"/>
<path d="M90.3097 43.4231H89.0564V37.6538H85.2181V43.4231H83.9648V36.5H90.3097V43.4231Z" fill="#103339"/>
<path d="M93.8315 46.5H92.5782V36.5H93.8315V37.3154C94.3329 36.7462 95.2728 36.3462 96.2285 36.3462C97.2155 36.3462 98.0145 36.6692 98.5941 37.3308C99.1894 37.9769 99.4871 38.8231 99.4871 39.8538C99.4871 40.9154 99.1424 41.8077 98.4688 42.5154C97.7951 43.2231 96.9021 43.5769 95.8212 43.5769C94.9909 43.5769 94.3172 43.4231 93.8315 43.1V46.5ZM95.8682 37.5C95.0378 37.5 94.3485 37.8231 93.8315 38.4538V41.8846C94.3799 42.2385 95.0065 42.4231 95.7115 42.4231C97.1998 42.4231 98.1554 41.3769 98.1554 39.9C98.1554 38.4692 97.2938 37.5 95.8682 37.5Z" fill="#103339"/>
<path d="M101.847 42.5615C101.158 41.8692 100.813 41.0077 100.813 39.9615C100.813 38.9154 101.158 38.0538 101.847 37.3769C102.552 36.6846 103.461 36.3462 104.573 36.3462C105.686 36.3462 106.594 36.6846 107.284 37.3769C107.989 38.0538 108.333 38.9154 108.333 39.9615C108.333 41.0077 107.989 41.8692 107.284 42.5615C106.594 43.2385 105.686 43.5769 104.573 43.5769C103.461 43.5769 102.552 43.2385 101.847 42.5615ZM102.145 39.9615C102.145 40.6846 102.364 41.2692 102.819 41.7308C103.273 42.1923 103.868 42.4231 104.573 42.4231C105.999 42.4231 107.002 41.4231 107.002 39.9615C107.002 39.2385 106.767 38.6538 106.312 38.1923C105.858 37.7308 105.278 37.5 104.573 37.5C103.868 37.5 103.289 37.7308 102.834 38.1923C102.38 38.6385 102.145 39.2385 102.145 39.9615Z" fill="#103339"/>
<path d="M115.468 38.2692L111.395 43.4231H110.142V36.5H111.395V41.6538L115.468 36.5H116.721V43.4231H115.468V38.2692Z" fill="#103339"/>
<path d="M121.334 43.5769C120.786 43.5769 120.222 43.4846 119.642 43.3154C119.062 43.1308 118.655 42.9 118.42 42.6385L119.062 41.7154C119.626 42.1615 120.504 42.4692 121.146 42.4692C122.227 42.4692 122.995 42.0077 122.995 41.3308C122.995 40.7615 122.478 40.4385 121.616 40.4385H120.425V39.4385H121.538C122.243 39.4385 122.76 39.0077 122.76 38.4538C122.76 37.8385 122.18 37.4538 121.256 37.4538C120.504 37.4538 119.799 37.7154 119.141 38.2231L118.655 37.2692C119.219 36.7 120.316 36.3462 121.444 36.3462C123.136 36.3462 124.091 37.0538 124.091 38.2077C124.091 39.0077 123.684 39.5462 122.854 39.8385V39.8692C123.794 39.9769 124.326 40.6538 124.326 41.5C124.326 42.7769 123.104 43.5769 121.334 43.5769Z" fill="#103339"/>
<path d="M126.236 43.4231V36.5C126.409 36.5 126.769 36.4846 127.349 36.4692C127.928 36.4538 128.414 36.4385 128.79 36.4385C130.811 36.4385 131.829 37.0385 131.829 38.2231C131.829 39.0385 131.25 39.6846 130.419 39.8077V39.8385C131.516 40.0385 132.064 40.5769 132.064 41.4692C132.064 42.8077 130.983 43.4846 128.821 43.4846C128.508 43.4846 128.054 43.4692 127.443 43.4538C126.832 43.4385 126.44 43.4231 126.236 43.4231ZM128.994 40.3154H127.49V42.4385C128.242 42.4692 128.727 42.4846 128.931 42.4846C130.137 42.4846 130.733 42.1154 130.733 41.3769C130.733 40.6692 130.153 40.3154 128.994 40.3154ZM128.884 37.4385C128.586 37.4385 128.116 37.4538 127.49 37.4846V39.5462H129.072C129.934 39.5462 130.498 39.1308 130.498 38.4692C130.498 37.7769 129.965 37.4385 128.884 37.4385Z" fill="#103339"/>
<path d="M134.542 42.5615C133.852 41.8692 133.508 41.0077 133.508 39.9615C133.508 38.9154 133.852 38.0538 134.542 37.3769C135.247 36.6846 136.155 36.3462 137.268 36.3462C138.38 36.3462 139.289 36.6846 139.978 37.3769C140.683 38.0538 141.028 38.9154 141.028 39.9615C141.028 41.0077 140.683 41.8692 139.978 42.5615C139.289 43.2385 138.38 43.5769 137.268 43.5769C136.155 43.5769 135.247 43.2385 134.542 42.5615ZM134.839 39.9615C134.839 40.6846 135.059 41.2692 135.513 41.7308C135.967 42.1923 136.563 42.4231 137.268 42.4231C138.693 42.4231 139.696 41.4231 139.696 39.9615C139.696 39.2385 139.461 38.6538 139.007 38.1923C138.552 37.7308 137.973 37.5 137.268 37.5C136.563 37.5 135.983 37.7308 135.529 38.1923C135.074 38.6385 134.839 39.2385 134.839 39.9615Z" fill="#103339"/>
<path d="M142.764 45.1154H141.589V42.2692H142.467C142.968 41.6538 143.422 40.1308 143.547 38.3308L143.657 36.5H148.467V42.2692H149.642V45.1154H148.467V43.4231H142.764V45.1154ZM144.832 37.6538L144.754 38.8077C144.613 40.4231 144.174 41.7769 143.798 42.2692H147.213V37.6538H144.832Z" fill="#103339"/>
<path d="M156.426 41.5308L157.021 42.4231C156.442 43.1615 155.424 43.5769 154.311 43.5769C153.183 43.5769 152.275 43.2538 151.57 42.5923C150.88 41.9308 150.536 41.0538 150.536 39.9615C150.536 38.9462 150.88 38.0846 151.554 37.3923C152.228 36.7 153.089 36.3462 154.108 36.3462C155.345 36.3462 156.27 36.6538 156.88 37.2538L156.301 38.2231C155.768 37.7462 155.095 37.5 154.28 37.5C153.622 37.5 153.058 37.7308 152.572 38.2077C152.102 38.6692 151.867 39.2538 151.867 39.9615C151.867 40.7 152.102 41.3 152.588 41.7462C153.074 42.1923 153.685 42.4231 154.405 42.4231C155.22 42.4231 155.894 42.1308 156.426 41.5308Z" fill="#103339"/>
<path d="M160.255 37.7308H157.67V36.5H164.094V37.7308H161.509V43.4231H160.255V37.7308Z" fill="#103339"/>
<path d="M165.463 43.4231V36.5C165.636 36.5 165.996 36.4846 166.576 36.4692C167.155 36.4538 167.641 36.4385 168.017 36.4385C170.038 36.4385 171.056 37.0385 171.056 38.2231C171.056 39.0385 170.477 39.6846 169.646 39.8077V39.8385C170.743 40.0385 171.291 40.5769 171.291 41.4692C171.291 42.8077 170.21 43.4846 168.048 43.4846C167.735 43.4846 167.281 43.4692 166.67 43.4538C166.059 43.4385 165.667 43.4231 165.463 43.4231ZM168.221 40.3154H166.717V42.4385C167.469 42.4692 167.954 42.4846 168.158 42.4846C169.364 42.4846 169.96 42.1154 169.96 41.3769C169.96 40.6692 169.38 40.3154 168.221 40.3154ZM168.111 37.4385C167.813 37.4385 167.343 37.4538 166.717 37.4846V39.5462H168.299C169.161 39.5462 169.725 39.1308 169.725 38.4692C169.725 37.7769 169.192 37.4385 168.111 37.4385Z" fill="#103339"/>
<path d="M173.769 42.5615C173.079 41.8692 172.735 41.0077 172.735 39.9615C172.735 38.9154 173.079 38.0538 173.769 37.3769C174.474 36.6846 175.382 36.3462 176.495 36.3462C177.607 36.3462 178.516 36.6846 179.205 37.3769C179.91 38.0538 180.255 38.9154 180.255 39.9615C180.255 41.0077 179.91 41.8692 179.205 42.5615C178.516 43.2385 177.607 43.5769 176.495 43.5769C175.382 43.5769 174.474 43.2385 173.769 42.5615ZM174.066 39.9615C174.066 40.6846 174.286 41.2692 174.74 41.7308C175.194 42.1923 175.79 42.4231 176.495 42.4231C177.92 42.4231 178.923 41.4231 178.923 39.9615C178.923 39.2385 178.688 38.6538 178.234 38.1923C177.779 37.7308 177.2 37.5 176.495 37.5C175.79 37.5 175.21 37.7308 174.756 38.1923C174.301 38.6385 174.066 39.2385 174.066 39.9615Z" fill="#103339"/>
<path d="M190.908 38.2692L186.835 43.4231H185.582V36.5H186.835V41.6538L190.908 36.5H192.161V43.4231H190.908V38.2692Z" fill="#103339"/>
<path d="M204.304 43.4231H203.05V37.6538H199.212V43.4231H197.959V36.5H204.304V43.4231Z" fill="#103339"/>
<path d="M207.825 46.5H206.572V36.5H207.825V37.3154C208.327 36.7462 209.267 36.3462 210.222 36.3462C211.209 36.3462 212.008 36.6692 212.588 37.3308C213.183 37.9769 213.481 38.8231 213.481 39.8538C213.481 40.9154 213.136 41.8077 212.463 42.5154C211.789 43.2231 210.896 43.5769 209.815 43.5769C208.985 43.5769 208.311 43.4231 207.825 43.1V46.5ZM209.862 37.5C209.032 37.5 208.342 37.8231 207.825 38.4538V41.8846C208.374 42.2385 209 42.4231 209.705 42.4231C211.194 42.4231 212.149 41.3769 212.149 39.9C212.149 38.4692 211.288 37.5 209.862 37.5Z" fill="#103339"/>
<path d="M215.841 42.5615C215.152 41.8692 214.807 41.0077 214.807 39.9615C214.807 38.9154 215.152 38.0538 215.841 37.3769C216.546 36.6846 217.455 36.3462 218.567 36.3462C219.68 36.3462 220.588 36.6846 221.277 37.3769C221.982 38.0538 222.327 38.9154 222.327 39.9615C222.327 41.0077 221.982 41.8692 221.277 42.5615C220.588 43.2385 219.68 43.5769 218.567 43.5769C217.455 43.5769 216.546 43.2385 215.841 42.5615ZM216.139 39.9615C216.139 40.6846 216.358 41.2692 216.813 41.7308C217.267 42.1923 217.862 42.4231 218.567 42.4231C219.993 42.4231 220.995 41.4231 220.995 39.9615C220.995 39.2385 220.76 38.6538 220.306 38.1923C219.852 37.7308 219.272 37.5 218.567 37.5C217.862 37.5 217.283 37.7308 216.828 38.1923C216.374 38.6385 216.139 39.2385 216.139 39.9615Z" fill="#103339"/>
<path d="M224.064 45.1154H222.889V42.2692H223.766C224.267 41.6538 224.722 40.1308 224.847 38.3308L224.957 36.5H229.766V42.2692H230.941V45.1154H229.766V43.4231H224.064V45.1154ZM226.132 37.6538L226.053 38.8077C225.912 40.4231 225.474 41.7769 225.098 42.2692H228.513V37.6538H226.132Z" fill="#103339"/>
<path d="M232.681 37.9615L232.352 36.9769C233.042 36.5615 233.825 36.3462 234.702 36.3462C236.645 36.3462 237.412 37.2846 237.412 39.1769V43.4231H236.222V42.5308C235.673 43.1923 234.921 43.5308 233.966 43.5308C232.666 43.5308 231.804 42.7 231.804 41.3923C231.804 40.0231 232.901 39.1923 234.467 39.1923C235.219 39.1923 235.799 39.3462 236.222 39.6385C236.222 38.1615 235.924 37.4538 234.624 37.4538C233.982 37.4538 233.339 37.6231 232.681 37.9615ZM234.404 42.4231C235.109 42.4231 235.705 42.1308 236.222 41.5308V40.6538C235.783 40.3462 235.25 40.1923 234.639 40.1923C233.809 40.1923 233.136 40.5923 233.136 41.3308C233.136 42.0077 233.606 42.4231 234.404 42.4231Z" fill="#103339"/>
<path d="M247.047 36.5H248.598L246.044 39.8385L248.786 43.4231H247.235L244.618 39.8385L247.047 36.5ZM244.305 43.4231H243.052V36.5H244.305V43.4231ZM238.618 43.4231L241.313 39.8385L238.759 36.5H240.326L242.738 39.8385L240.153 43.4231H238.618Z" fill="#103339"/>
<path d="M250.52 37.9615L250.191 36.9769C250.88 36.5615 251.664 36.3462 252.541 36.3462C254.484 36.3462 255.251 37.2846 255.251 39.1769V43.4231H254.061V42.5308C253.512 43.1923 252.76 43.5308 251.805 43.5308C250.504 43.5308 249.643 42.7 249.643 41.3923C249.643 40.0231 250.739 39.1923 252.306 39.1923C253.058 39.1923 253.638 39.3462 254.061 39.6385C254.061 38.1615 253.763 37.4538 252.463 37.4538C251.82 37.4538 251.178 37.6231 250.52 37.9615ZM252.243 42.4231C252.948 42.4231 253.544 42.1308 254.061 41.5308V40.6538C253.622 40.3462 253.089 40.1923 252.478 40.1923C251.648 40.1923 250.974 40.5923 250.974 41.3308C250.974 42.0077 251.444 42.4231 252.243 42.4231Z" fill="#103339"/>
<path d="M267.793 32.6538H269.407L264.519 37.7154L269.658 43.4231H267.95L262.984 37.8077L267.793 32.6538ZM262.717 43.4231H261.386V32.6538H262.717V43.4231Z" fill="#103339"/>
<path d="M279.454 34.8077L272.796 43.4231H271.621V32.6538H272.952V41.2692L279.611 32.6538H280.786V43.4231H279.454V34.8077Z" fill="#103339"/>
<path d="M292.691 43.4231H291.359V33.8846H285.406V43.4231H284.074V32.6538H292.691V43.4231Z" fill="#103339"/>
<path d="M300.787 38.2692L296.713 43.4231H295.46V36.5H296.713V41.6538L300.787 36.5H302.04V43.4231H300.787V38.2692Z" fill="#103339"/>
<path d="M304.773 43.4231H303.425L308.141 32.5923H309.284L314 43.4231H312.574L311.164 40.1615H306.167L304.773 43.4231ZM310.647 38.9308L308.673 34.3308L306.7 38.9308H310.647Z" fill="#103339"/>
</svg>
