<svg width="179" height="40" viewBox="0 0 179 40" fill="none" xmlns="http://www.w3.org/2000/svg">
<rect width="179" height="40" fill="#B5BFC1"/>
<g clip-path="url(#clip0_77_745)">
<path d="M144.905 12.1128C144.347 12.8831 143.786 13.651 143.228 14.4213C142.033 16.0692 140.835 17.717 139.64 19.3649C139.501 19.5575 139.338 19.6477 139.098 19.6404C138.51 19.6257 137.921 19.6355 137.298 19.6355V8.75856H139.47V16.2203C139.503 16.2276 139.538 16.2349 139.57 16.2423C139.684 16.074 139.796 15.9034 139.914 15.7401C140.949 14.3311 141.989 12.927 143.024 11.518C143.663 10.6453 144.291 9.76288 144.931 8.89019C144.977 8.82437 145.068 8.75368 145.138 8.75368C145.803 8.74393 146.468 8.74636 147.152 8.74636C147.161 8.86094 147.173 8.9487 147.173 9.03645C147.173 12.476 147.173 15.9156 147.173 19.3527C147.173 19.5233 147.165 19.6404 146.95 19.6379C146.303 19.6282 145.654 19.633 144.977 19.633V12.1347L144.905 12.1104V12.1128Z" fill="#103339"/>
<path d="M88.2759 8.74219C88.2759 9.30285 88.2759 9.82452 88.2759 10.3486C88.2712 13.3445 88.2642 16.338 88.2642 19.3339C88.2642 19.5728 88.1991 19.6459 87.9666 19.6411C87.3596 19.624 86.7503 19.6362 86.1038 19.6362V12.1452C86.0829 12.1354 86.0619 12.1233 86.0433 12.1135C85.8433 12.3621 85.6317 12.6059 85.4433 12.8643C83.841 15.0631 82.2457 17.2692 80.6387 19.4655C80.5712 19.5582 80.4154 19.624 80.2992 19.6289C79.7666 19.6459 79.2341 19.6215 78.7038 19.6435C78.4504 19.6532 78.3713 19.5777 78.3736 19.3071C78.3806 18.0176 78.3596 16.7256 78.3596 15.436C78.3596 13.2885 78.3713 11.1409 78.3806 8.99327C78.3806 8.92501 78.3875 8.85676 78.3922 8.76656H80.5364V16.2405C80.562 16.2527 80.5852 16.2649 80.6108 16.2771C80.8457 15.965 81.0875 15.6603 81.3177 15.3434C82.6643 13.4981 84.0108 11.6528 85.3549 9.80745C85.5526 9.53443 85.734 9.24679 85.9503 8.98839C86.041 8.8787 86.1968 8.76169 86.3247 8.75682C86.9526 8.73244 87.5805 8.74706 88.2782 8.74706L88.2759 8.74219Z" fill="#103339"/>
<path d="M102.3 14.1703C102.275 11.4694 103.979 9.24624 106.472 8.70995C107.775 8.42961 109.049 8.49543 110.284 9.02685C112.114 9.81422 113.137 11.2768 113.44 13.2904C113.802 15.7281 112.779 18.6923 109.647 19.5771C107.382 20.2182 105.288 19.7916 103.602 17.9512C102.777 17.0517 102.316 15.6476 102.302 14.1679L102.3 14.1703ZM104.677 14.2143C104.598 15.7256 105.249 16.786 106.512 17.4661C107.086 17.7757 107.714 17.7245 108.33 17.7025C108.898 17.6831 109.412 17.4856 109.863 17.1346C110.895 16.3277 111.237 15.1991 111.168 13.912C111.007 10.9502 108.312 10.0165 106.316 11.0404C105.093 11.6693 104.605 12.8126 104.674 14.2143H104.677Z" fill="#103339"/>
<path d="M100.39 8.77147C100.39 9.29314 100.39 9.78799 100.39 10.2804C100.387 13.2958 100.383 16.3088 100.385 19.3242C100.385 19.5509 100.345 19.6484 100.101 19.6411C99.4733 19.624 98.8454 19.6362 98.1872 19.6362V15.2971H92.964C92.957 15.4166 92.9454 15.5409 92.9454 15.6677C92.9454 16.8987 92.9477 18.1273 92.9501 19.3583C92.9501 19.5046 92.9663 19.6411 92.7547 19.6386C92.0989 19.6313 91.4408 19.6362 90.764 19.6362V8.76172H92.9361V13.0813H98.1593V8.77147H100.387H100.39Z" fill="#103339"/>
<path d="M124.878 19.6377C124.21 19.6377 123.573 19.6328 122.936 19.6401C122.729 19.6426 122.729 19.5182 122.726 19.3671C122.722 18.8016 122.708 18.2384 122.708 17.6729C122.708 15.5058 122.708 13.3387 122.717 11.1692C122.717 10.9912 122.661 10.9498 122.499 10.9498C120.922 10.9498 119.345 10.9498 117.768 10.9327C117.526 10.9303 117.512 11.0254 117.512 11.235C117.52 13.9481 117.517 16.6589 117.515 19.372C117.515 19.5036 117.529 19.6401 117.333 19.6401C116.687 19.6352 116.041 19.6401 115.357 19.6401V8.76562H124.878V19.6401V19.6377Z" fill="#103339"/>
<path d="M157.65 16.4282C157.939 16.8988 158.213 17.357 158.499 17.8104C158.613 17.9908 158.604 18.1224 158.448 18.2809C157.653 19.0902 156.701 19.529 155.611 19.7362C154.076 20.0263 152.648 19.7289 151.362 18.883C149.567 17.7032 148.932 15.8798 149.05 13.7371C149.136 12.1745 149.748 10.8533 150.89 9.83433C151.606 9.19566 152.445 8.80562 153.388 8.64474C154.692 8.42047 155.952 8.58379 157.159 9.11277C157.597 9.30535 157.988 9.6125 158.427 9.88308C158.076 10.512 157.757 11.0824 157.424 11.6748C157.32 11.5846 157.211 11.4749 157.087 11.3847C156.494 10.963 155.855 10.6705 155.12 10.6729C154.455 10.6753 153.792 10.6266 153.164 10.9678C151.713 11.7577 151.164 13.386 151.394 14.8414C151.676 16.5965 152.973 17.5204 154.05 17.6666C155.383 17.8494 156.594 17.5861 157.538 16.4916C157.566 16.4575 157.615 16.4429 157.648 16.4234L157.65 16.4282Z" fill="#103339"/>
<path d="M130.097 19.6352V11.057H126.553V8.76562H135.911V11.0546C135.158 11.0546 134.406 11.0546 133.655 11.0546C133.316 11.0546 132.976 11.0692 132.639 11.0473C132.388 11.0302 132.308 11.0985 132.311 11.3764C132.322 13.5337 132.316 15.6911 132.316 17.8484C132.316 18.3628 132.308 18.8771 132.311 19.3915C132.311 19.545 132.288 19.6401 132.109 19.6377C131.453 19.6304 130.797 19.6352 130.097 19.6352Z" fill="#103339"/>
<path d="M63.3632 8.81055C64.1076 9.17714 65.9151 10.1987 67.2552 12.4392C68.545 14.5959 68.6938 16.6969 68.7094 17.5826L73.6557 8.81055H63.3632Z" fill="#103339"/>
<path d="M60.6287 9.93555L55 19.6074H66.7864C66.8198 18.7183 66.7969 16.3657 65.3559 13.962C63.748 11.2783 61.3966 10.2374 60.6287 9.93555Z" fill="#DD4425"/>
</g>
<g clip-path="url(#clip1_77_745)">
<path d="M8.64037 28.9077V30.6813H8V26.0659C8.09794 26.0659 8.31642 26.0659 8.67051 26.0593C9.0246 26.0527 9.26568 26.0527 9.37869 26.0527C10.0718 26.0527 10.569 26.1912 10.8704 26.4615C11.1793 26.7319 11.3299 27.0681 11.3299 27.4835C11.3299 27.8857 11.1642 28.2286 10.8327 28.5121C10.5088 28.7956 10.0417 28.9341 9.43142 28.9341C9.1376 28.9341 8.87392 28.9275 8.64037 28.9077ZM9.43896 26.5802C9.23555 26.5802 8.97186 26.5868 8.64037 26.5934V28.3736C8.92666 28.3934 9.18281 28.4066 9.40882 28.4066C10.1848 28.4066 10.6519 28.0571 10.6519 27.4769C10.6519 26.9165 10.2526 26.5802 9.43896 26.5802Z" fill="#103339"/>
<path d="M12.1111 28.3407L11.9529 27.9188C12.2844 27.7407 12.6611 27.6484 13.083 27.6484C14.0172 27.6484 14.3863 28.0506 14.3863 28.8616V30.6814H13.8137V30.299C13.5501 30.5825 13.1884 30.7276 12.7289 30.7276C12.1036 30.7276 11.6892 30.3715 11.6892 29.8111C11.6892 29.2243 12.2166 28.8682 12.97 28.8682C13.3316 28.8682 13.6103 28.9342 13.8137 29.0594C13.8137 28.4265 13.6706 28.1232 13.0453 28.1232C12.7364 28.1232 12.4275 28.1957 12.1111 28.3407ZM12.9398 30.2528C13.2788 30.2528 13.5651 30.1276 13.8137 29.8704V29.4946C13.6028 29.3627 13.3467 29.2968 13.0528 29.2968C12.6535 29.2968 12.3296 29.4682 12.3296 29.7847C12.3296 30.0748 12.5556 30.2528 12.9398 30.2528Z" fill="#103339"/>
<path d="M16.5181 30.7473C16.2544 30.7473 15.9832 30.7078 15.7044 30.6353C15.4257 30.5561 15.2298 30.4572 15.1168 30.3452L15.4257 29.9495C15.6969 30.1407 16.1188 30.2726 16.4277 30.2726C16.9475 30.2726 17.3167 30.0748 17.3167 29.7847C17.3167 29.5407 17.068 29.4023 16.6537 29.4023H16.0811V28.9737H16.616C16.955 28.9737 17.2037 28.7891 17.2037 28.5517C17.2037 28.288 16.9249 28.1232 16.4804 28.1232C16.1188 28.1232 15.7798 28.2353 15.4634 28.4528L15.2298 28.044C15.501 27.8001 16.0284 27.6484 16.5708 27.6484C17.3845 27.6484 17.8441 27.9517 17.8441 28.4462C17.8441 28.7891 17.6481 29.0199 17.2489 29.1451V29.1583C17.7009 29.2045 17.9571 29.4946 17.9571 29.8572C17.9571 30.4045 17.3694 30.7473 16.5181 30.7473Z" fill="#103339"/>
<path d="M19.4782 32.0001H18.8755V27.7144H19.4782V28.0638C19.7193 27.8199 20.1713 27.6484 20.6309 27.6484C21.1055 27.6484 21.4897 27.7869 21.7685 28.0704C22.0548 28.3473 22.1979 28.71 22.1979 29.1517C22.1979 29.6067 22.0322 29.9891 21.7082 30.2924C21.3843 30.5957 20.9548 30.7473 20.435 30.7473C20.0357 30.7473 19.7118 30.6814 19.4782 30.5429V32.0001ZM20.4576 28.1429C20.0583 28.1429 19.7268 28.2814 19.4782 28.5517V30.0221C19.7419 30.1737 20.0432 30.2528 20.3823 30.2528C21.098 30.2528 21.5575 29.8045 21.5575 29.1715C21.5575 28.5583 21.1432 28.1429 20.4576 28.1429Z" fill="#103339"/>
<path d="M23.2426 28.3407L23.0844 27.9188C23.4158 27.7407 23.7925 27.6484 24.2144 27.6484C25.1486 27.6484 25.5178 28.0506 25.5178 28.8616V30.6814H24.9452V30.299C24.6815 30.5825 24.3199 30.7276 23.8603 30.7276C23.235 30.7276 22.8207 30.3715 22.8207 29.8111C22.8207 29.2243 23.348 28.8682 24.1014 28.8682C24.463 28.8682 24.7418 28.9342 24.9452 29.0594C24.9452 28.4265 24.802 28.1232 24.1767 28.1232C23.8679 28.1232 23.559 28.1957 23.2426 28.3407ZM24.0713 30.2528C24.4103 30.2528 24.6966 30.1276 24.9452 29.8704V29.4946C24.7342 29.3627 24.4781 29.2968 24.1843 29.2968C23.785 29.2968 23.461 29.4682 23.461 29.7847C23.461 30.0748 23.6871 30.2528 24.0713 30.2528Z" fill="#103339"/>
<path d="M29.1489 26L29.4728 26.4154C29.3523 26.5604 29.2091 26.6593 29.0358 26.7121C28.8626 26.7648 28.6516 26.811 28.403 26.844C28.1544 26.8769 27.9359 26.9363 27.7475 27.0088C27.2352 27.2132 26.949 27.6879 26.8887 28.4396H26.9038C27.1222 28.0242 27.6722 27.7473 28.2448 27.7473C29.2091 27.7473 29.8194 28.3275 29.8194 29.2242C29.8194 29.6462 29.6536 30.0088 29.3297 30.3055C29.0057 30.6022 28.5838 30.7472 28.0791 30.7472C27.5291 30.7472 27.0921 30.5824 26.7682 30.2527C26.4442 29.9231 26.286 29.4747 26.286 28.9011C26.286 27.6154 26.7079 26.8176 27.5442 26.5077C27.7475 26.4286 27.9736 26.3758 28.2071 26.3429C28.6818 26.2703 28.9454 26.2308 29.1489 26ZM26.9264 29C26.9264 29.7582 27.3935 30.2527 28.064 30.2527C28.3879 30.2527 28.6592 30.1538 28.8626 29.9626C29.0735 29.7714 29.179 29.5341 29.179 29.2506C29.179 28.6506 28.7797 28.2418 28.0941 28.2418C27.7927 28.2418 27.5366 28.3143 27.3257 28.4659C27.1147 28.6176 26.9791 28.7956 26.9264 29Z" fill="#103339"/>
<path d="M30.9551 30.3122C30.6236 30.0155 30.4579 29.6462 30.4579 29.1979C30.4579 28.7495 30.6236 28.3803 30.9551 28.0902C31.2942 27.7935 31.7311 27.6484 32.266 27.6484C32.8009 27.6484 33.2379 27.7935 33.5694 28.0902C33.9084 28.3803 34.0741 28.7495 34.0741 29.1979C34.0741 29.6462 33.9084 30.0155 33.5694 30.3122C33.2379 30.6023 32.8009 30.7473 32.266 30.7473C31.7311 30.7473 31.2942 30.6023 30.9551 30.3122ZM31.0983 29.1979C31.0983 29.5078 31.2037 29.7583 31.4222 29.9561C31.6407 30.1539 31.927 30.2528 32.266 30.2528C32.9516 30.2528 33.4337 29.8243 33.4337 29.1979C33.4337 28.888 33.3207 28.6375 33.1023 28.4396C32.8838 28.2418 32.605 28.1429 32.266 28.1429C31.927 28.1429 31.6482 28.2418 31.4298 28.4396C31.2113 28.6309 31.0983 28.888 31.0983 29.1979Z" fill="#103339"/>
<path d="M35.6249 28.2423H34.3818V27.7148H37.4707V28.2423H36.2276V30.6819H35.6249V28.2423Z" fill="#103339"/>
<path d="M40.3067 27.7148H41.0977L39.6136 29.1324L41.2409 30.6819H40.4046L38.8753 29.1654L40.3067 27.7148ZM38.7321 30.6819H38.1294V27.7148H38.7321V30.6819Z" fill="#103339"/>
<path d="M42.0624 28.3407L41.9042 27.9188C42.2357 27.7407 42.6123 27.6484 43.0342 27.6484C43.9685 27.6484 44.3376 28.0506 44.3376 28.8616V30.6814H43.765V30.299C43.5013 30.5825 43.1397 30.7276 42.6801 30.7276C42.0548 30.7276 41.6405 30.3715 41.6405 29.8111C41.6405 29.2243 42.1678 28.8682 42.9212 28.8682C43.2828 28.8682 43.5616 28.9342 43.765 29.0594C43.765 28.4265 43.6219 28.1232 42.9966 28.1232C42.6877 28.1232 42.3788 28.1957 42.0624 28.3407ZM42.8911 30.2528C43.2301 30.2528 43.5164 30.1276 43.765 29.8704V29.4946C43.5541 29.3627 43.2979 29.2968 43.0041 29.2968C42.6048 29.2968 42.2809 29.4682 42.2809 29.7847C42.2809 30.0748 42.5069 30.2528 42.8911 30.2528Z" fill="#103339"/>
<path d="M45.2112 30.3768C45.2112 30.1658 45.3694 30.0273 45.6406 30.0273C45.9646 30.0273 46.183 30.2779 46.183 30.6669C46.183 31.1482 45.8591 31.5108 45.3544 31.6427L45.1886 31.3922C45.4523 31.3197 45.6105 31.168 45.6707 30.9504C45.7084 30.7988 45.7084 30.6933 45.6632 30.6207C45.6331 30.6603 45.5803 30.6801 45.4975 30.6801C45.3468 30.6801 45.2112 30.5416 45.2112 30.3768Z" fill="#103339"/>
<path d="M51.4291 30.6819H50.8264V28.2094H48.9806V30.6819H48.3779V27.7148H51.4291V30.6819Z" fill="#103339"/>
<path d="M53.1228 32.0001H52.5201V27.7144H53.1228V28.0638C53.364 27.8199 53.816 27.6484 54.2755 27.6484C54.7502 27.6484 55.1344 27.7869 55.4131 28.0704C55.6994 28.3473 55.8426 28.71 55.8426 29.1517C55.8426 29.6067 55.6768 29.9891 55.3529 30.2924C55.0289 30.5957 54.5995 30.7473 54.0797 30.7473C53.6804 30.7473 53.3564 30.6814 53.1228 30.5429V32.0001ZM54.1023 28.1429C53.7029 28.1429 53.3715 28.2814 53.1228 28.5517V30.0221C53.3866 30.1737 53.6879 30.2528 54.0269 30.2528C54.7426 30.2528 55.2022 29.8045 55.2022 29.1715C55.2022 28.5583 54.7878 28.1429 54.1023 28.1429Z" fill="#103339"/>
<path d="M56.9773 30.3122C56.646 30.0155 56.4801 29.6462 56.4801 29.1979C56.4801 28.7495 56.646 28.3803 56.9773 28.0902C57.3164 27.7935 57.7535 27.6484 58.2883 27.6484C58.8235 27.6484 59.2601 27.7935 59.5919 28.0902C59.931 28.3803 60.0964 28.7495 60.0964 29.1979C60.0964 29.6462 59.931 30.0155 59.5919 30.3122C59.2601 30.6023 58.8235 30.7473 58.2883 30.7473C57.7535 30.7473 57.3164 30.6023 56.9773 30.3122ZM57.1206 29.1979C57.1206 29.5078 57.226 29.7583 57.4448 29.9561C57.6631 30.1539 57.9492 30.2528 58.2883 30.2528C58.974 30.2528 59.4563 29.8243 59.4563 29.1979C59.4563 28.888 59.3433 28.6375 59.1245 28.4396C58.9062 28.2418 58.6273 28.1429 58.2883 28.1429C57.9492 28.1429 57.6708 28.2418 57.452 28.4396C57.2337 28.6309 57.1206 28.888 57.1206 29.1979Z" fill="#103339"/>
<path d="M63.5275 28.4731L61.5689 30.6819H60.9663V27.7148H61.5689V29.9236L63.5275 27.7148H64.1301V30.6819H63.5275V28.4731Z" fill="#103339"/>
<path d="M66.3485 30.7473C66.0849 30.7473 65.8137 30.7078 65.5348 30.6353C65.2559 30.5561 65.0602 30.4572 64.9471 30.3452L65.2559 29.9495C65.5271 30.1407 65.9493 30.2726 66.2581 30.2726C66.7779 30.2726 67.1472 30.0748 67.1472 29.7847C67.1472 29.5407 66.8986 29.4023 66.4841 29.4023H65.9113V28.9737H66.4466C66.7856 28.9737 67.0342 28.7891 67.0342 28.5517C67.0342 28.288 66.7553 28.1232 66.311 28.1232C65.9493 28.1232 65.6103 28.2353 65.2939 28.4528L65.0602 28.044C65.3314 27.8001 65.8589 27.6484 66.4014 27.6484C67.215 27.6484 67.6743 27.9517 67.6743 28.4462C67.6743 28.7891 67.4786 29.0199 67.0794 29.1451V29.1583C67.5315 29.2045 67.7873 29.4946 67.7873 29.8572C67.7873 30.4045 67.1996 30.7473 66.3485 30.7473Z" fill="#103339"/>
<path d="M68.7058 30.6809V27.7139C68.789 27.7139 68.9621 27.7073 69.241 27.7007C69.5195 27.6941 69.7532 27.6875 69.934 27.6875C70.9059 27.6875 71.3954 27.9446 71.3954 28.4523C71.3954 28.8018 71.117 29.0787 70.7174 29.1315V29.1446C71.2449 29.2304 71.5084 29.4611 71.5084 29.8435C71.5084 30.4172 70.9886 30.7073 69.9489 30.7073C69.7984 30.7073 69.5801 30.7007 69.2862 30.6941C68.9924 30.6875 68.8039 30.6809 68.7058 30.6809ZM70.0321 29.349H69.3088V30.2589C69.6705 30.2721 69.9037 30.2787 70.0018 30.2787C70.5818 30.2787 70.8684 30.1205 70.8684 29.804C70.8684 29.5007 70.5895 29.349 70.0321 29.349ZM69.9792 28.1161C69.8359 28.1161 69.6099 28.1227 69.3088 28.1359V29.0194H70.0696C70.4842 29.0194 70.7554 28.8413 70.7554 28.5578C70.7554 28.2611 70.4991 28.1161 69.9792 28.1161Z" fill="#103339"/>
<path d="M72.7001 30.3122C72.3683 30.0155 72.2029 29.6462 72.2029 29.1979C72.2029 28.7495 72.3683 28.3803 72.7001 28.0902C73.0392 27.7935 73.4758 27.6484 74.011 27.6484C74.5458 27.6484 74.9829 27.7935 75.3143 28.0902C75.6533 28.3803 75.8192 28.7495 75.8192 29.1979C75.8192 29.6462 75.6533 30.0155 75.3143 30.3122C74.9829 30.6023 74.5458 30.7473 74.011 30.7473C73.4758 30.7473 73.0392 30.6023 72.7001 30.3122ZM72.843 29.1979C72.843 29.5078 72.9487 29.7583 73.1671 29.9561C73.3854 30.1539 73.672 30.2528 74.011 30.2528C74.6963 30.2528 75.1786 29.8243 75.1786 29.1979C75.1786 28.888 75.0656 28.6375 74.8473 28.4396C74.6285 28.2418 74.3501 28.1429 74.011 28.1429C73.672 28.1429 73.3931 28.2418 73.1748 28.4396C72.956 28.6309 72.843 28.888 72.843 29.1979Z" fill="#103339"/>
<path d="M76.6539 31.4072H76.0889V30.1874H76.5111C76.752 29.9236 76.9703 29.2709 77.0304 28.4995L77.0833 27.7148H79.3964V30.1874H79.9615V31.4072H79.3964V30.6819H76.6539V31.4072ZM77.6484 28.2094L77.6109 28.7039C77.5431 29.3962 77.332 29.9764 77.1512 30.1874H78.7934V28.2094H77.6484Z" fill="#103339"/>
<path d="M83.2239 29.8704L83.5101 30.2528C83.2316 30.5693 82.7421 30.7473 82.2069 30.7473C81.6644 30.7473 81.2278 30.6089 80.8887 30.3254C80.5569 30.0418 80.3915 29.666 80.3915 29.1979C80.3915 28.7627 80.5569 28.3935 80.881 28.0968C81.2052 27.8001 81.6192 27.6484 82.1092 27.6484C82.7041 27.6484 83.1489 27.7803 83.4423 28.0375L83.1638 28.4528C82.9075 28.2484 82.5839 28.1429 82.1919 28.1429C81.8755 28.1429 81.6043 28.2418 81.3706 28.4462C81.1446 28.644 81.0316 28.8946 81.0316 29.1979C81.0316 29.5144 81.1446 29.7715 81.3783 29.9627C81.612 30.1539 81.9058 30.2528 82.2521 30.2528C82.644 30.2528 82.9681 30.1276 83.2239 29.8704Z" fill="#103339"/>
<path d="M85.0654 28.2423H83.8223V27.7148H86.9115V28.2423H85.6684V30.6819H85.0654V28.2423Z" fill="#103339"/>
<path d="M87.5698 30.6809V27.7139C87.653 27.7139 87.8261 27.7073 88.1051 27.7007C88.3835 27.6941 88.6172 27.6875 88.798 27.6875C89.7699 27.6875 90.2595 27.9446 90.2595 28.4523C90.2595 28.8018 89.981 29.0787 89.5814 29.1315V29.1446C90.1089 29.2304 90.3725 29.4611 90.3725 29.8435C90.3725 30.4172 89.8526 30.7073 88.8129 30.7073C88.6624 30.7073 88.4441 30.7007 88.1503 30.6941C87.8564 30.6875 87.6679 30.6809 87.5698 30.6809ZM88.8961 29.349H88.1729V30.2589C88.5345 30.2721 88.7677 30.2787 88.8658 30.2787C89.4458 30.2787 89.7324 30.1205 89.7324 29.804C89.7324 29.5007 89.4535 29.349 88.8961 29.349ZM88.8432 28.1161C88.6999 28.1161 88.4739 28.1227 88.1729 28.1359V29.0194H88.9336C89.3482 29.0194 89.6194 28.8413 89.6194 28.5578C89.6194 28.2611 89.3631 28.1161 88.8432 28.1161Z" fill="#103339"/>
<path d="M91.5641 30.3122C91.2323 30.0155 91.0669 29.6462 91.0669 29.1979C91.0669 28.7495 91.2323 28.3803 91.5641 28.0902C91.9032 27.7935 92.3398 27.6484 92.875 27.6484C93.4098 27.6484 93.8469 27.7935 94.1783 28.0902C94.5173 28.3803 94.6832 28.7495 94.6832 29.1979C94.6832 29.6462 94.5173 30.0155 94.1783 30.3122C93.8469 30.6023 93.4098 30.7473 92.875 30.7473C92.3398 30.7473 91.9032 30.6023 91.5641 30.3122ZM91.707 29.1979C91.707 29.5078 91.8128 29.7583 92.0311 29.9561C92.2494 30.1539 92.536 30.2528 92.875 30.2528C93.5603 30.2528 94.0427 29.8243 94.0427 29.1979C94.0427 28.888 93.9296 28.6375 93.7113 28.4396C93.4925 28.2418 93.2141 28.1429 92.875 28.1429C92.536 28.1429 92.2571 28.2418 92.0388 28.4396C91.82 28.6309 91.707 28.888 91.707 29.1979Z" fill="#103339"/>
<path d="M99.8061 28.4731L97.8474 30.6819H97.2449V27.7148H97.8474V29.9236L99.8061 27.7148H100.409V30.6819H99.8061V28.4731Z" fill="#103339"/>
<path d="M106.248 30.6819H105.645V28.2094H103.799V30.6819H103.197V27.7148H106.248V30.6819Z" fill="#103339"/>
<path d="M107.941 32.0001H107.339V27.7144H107.941V28.0638C108.183 27.8199 108.635 27.6484 109.094 27.6484C109.569 27.6484 109.953 27.7869 110.232 28.0704C110.518 28.3473 110.661 28.71 110.661 29.1517C110.661 29.6067 110.495 29.9891 110.172 30.2924C109.848 30.5957 109.418 30.7473 108.898 30.7473C108.499 30.7473 108.175 30.6814 107.941 30.5429V32.0001ZM108.921 28.1429C108.522 28.1429 108.19 28.2814 107.941 28.5517V30.0221C108.205 30.1737 108.506 30.2528 108.845 30.2528C109.561 30.2528 110.021 29.8045 110.021 29.1715C110.021 28.5583 109.607 28.1429 108.921 28.1429Z" fill="#103339"/>
<path d="M111.796 30.3122C111.465 30.0155 111.299 29.6462 111.299 29.1979C111.299 28.7495 111.465 28.3803 111.796 28.0902C112.135 27.7935 112.572 27.6484 113.107 27.6484C113.642 27.6484 114.079 27.7935 114.41 28.0902C114.749 28.3803 114.915 28.7495 114.915 29.1979C114.915 29.6462 114.749 30.0155 114.41 30.3122C114.079 30.6023 113.642 30.7473 113.107 30.7473C112.572 30.7473 112.135 30.6023 111.796 30.3122ZM111.939 29.1979C111.939 29.5078 112.045 29.7583 112.264 29.9561C112.482 30.1539 112.768 30.2528 113.107 30.2528C113.793 30.2528 114.275 29.8243 114.275 29.1979C114.275 28.888 114.162 28.6375 113.943 28.4396C113.725 28.2418 113.446 28.1429 113.107 28.1429C112.768 28.1429 112.49 28.2418 112.271 28.4396C112.053 28.6309 111.939 28.888 111.939 29.1979Z" fill="#103339"/>
<path d="M115.751 31.4072H115.186V30.1874H115.607C115.848 29.9236 116.067 29.2709 116.127 28.4995L116.18 27.7148H118.493V30.1874H119.058V31.4072H118.493V30.6819H115.751V31.4072ZM116.745 28.2094L116.707 28.7039C116.639 29.3962 116.429 29.9764 116.248 30.1874H117.89V28.2094H116.745Z" fill="#103339"/>
<path d="M119.894 28.3407L119.736 27.9188C120.068 27.7407 120.445 27.6484 120.866 27.6484C121.801 27.6484 122.169 28.0506 122.169 28.8616V30.6814H121.597V30.299C121.333 30.5825 120.972 30.7276 120.512 30.7276C119.887 30.7276 119.473 30.3715 119.473 29.8111C119.473 29.2243 120 28.8682 120.753 28.8682C121.115 28.8682 121.394 28.9342 121.597 29.0594C121.597 28.4265 121.454 28.1232 120.829 28.1232C120.52 28.1232 120.211 28.1957 119.894 28.3407ZM120.723 30.2528C121.062 30.2528 121.349 30.1276 121.597 29.8704V29.4946C121.386 29.3627 121.13 29.2968 120.836 29.2968C120.437 29.2968 120.113 29.4682 120.113 29.7847C120.113 30.0748 120.339 30.2528 120.723 30.2528Z" fill="#103339"/>
<path d="M126.803 27.7148H127.549L126.321 29.1456L127.639 30.6819H126.893L125.635 29.1456L126.803 27.7148ZM125.484 30.6819H124.882V27.7148H125.484V30.6819ZM122.75 30.6819L124.046 29.1456L122.817 27.7148H123.571L124.731 29.1456L123.488 30.6819H122.75Z" fill="#103339"/>
<path d="M128.473 28.3407L128.315 27.9188C128.646 27.7407 129.023 27.6484 129.445 27.6484C130.379 27.6484 130.748 28.0506 130.748 28.8616V30.6814H130.176V30.299C129.912 30.5825 129.55 30.7276 129.091 30.7276C128.465 30.7276 128.051 30.3715 128.051 29.8111C128.051 29.2243 128.578 28.8682 129.332 28.8682C129.694 28.8682 129.972 28.9342 130.176 29.0594C130.176 28.4265 130.033 28.1232 129.407 28.1232C129.098 28.1232 128.789 28.1957 128.473 28.3407ZM129.302 30.2528C129.641 30.2528 129.927 30.1276 130.176 29.8704V29.4946C129.965 29.3627 129.708 29.2968 129.415 29.2968C129.015 29.2968 128.691 29.4682 128.691 29.7847C128.691 30.0748 128.917 30.2528 129.302 30.2528Z" fill="#103339"/>
<path d="M136.779 26.0664H137.556L135.205 28.2356L137.676 30.6818H136.855L134.467 28.2752L136.779 26.0664ZM134.338 30.6818H133.698V26.0664H134.338V30.6818Z" fill="#103339"/>
<path d="M142.387 26.9895L139.185 30.6818H138.62V26.0664H139.26V29.7587L142.463 26.0664H143.028V30.6818H142.387V26.9895Z" fill="#103339"/>
<path d="M148.753 30.6818H148.112V26.5939H145.249V30.6818H144.609V26.0664H148.753V30.6818Z" fill="#103339"/>
<path d="M152.646 28.4731L150.687 30.6819H150.084V27.7148H150.687V29.9236L152.646 27.7148H153.249V30.6819H152.646V28.4731Z" fill="#103339"/>
<path d="M154.563 30.6808H153.915L156.182 26.0391H156.732L159 30.6808H158.314L157.636 29.283H155.233L154.563 30.6808ZM157.388 28.7555L156.438 26.7841L155.489 28.7555H157.388Z" fill="#103339"/>
</g>
<defs>
<clipPath id="clip0_77_745">
<rect width="104" height="12" fill="white" transform="translate(55 8)"/>
</clipPath>
<clipPath id="clip1_77_745">
<rect width="151" height="6" fill="white" transform="translate(8 26)"/>
</clipPath>
</defs>
</svg>
