<svg width="200" height="23" viewBox="0 0 200 23" fill="none" xmlns="http://www.w3.org/2000/svg">
<path d="M172.894 8.03753C171.821 9.44976 170.743 10.8575 169.67 12.2698C167.371 15.2909 165.068 18.3119 162.769 21.333C162.501 21.6861 162.188 21.8515 161.727 21.8381C160.596 21.8112 159.464 21.8291 158.266 21.8291V1.88808H162.443V15.5679C162.505 15.5813 162.572 15.5947 162.635 15.6082C162.854 15.2998 163.069 14.987 163.297 14.6875C165.287 12.1044 167.286 9.5302 169.276 6.94707C170.506 5.34714 171.714 3.72934 172.944 2.12941C173.033 2.00874 173.207 1.87914 173.342 1.87914C174.621 1.86126 175.9 1.86573 177.215 1.86573C177.232 2.07578 177.255 2.23667 177.255 2.39755C177.255 8.70343 177.255 15.0093 177.255 21.3107C177.255 21.6235 177.241 21.8381 176.825 21.8336C175.582 21.8157 174.334 21.8246 173.033 21.8246V8.07775L172.894 8.03306V8.03753Z" fill="#103339"/>
<path d="M63.992 1.86133C63.992 2.88922 63.992 3.84561 63.992 4.80646C63.983 10.299 63.9696 15.787 63.9696 21.2795C63.9696 21.7175 63.8444 21.8515 63.3972 21.8426C62.2299 21.8113 61.0582 21.8337 59.8149 21.8337V8.10017C59.7747 8.08229 59.7344 8.05995 59.6986 8.04207C59.314 8.49792 58.9071 8.94483 58.5448 9.41855C55.4634 13.4497 52.3955 17.4942 49.3052 21.5208C49.1755 21.6906 48.8758 21.8113 48.6522 21.8203C47.6281 21.8515 46.6039 21.8068 45.5843 21.8471C45.0968 21.8649 44.9447 21.7264 44.9492 21.2303C44.9626 18.8662 44.9224 16.4976 44.9224 14.1334C44.9224 10.1962 44.9447 6.2589 44.9626 2.32164C44.9626 2.19651 44.976 2.07138 44.985 1.90602H49.1084V15.6082C49.1576 15.6306 49.2023 15.6529 49.2515 15.6753C49.7032 15.1032 50.1683 14.5446 50.6111 13.9636C53.2005 10.5805 55.7899 7.19742 58.3749 3.81432C58.755 3.31378 59.1038 2.78643 59.5198 2.31271C59.6942 2.1116 59.9938 1.89709 60.2398 1.88815C61.4473 1.84346 62.6548 1.87027 63.9965 1.87027L63.992 1.86133Z" fill="#103339"/>
<path d="M90.962 11.8097C90.9128 6.85797 94.1909 2.78217 98.9852 1.79897C101.49 1.28502 103.94 1.40569 106.315 2.37995C109.835 3.82346 111.803 6.50492 112.384 10.1964C113.082 14.6655 111.114 20.0999 105.09 21.7221C100.734 22.8975 96.7088 22.1154 93.4664 18.7413C91.8788 17.0922 90.9933 14.518 90.9664 11.8052L90.962 11.8097ZM95.5326 11.8902C95.3805 14.661 96.6328 16.605 99.0612 17.8519C100.166 18.4195 101.373 18.3256 102.558 18.2854C103.65 18.2497 104.638 17.8877 105.506 17.2441C107.491 15.7648 108.149 13.6957 108.015 11.336C107.706 5.90606 102.523 4.19439 98.6855 6.07141C96.3331 7.22443 95.394 9.32043 95.5281 11.8902H95.5326Z" fill="#103339"/>
<path d="M87.2877 1.91436C87.2877 2.87075 87.2877 3.77797 87.2877 4.68073C87.2832 10.209 87.2743 15.7328 87.2788 21.261C87.2788 21.6766 87.2027 21.8554 86.7331 21.842C85.5256 21.8107 84.3181 21.8331 83.0525 21.8331V13.8781H73.0078C72.9944 14.0971 72.9721 14.325 72.9721 14.5574C72.9721 16.8143 72.9765 19.0667 72.981 21.3236C72.981 21.5917 73.0123 21.842 72.6053 21.8375C71.3442 21.8241 70.0785 21.8331 68.7771 21.8331V1.89648H72.9542V9.8157H82.9988V1.91436H87.2832H87.2877Z" fill="#103339"/>
<path d="M134.38 21.8344C133.097 21.8344 131.871 21.8255 130.646 21.8389C130.248 21.8434 130.248 21.6155 130.243 21.3384C130.234 20.3016 130.208 19.2692 130.208 18.2324C130.208 14.2594 130.208 10.2863 130.225 6.30886C130.225 5.98262 130.118 5.90664 129.805 5.90664C126.773 5.90664 123.741 5.90664 120.709 5.87536C120.243 5.87089 120.217 6.04518 120.217 6.42952C120.23 11.4036 120.226 16.3732 120.221 21.3473C120.221 21.5887 120.248 21.8389 119.872 21.8389C118.629 21.83 117.386 21.8389 116.071 21.8389V1.90234H134.38V21.8389V21.8344Z" fill="#103339"/>
<path d="M197.404 15.9511C197.959 16.8137 198.486 17.6539 199.036 18.4851C199.256 18.8158 199.238 19.0572 198.938 19.3477C197.408 20.8314 195.579 21.6358 193.482 22.0157C190.53 22.5475 187.784 22.0023 185.311 20.4515C181.859 18.2885 180.638 14.9456 180.866 11.0173C181.031 8.1526 182.207 5.73036 184.403 3.86228C185.781 2.69138 187.395 1.97633 189.206 1.68137C191.715 1.27021 194.139 1.56964 196.46 2.53943C197.301 2.89249 198.052 3.45559 198.898 3.95166C198.222 5.10468 197.61 6.15045 196.97 7.23643C196.769 7.07108 196.559 6.86997 196.322 6.70462C195.181 5.93147 193.951 5.39517 192.538 5.39964C191.259 5.40411 189.985 5.31473 188.777 5.9404C185.986 7.38838 184.931 10.3737 185.374 13.0418C185.915 16.2595 188.41 17.9533 190.481 18.2214C193.044 18.5566 195.374 18.074 197.189 16.0673C197.243 16.0048 197.337 15.978 197.4 15.9422L197.404 15.9511Z" fill="#103339"/>
<path d="M144.417 21.83V6.10328H137.602V1.90234H155.598V6.09881C154.149 6.09881 152.704 6.09881 151.26 6.09881C150.607 6.09881 149.954 6.12563 149.305 6.0854C148.822 6.05412 148.67 6.17925 148.675 6.68873C148.697 10.6439 148.684 14.599 148.684 18.5541C148.684 19.4971 148.67 20.4401 148.675 21.3831C148.675 21.6646 148.63 21.8389 148.286 21.8344C147.025 21.821 145.763 21.83 144.417 21.83Z" fill="#103339"/>
<path d="M16.083 1.98633C17.5147 2.65841 20.9906 4.53136 23.5676 8.6389C26.048 12.5929 26.3343 16.4446 26.3643 18.0685L35.8764 1.98633H16.083Z" fill="#103339"/>
<path d="M10.8244 4.04688L0 21.7785H22.6661C22.7303 20.1485 22.6863 15.8355 19.9152 11.4286C16.823 6.50858 12.3012 4.60025 10.8244 4.04688Z" fill="#DD4425"/>
</svg>
