<svg width="20" height="20" viewBox="0 0 20 20" fill="none" xmlns="http://www.w3.org/2000/svg">
<path d="M9.99999 1.66699C5.40832 1.66699 1.66666 5.40866 1.66666 10.0003C1.66666 14.592 5.40832 18.3337 9.99999 18.3337C14.5917 18.3337 18.3333 14.592 18.3333 10.0003C18.3333 5.40866 14.5917 1.66699 9.99999 1.66699ZM9.37499 6.66699C9.37499 6.32533 9.65832 6.04199 9.99999 6.04199C10.3417 6.04199 10.625 6.32533 10.625 6.66699V10.8337C10.625 11.1753 10.3417 11.4587 9.99999 11.4587C9.65832 11.4587 9.37499 11.1753 9.37499 10.8337V6.66699ZM10.7667 13.6503C10.725 13.7587 10.6667 13.842 10.5917 13.9253C10.5083 14.0003 10.4167 14.0587 10.3167 14.1003C10.2167 14.142 10.1083 14.167 9.99999 14.167C9.89166 14.167 9.78332 14.142 9.68332 14.1003C9.58332 14.0587 9.49166 14.0003 9.40832 13.9253C9.33332 13.842 9.27499 13.7587 9.23332 13.6503C9.19166 13.5503 9.16666 13.442 9.16666 13.3337C9.16666 13.2253 9.19166 13.117 9.23332 13.017C9.27499 12.917 9.33332 12.8253 9.40832 12.742C9.49166 12.667 9.58332 12.6087 9.68332 12.567C9.88332 12.4837 10.1167 12.4837 10.3167 12.567C10.4167 12.6087 10.5083 12.667 10.5917 12.742C10.6667 12.8253 10.725 12.917 10.7667 13.017C10.8083 13.117 10.8333 13.2253 10.8333 13.3337C10.8333 13.442 10.8083 13.5503 10.7667 13.6503Z" fill="#DD4425"/>
</svg>
