<svg width="315" height="228" viewBox="0 0 315 228" fill="none" xmlns="http://www.w3.org/2000/svg">
<rect width="315" height="228" rx="20" fill="#E7E9E7"/>
<path d="M155.462 159.536C154.2 159.445 152.938 159.344 151.674 159.262C142.739 158.686 134.178 156.668 126.155 152.715C117.821 148.61 110.602 143.138 105.108 135.659C101.474 130.714 99.1663 125.199 98.3771 119.155C96.8942 107.82 99.762 97.6558 107.385 88.9379C114.873 80.3753 124.263 74.5946 135.196 71.1818C140.459 69.5383 145.863 68.6414 151.365 68.2348C156.163 67.88 160.956 67.9194 165.737 68.4073C182.265 70.0902 196.436 76.4697 207.515 88.8319C209.239 90.7564 210.561 93.0283 212.069 95.14C212.12 95.2114 212.142 95.3001 212.225 95.48C211.851 95.4973 211.539 95.5268 211.227 95.5268C196.124 95.5268 181.023 95.5268 165.92 95.5293C164.742 95.5293 164.845 95.4061 164.845 96.5519C164.84 99.5728 164.845 102.591 164.845 105.612V106.536C165.247 106.536 165.566 106.536 165.885 106.536C182.376 106.541 198.864 106.551 215.354 106.536C216.093 106.536 216.392 106.684 216.516 107.46C217.174 111.642 217.144 115.814 216.531 119.99C216.516 120.101 216.455 120.207 216.4 120.365H164.99V147.396C165.81 147.292 166.614 147.206 167.411 147.085C175.517 145.855 182.886 142.916 189.242 137.788C191.376 136.066 193.269 134.055 195.234 132.14C195.694 131.692 196.104 131.438 196.795 131.443C201.711 131.478 206.628 131.463 211.544 131.463H212.479C211.843 132.485 211.303 133.417 210.699 134.311C204.73 143.145 196.504 149.305 186.772 153.676C181.182 156.19 175.313 157.794 169.241 158.639C166.36 159.041 163.44 159.161 160.537 159.413C160.212 159.44 159.891 159.497 159.566 159.538H155.472L155.462 159.536ZM150.96 150.367V95.8447H121.558V85.6163C121.32 85.7666 121.176 85.8356 121.056 85.9342C119.917 86.8632 118.748 87.7576 117.655 88.7359C114.131 91.8874 111.203 95.4899 109.119 99.7231C106.453 105.137 105.603 110.848 106.154 116.799C106.654 122.22 108.536 127.153 111.698 131.601C116.697 138.628 123.451 143.596 131.273 147.223C138.378 150.517 145.926 152.053 153.755 152.4C161.911 152.76 169.904 151.927 177.65 149.32C186.216 146.437 193.628 141.8 199.721 135.193C200.058 134.829 200.372 134.444 200.809 133.939C199.655 133.939 198.695 133.895 197.74 133.961C197.371 133.986 196.938 134.178 196.67 134.43C195.199 135.822 193.837 137.327 192.319 138.663C187.31 143.066 181.423 145.9 175.004 147.731C168.454 149.601 161.735 150.249 154.944 150.367C153.655 150.389 152.363 150.37 150.955 150.37L150.96 150.367ZM208.204 133.937C206.861 133.937 205.758 133.964 204.657 133.924C204.127 133.905 203.803 134.082 203.483 134.491C198.919 140.343 193.136 144.774 186.558 148.236C179.116 152.151 171.108 154.174 162.718 154.78C156.55 155.226 150.407 154.975 144.312 153.866C133.03 151.816 123.192 146.982 114.961 139.124C106.516 131.061 102.627 121.306 103.804 109.717C104.475 103.114 107.026 97.2541 111.206 92.0796C115.529 86.7301 120.91 82.6052 126.967 79.2861C133.517 75.6985 140.565 73.636 147.969 72.7046C152.031 72.1945 156.12 72.0861 160.22 72.2389C164.887 72.4114 169.499 72.9757 174.008 74.151C185.902 77.2484 195.926 83.2311 203.589 92.7942C203.71 92.9445 203.903 93.1391 204.067 93.1441C205.391 93.1736 206.713 93.1589 208.153 93.1589C207.937 92.8459 207.814 92.6562 207.681 92.4738C205.248 89.1547 202.335 86.2866 199.108 83.7165C189.594 76.1346 178.666 71.8989 166.529 70.5855C159.554 69.8315 152.582 69.9473 145.645 71.0167C136.677 72.3991 128.347 75.4422 120.827 80.4615C115.383 84.0935 110.509 88.3416 106.842 93.7724C101.162 102.185 99.5911 111.386 101.619 121.195C102.929 127.533 106.046 133.013 110.454 137.776C117.484 145.375 126.078 150.626 136.018 153.743C143.93 156.227 152.074 157.106 160.366 156.833C167.313 156.601 174.112 155.561 180.689 153.322C190.547 149.963 199.03 144.572 205.879 136.8C206.64 135.935 207.334 135.009 208.201 133.937H208.204ZM188.486 82.8664C178.616 76.7334 167.725 74.4073 156.166 74.5601C145.3 74.703 135.071 77.0586 125.801 82.8664H188.486ZM124.137 93.3141H125.12C134.151 93.3141 143.181 93.3141 152.212 93.3166C153.283 93.3166 153.26 93.117 153.26 94.3687C153.26 111.886 153.26 129.403 153.26 146.92C153.26 147.174 153.207 147.445 153.28 147.674C153.343 147.869 153.544 148.15 153.705 148.162C154.718 148.248 155.738 148.27 156.847 148.317C156.847 147.876 156.847 147.627 156.847 147.378C156.847 128.708 156.844 110.038 156.862 91.3675C156.862 90.6751 156.691 90.4779 155.965 90.4804C145.64 90.5051 135.314 90.4977 124.992 90.4977C124.828 90.4977 124.645 90.4582 124.502 90.5149C124.358 90.5691 124.155 90.717 124.15 90.8303C124.12 91.6287 124.135 92.4295 124.135 93.3092L124.137 93.3141ZM200.92 93.1564C200.188 92.3433 199.575 91.7075 199.017 91.0274C198.67 90.6061 198.271 90.4903 197.738 90.4903C185.223 90.5026 172.707 90.5051 160.192 90.4853C159.501 90.4853 159.272 90.6258 159.275 91.3527C159.297 109.934 159.292 128.518 159.292 147.1C159.292 147.366 159.292 147.635 159.292 147.967C159.639 147.967 159.871 147.977 160.102 147.967C160.547 147.945 160.999 147.94 161.436 147.871C162.507 147.699 162.505 147.686 162.505 146.639C162.505 129.164 162.505 111.686 162.505 94.211C162.505 93.8759 162.535 93.5433 162.552 93.1539H200.92V93.1564ZM195.569 87.972C195.589 87.9178 195.609 87.8636 195.629 87.8118C194.772 87.1342 193.9 86.4763 193.065 85.774C192.605 85.3896 192.115 85.2689 191.52 85.2689C169.364 85.2812 147.208 85.2788 125.052 85.2788C124.841 85.2788 124.617 85.2418 124.421 85.2985C124.278 85.3379 124.069 85.4956 124.064 85.6065C124.034 86.3827 124.047 87.1588 124.047 87.972H195.566H195.569ZM165.066 112.179H214.661C214.598 111.331 214.497 110.538 214.492 109.74C214.49 109.089 214.258 108.887 213.58 108.889C197.662 108.907 181.742 108.904 165.825 108.904C165.576 108.904 165.327 108.926 165.063 108.941V112.179H165.066ZM165.194 118.051H166.054C181.876 118.051 197.698 118.051 213.52 118.051C213.708 118.051 213.904 118.08 214.08 118.036C214.213 118.004 214.422 117.891 214.432 117.795C214.53 116.826 214.595 115.853 214.668 114.885H165.191V118.048L165.194 118.051Z" fill="#3B575C"/>
</svg>
