<svg width="315" height="228" viewBox="0 0 315 228" fill="none" xmlns="http://www.w3.org/2000/svg">
<rect width="315" height="228" rx="20" fill="#E7E9E7"/>
<path d="M178.669 129.554C170.404 129.554 162.138 129.554 153.872 129.554C153.619 129.554 153.365 129.565 153.111 129.556C152.679 129.541 152.549 129.363 152.71 128.982C152.805 128.76 152.942 128.554 153.066 128.345C153.283 127.985 153.503 127.626 153.723 127.269C153.866 127.037 154.016 126.811 154.157 126.58C154.582 125.885 155.003 125.188 155.428 124.493C155.768 123.938 156.116 123.385 156.456 122.83C156.676 122.472 156.883 122.105 157.101 121.747C157.415 121.224 157.785 120.73 158.019 120.164C158.455 119.568 158.784 118.914 159.169 118.292C159.44 117.855 159.747 117.437 159.969 116.971C160.017 116.874 160.083 116.787 160.14 116.695C160.351 116.362 160.567 116.032 160.773 115.697C161.357 114.75 161.935 113.799 162.517 112.85C162.596 112.723 162.687 112.602 162.751 112.469C163.035 111.882 163.418 111.35 163.772 110.803C163.911 110.586 164.027 110.356 164.153 110.132C164.22 110.014 164.277 109.891 164.348 109.775C164.763 109.104 165.18 108.437 165.594 107.769C165.701 107.595 165.795 107.416 165.901 107.24C166.098 106.915 166.298 106.594 166.495 106.268C166.684 105.955 166.868 105.639 167.057 105.325C167.391 104.766 167.722 104.206 168.06 103.647C168.257 103.322 168.469 103.005 168.666 102.681C169.405 101.463 170.14 100.243 170.877 99.0235C171.438 98.095 171.998 97.1646 172.56 96.2361C173.009 95.4926 173.459 94.7509 173.909 94.0073C173.931 93.9718 173.954 93.9382 173.974 93.9027C174.202 93.488 174.556 93.3329 175.05 93.346C176.107 93.374 177.165 93.374 178.223 93.374C181.255 93.374 184.288 93.3721 187.32 93.3703C188.293 93.3703 189.267 93.3703 190.24 93.3721C190.395 93.3721 190.55 93.3777 190.704 93.4002C190.867 93.4226 190.952 93.5272 190.942 93.6804C190.936 93.7719 190.914 93.8672 190.881 93.9531C190.841 94.0522 190.79 94.1493 190.731 94.2409C190.26 94.9881 189.778 95.728 189.318 96.479C188.97 97.045 188.643 97.6242 188.315 98.2015C188.248 98.3173 188.203 98.4481 188.177 98.5789C188.13 98.818 188.272 98.9861 188.523 98.9693C188.702 98.9581 188.889 98.917 189.052 98.8479C189.674 98.5863 190.309 98.3771 190.979 98.2594C191.17 98.2258 191.361 98.1585 191.537 98.0819C191.813 97.9642 192.094 97.9026 192.395 97.8914C192.733 97.8783 193.067 97.8316 193.405 97.8035C193.7 97.7793 193.995 97.7382 194.288 97.7419C194.966 97.7512 195.639 97.6915 196.311 97.6111C197.277 97.4953 198.252 97.4579 199.225 97.4561C201.341 97.4523 203.456 97.4561 205.572 97.4561C208.944 97.4505 212.314 97.4411 215.685 97.4355C216.041 97.4355 216.387 97.3981 216.726 97.2879C216.899 97.2319 217.079 97.2001 217.26 97.1721C218.243 97.0189 219.107 96.6322 219.887 96.0437C220.675 95.4496 221.283 94.7247 221.788 93.9102C221.845 93.8186 221.904 93.7252 221.973 93.6412C222.091 93.4992 222.246 93.4095 222.437 93.3889C222.549 93.3777 222.661 93.3684 222.775 93.3684C224.509 93.3684 226.246 93.3721 227.98 93.374C231.322 93.374 234.666 93.374 238.009 93.374C238.164 93.374 238.32 93.3777 238.473 93.4002C238.713 93.4356 238.805 93.5851 238.744 93.8074C238.727 93.8709 238.697 93.9345 238.666 93.9924C238.607 94.0989 238.553 94.211 238.479 94.3081C237.973 94.9713 237.588 95.7037 237.144 96.4042C236.99 96.6452 236.821 96.8769 236.644 97.1011C236.11 97.7755 235.585 98.4574 234.936 99.0403C234.751 99.2047 234.552 99.356 234.356 99.5092C234.073 99.7316 233.794 99.9557 233.503 100.169C233.235 100.365 232.966 100.561 232.677 100.727C232.04 101.093 231.416 101.493 230.685 101.688C230.524 101.731 230.374 101.813 230.215 101.867C230.003 101.94 229.79 102.011 229.574 102.071C229.277 102.155 228.976 102.227 228.68 102.306C228.611 102.325 228.544 102.356 228.475 102.358C227.913 102.379 227.419 102.633 226.892 102.777C226.786 102.805 226.686 102.861 226.596 102.922C226.497 102.99 226.48 103.124 226.56 103.21C226.643 103.298 226.739 103.386 226.847 103.438C227.06 103.543 227.28 103.634 227.506 103.709C228.29 103.972 228.973 104.389 229.58 104.921C229.704 105.03 229.822 105.148 229.948 105.254C230.498 105.717 230.862 106.296 231.161 106.928C231.383 107.397 231.536 107.868 231.588 108.385C231.666 109.188 231.702 109.986 231.576 110.788C231.542 110.999 231.525 111.214 231.507 111.427C231.491 111.617 231.428 111.791 231.348 111.965C231.257 112.159 231.167 112.361 231.122 112.566C230.937 113.444 230.553 114.248 230.117 115.03C229.893 115.432 229.621 115.809 229.374 116.2C229.236 116.418 229.112 116.645 228.975 116.861C228.153 118.158 227.345 119.464 226.501 120.747C226.063 121.418 225.563 122.051 224.964 122.608C224.409 123.124 223.867 123.649 223.316 124.17C222.956 124.512 222.563 124.816 222.146 125.093C221.336 125.631 220.51 126.143 219.6 126.516C219.458 126.574 219.313 126.632 219.183 126.711C218.762 126.965 218.306 127.135 217.838 127.284C217.532 127.381 217.237 127.512 216.946 127.647C216.7 127.759 216.442 127.815 216.181 127.871C215.866 127.94 215.552 128.018 215.239 128.097C214.626 128.252 214.02 128.427 213.391 128.521C213.363 128.525 213.334 128.523 213.308 128.532C212.573 128.794 211.781 128.754 211.026 128.921C210.796 128.971 210.55 128.979 210.312 128.982C209.942 128.988 209.583 129.018 209.231 129.135C208.963 129.223 208.684 129.263 208.399 129.259C208.257 129.257 208.118 129.263 207.976 129.261C207.156 129.246 206.342 129.289 205.532 129.419C204.893 129.522 204.245 129.558 203.594 129.558C197.994 129.558 192.395 129.558 186.795 129.558C184.088 129.558 181.379 129.558 178.671 129.558L178.669 129.554ZM190.399 119.21V119.217C193.926 119.217 197.452 119.217 200.979 119.217C201.925 119.217 202.868 119.213 203.814 119.206C204.209 119.204 204.606 119.176 204.982 119.053C205.389 118.92 205.802 118.866 206.23 118.881C206.399 118.886 206.571 118.888 206.738 118.877C206.976 118.86 207.219 118.851 207.449 118.795C208.254 118.601 209.085 118.49 209.822 118.092C209.858 118.072 209.903 118.066 209.94 118.048C210.389 117.846 210.821 117.62 211.179 117.289C211.533 116.962 211.887 116.633 212.223 116.291C212.406 116.107 212.569 115.903 212.717 115.692C213.204 115.002 213.637 114.281 214.067 113.558C214.641 112.594 215.074 111.584 215.371 110.517C215.426 110.319 215.453 110.115 215.394 109.921C215.219 109.355 214.938 108.847 214.38 108.536C213.902 108.271 213.391 108.071 212.831 108.038C212.184 107.998 211.535 107.955 210.886 107.954C207.77 107.942 204.652 107.944 201.533 107.944C199.333 107.944 197.133 107.941 194.931 107.948C193.042 107.955 191.152 107.901 189.263 108.01C188.7 108.041 188.134 108.023 187.57 108.028C187.23 108.032 186.895 108.073 186.571 108.178C186.302 108.266 186.026 108.314 185.741 108.32C185.525 108.323 185.321 108.372 185.138 108.479C184.904 108.613 184.646 108.673 184.381 108.716C184.229 108.74 184.064 108.757 183.934 108.826C183.396 109.116 182.867 109.422 182.336 109.727C182.277 109.76 182.228 109.812 182.179 109.861C181.732 110.308 181.245 110.715 180.802 111.165C180.134 111.845 179.558 112.587 179.064 113.385C178.535 114.238 178.042 115.111 177.531 115.976C177.476 116.069 177.413 116.159 177.356 116.25C177.175 116.538 176.994 116.824 176.817 117.115C176.585 117.498 176.359 117.885 176.133 118.272C176.078 118.365 176.019 118.459 175.983 118.559C175.885 118.825 175.995 119.047 176.274 119.135C176.392 119.172 176.522 119.187 176.648 119.198C176.774 119.21 176.902 119.206 177.029 119.206C181.487 119.206 185.944 119.206 190.401 119.206L190.399 119.21Z" fill="#3B575C"/>
<path d="M140.605 129.518C138.012 129.518 135.418 129.518 132.825 129.518C132.74 129.518 132.656 129.518 132.571 129.518C132.316 129.508 132.104 129.411 131.954 129.215C131.841 129.064 131.731 128.905 131.654 128.734C131.398 128.166 131.092 127.625 130.785 127.082C130.632 126.811 130.51 126.523 130.357 126.253C129.903 125.452 129.567 124.595 129.078 123.811C128.878 123.49 128.73 123.139 128.556 122.803C128.398 122.505 128.233 122.21 128.072 121.911C128.001 121.78 127.917 121.653 127.868 121.515C127.744 121.172 127.563 120.854 127.381 120.537C127.153 120.138 126.937 119.731 126.724 119.324C126.432 118.76 126.151 118.191 125.858 117.627C125.569 117.076 125.271 116.529 124.978 115.981C124.813 115.671 124.652 115.359 124.485 115.049C124.402 114.894 124.324 114.735 124.225 114.59C124.054 114.338 123.801 114.203 123.489 114.177C123.349 114.164 123.208 114.162 123.066 114.162C119.697 114.162 116.329 114.166 112.96 114.162C112.52 114.162 112.089 114.2 111.671 114.338C111.514 114.39 111.341 114.399 111.174 114.42C111.034 114.439 110.891 114.433 110.753 114.461C110.011 114.62 109.29 114.825 108.606 115.169C107.891 115.527 107.25 115.984 106.6 116.429C106.346 116.602 106.148 116.828 105.959 117.065C105.671 117.427 105.374 117.786 105.083 118.148C104.981 118.275 104.891 118.411 104.792 118.542C104.419 119.044 104.052 119.548 103.769 120.106C103.647 120.345 103.476 120.563 103.327 120.791C103.268 120.882 103.205 120.972 103.154 121.067C102.596 122.105 101.928 123.081 101.315 124.089C100.8 124.935 100.293 125.784 99.7803 126.632C99.6684 126.817 99.5446 126.998 99.4326 127.182C99.1438 127.657 98.8589 128.134 98.5681 128.609C98.4542 128.793 98.3363 128.976 98.2105 129.154C98.0435 129.387 97.8137 129.533 97.5091 129.544C97.2419 129.553 96.9747 129.562 96.7075 129.559C96.2144 129.549 95.7213 129.516 95.2281 129.516C91.3812 129.512 87.5323 129.512 83.6854 129.514C83.1785 129.514 82.6716 129.536 82.1628 129.54C81.9938 129.54 81.8229 129.534 81.6578 129.505C81.4653 129.469 81.3788 129.318 81.4339 129.141C81.4574 129.064 81.4928 128.989 81.5341 128.92C81.7895 128.489 82.0449 128.058 82.3062 127.629C82.4614 127.375 82.6284 127.126 82.7915 126.874C82.8209 126.83 82.8543 126.787 82.8819 126.74C83.2827 126.064 83.6776 125.385 84.0823 124.711C84.3318 124.293 84.5912 123.878 84.8485 123.462C84.935 123.324 85.0312 123.191 85.1157 123.051C85.5519 122.318 85.9802 121.579 86.4203 120.847C86.7484 120.302 87.0962 119.766 87.4282 119.223C87.6758 118.818 87.9096 118.405 88.1492 117.997C88.328 117.692 88.5009 117.386 88.6836 117.086C89.1768 116.274 89.6719 115.465 90.169 114.655C90.7446 113.72 91.3282 112.788 91.9018 111.851C92.1278 111.482 92.3341 111.099 92.5541 110.726C92.8783 110.179 93.2103 109.634 93.5385 109.087C93.8469 108.575 94.1534 108.064 94.4619 107.554C94.8489 106.916 95.2379 106.279 95.623 105.641C95.8961 105.187 96.1633 104.732 96.4344 104.278C96.4973 104.174 96.5484 104.062 96.6211 103.963C97.0337 103.418 97.3421 102.815 97.6899 102.232C97.9669 101.766 98.2557 101.307 98.5367 100.844C99.1104 99.8916 99.6821 98.9396 100.258 97.9876C100.362 97.814 100.474 97.6423 100.578 97.4687C100.83 97.0506 101.077 96.6306 101.331 96.2124C101.45 96.0146 101.582 95.826 101.702 95.6282C101.922 95.2698 102.134 94.9076 102.354 94.5492C102.511 94.2954 102.67 94.0434 102.837 93.7951C103.018 93.53 103.28 93.3863 103.615 93.3807C104.122 93.3713 104.629 93.362 105.138 93.362C109.565 93.3601 113.989 93.3583 118.416 93.3564C118.628 93.3564 118.838 93.3471 119.05 93.3489C119.176 93.3489 119.306 93.3527 119.429 93.3751C119.705 93.4236 119.803 93.5972 119.705 93.8473C119.675 93.922 119.628 93.9892 119.587 94.0602C119.038 94.9804 118.494 95.9026 117.942 96.8191C117.677 97.2615 117.396 97.6946 117.127 98.1332C116.773 98.7119 116.427 99.2943 116.076 99.8748C115.97 100.048 115.856 100.216 115.75 100.392C114.981 101.671 114.211 102.947 113.447 104.228C113.364 104.366 113.294 104.517 113.248 104.668C113.154 104.976 113.323 105.156 113.645 105.072C114.025 104.975 114.404 104.861 114.769 104.724C115.298 104.528 115.834 104.377 116.398 104.314C116.469 104.306 116.539 104.299 116.606 104.28C117.001 104.166 117.406 104.123 117.814 104.099C118.086 104.082 118.343 104.024 118.592 103.929C118.923 103.8 119.266 103.754 119.624 103.75C123.626 103.7 127.628 103.692 131.632 103.694C132.788 103.694 133.943 103.64 135.098 103.616C135.719 103.603 136.338 103.595 136.959 103.599C137.401 103.603 137.829 103.552 138.247 103.418C138.42 103.362 138.601 103.321 138.782 103.298C139.346 103.226 139.874 103.052 140.393 102.835C140.794 102.669 141.204 102.516 141.556 102.268C142.077 101.902 142.578 101.512 143.087 101.129C143.142 101.088 143.191 101.038 143.234 100.986C143.747 100.349 144.322 99.7572 144.747 99.0572C145.085 98.501 145.44 97.954 145.786 97.4034C146.185 96.7724 146.588 96.1434 146.977 95.5068C147.189 95.1596 147.377 94.8012 147.576 94.4466C147.708 94.2114 147.837 93.9724 147.971 93.7372C148.118 93.4777 148.352 93.3527 148.66 93.3489C148.717 93.3489 148.772 93.3452 148.829 93.3452C149.829 93.3489 150.831 93.3545 151.831 93.3545C155.779 93.3583 159.724 93.3601 163.671 93.362C163.883 93.362 164.093 93.3564 164.305 93.3583C164.417 93.3583 164.531 93.3601 164.641 93.3788C164.883 93.4199 164.995 93.5972 164.926 93.825C164.899 93.9146 164.852 93.9986 164.812 94.0844C164.681 94.3644 164.551 94.6463 164.415 94.9263C164.327 95.1092 164.237 95.2903 164.136 95.4658C163.801 96.0687 163.47 96.6735 163.119 97.269C162.734 97.9223 162.329 98.5663 161.934 99.214C161.47 99.9794 161.003 100.743 160.549 101.512C159.997 102.447 159.376 103.341 158.716 104.209C158.278 104.784 157.822 105.346 157.368 105.91C157.24 106.068 157.099 106.22 156.952 106.363C156.449 106.851 155.936 107.33 155.435 107.819C154.881 108.361 154.236 108.792 153.592 109.225C153.488 109.294 153.376 109.352 153.278 109.428C152.68 109.886 152.004 110.216 151.327 110.545C150.774 110.812 150.228 111.09 149.639 111.282C149.533 111.318 149.44 111.385 149.338 111.428C149.12 111.517 148.9 111.609 148.676 111.687C148.266 111.829 147.853 111.962 147.44 112.096C147.214 112.169 146.983 112.23 146.759 112.311C146.218 112.507 145.67 112.66 145.096 112.742C144.513 112.826 143.939 112.968 143.36 113.076C143.11 113.123 142.865 113.173 142.633 113.279C142.401 113.386 142.159 113.449 141.9 113.449C141.859 113.449 141.815 113.451 141.774 113.455C141.275 113.503 141.075 113.772 141.224 114.231C141.289 114.433 141.401 114.623 141.503 114.814C141.772 115.314 142.049 115.811 142.318 116.311C142.383 116.43 142.428 116.557 142.483 116.681C142.533 116.791 142.568 116.91 142.633 117.013C142.867 117.381 143.043 117.773 143.242 118.157C143.531 118.723 143.857 119.27 144.167 119.826C144.234 119.943 144.309 120.059 144.358 120.184C144.652 120.925 145.091 121.601 145.458 122.309C145.902 123.16 146.348 124.011 146.798 124.858C147.154 125.527 147.521 126.191 147.882 126.856C147.934 126.951 147.994 127.042 148.036 127.141C148.279 127.742 148.615 128.301 148.918 128.875C148.961 128.959 149.01 129.042 149.04 129.131C149.095 129.292 149.02 129.437 148.851 129.48C148.731 129.51 148.602 129.518 148.476 129.518C145.855 129.52 143.232 129.518 140.611 129.518C140.611 129.516 140.611 129.514 140.611 129.512L140.605 129.518Z" fill="#3B575C"/>
<path d="M209.311 88.4304C203.159 88.4304 197.007 88.4304 190.855 88.4304C187.051 88.4304 183.246 88.4323 179.442 88.4342C178.904 88.4342 178.368 88.4342 177.829 88.4248C177.703 88.4248 177.575 88.408 177.455 88.3762C177.301 88.3332 177.222 88.2117 177.257 88.0639C177.289 87.9368 177.344 87.8097 177.413 87.6937C177.8 87.0543 178.194 86.4204 178.582 85.7809C178.758 85.4911 178.926 85.1957 179.095 84.9021C179.101 84.8909 179.109 84.8778 179.117 84.8666C179.643 84.1355 179.996 83.3072 180.521 82.5742C180.592 82.4751 180.669 82.3742 180.718 82.2657C180.96 81.7328 181.319 81.2654 181.621 80.7661C182.013 80.1154 182.4 79.4592 182.79 78.8066C182.881 78.6551 182.978 78.5074 183.086 78.3672C183.283 78.111 183.553 77.9895 183.891 78.0007C184.173 78.0101 184.457 78.0119 184.738 78.0119C190.664 78.0119 196.591 78.0157 202.516 78.0157C211.072 78.0157 219.63 78.0157 228.185 78.0138C228.298 78.0138 228.412 78.0175 228.525 78.0138C229.349 77.9764 230.163 78.0531 230.968 78.2232C231.342 78.3017 231.721 78.3317 232.105 78.3279C232.517 78.3242 232.924 78.3616 233.324 78.4569C233.46 78.4887 233.602 78.5186 233.742 78.5243C234.229 78.5448 234.684 78.6869 235.144 78.8216C235.373 78.8889 235.605 78.9543 235.84 78.9992C236.725 79.1693 237.528 79.5283 238.303 79.9509C238.474 80.0444 238.636 80.1528 238.809 80.2426C239.592 80.6483 240.225 81.228 240.789 81.8637C241.178 82.3012 241.503 82.7967 241.637 83.3764C241.665 83.4942 241.708 83.6082 241.753 83.7204C241.85 83.9616 241.889 84.2122 241.909 84.4665C241.931 84.7469 241.966 85.0274 241.988 85.3079C242 85.4818 242.006 85.6557 241.992 85.8295C241.97 86.1511 241.923 86.469 241.903 86.7906C241.876 87.2263 241.718 87.6283 241.582 88.0359C241.497 88.2921 241.288 88.4211 241.004 88.4323C240.919 88.436 240.835 88.4342 240.75 88.4342C236.564 88.4323 232.377 88.4286 228.191 88.4286C222.124 88.4286 216.057 88.4286 209.99 88.4286C209.763 88.4286 209.536 88.4286 209.311 88.4286V88.4304Z" fill="#3B575C"/>
<path d="M136.397 88.4253C130.063 88.4253 123.728 88.4253 117.394 88.4253C115.24 88.4253 113.088 88.4216 110.934 88.4216C109.745 88.4216 108.557 88.4272 107.368 88.4309C107.257 88.4309 107.144 88.4365 107.033 88.4272C106.727 88.401 106.618 88.2516 106.694 87.962C106.721 87.8593 106.762 87.7566 106.817 87.665C106.937 87.4539 107.058 87.241 107.201 87.043C107.456 86.6881 107.661 86.3089 107.879 85.9353C108.341 85.1414 108.832 84.3624 109.308 83.5741C109.511 83.2379 109.71 82.8998 109.908 82.5617C109.984 82.4328 110.047 82.2983 110.127 82.1731C110.612 81.3904 111.101 80.6096 111.585 79.8269C111.684 79.6663 111.76 79.4907 111.856 79.3281C112.027 79.0367 112.201 78.7472 112.384 78.4614C112.593 78.1401 112.897 78 113.3 78C120.796 78.0112 128.289 78.0168 135.785 78.0205C140.385 78.0205 144.986 78.0205 149.586 78.0112C150.304 78.0112 151.009 78.0747 151.711 78.2036C152.208 78.2933 152.705 78.3493 153.21 78.3344C153.674 78.3213 154.13 78.3605 154.582 78.4633C154.799 78.5118 155.025 78.538 155.247 78.5455C155.543 78.5567 155.826 78.6127 156.113 78.6837C156.612 78.8088 157.121 78.8985 157.623 79.0181C158.043 79.1171 158.462 79.2273 158.873 79.3524C159.298 79.4832 159.715 79.6382 160.134 79.7839C160.16 79.7933 160.187 79.8045 160.21 79.8176C161.035 80.2696 161.934 80.589 162.711 81.1196C163.039 81.3437 163.349 81.5996 163.641 81.8668C163.965 82.1619 164.263 82.4832 164.565 82.7989C164.807 83.0511 165.524 84.1999 165.639 84.5156C165.854 85.1096 166.047 85.713 166.17 86.3313C166.273 86.8487 166.242 87.3717 166.216 87.8948C166.212 87.9863 166.189 88.0816 166.152 88.1675C166.09 88.3113 165.973 88.4066 165.805 88.4253C165.721 88.4346 165.637 88.4346 165.554 88.4346C163.764 88.4328 161.974 88.4253 160.185 88.4253C154.425 88.4253 148.662 88.4253 142.902 88.4253C140.734 88.4253 138.566 88.4253 136.399 88.4253H136.397Z" fill="#3B575C"/>
<path d="M147.074 143.863C147.068 144.383 147.092 144.896 147.255 145.4C147.323 145.613 147.335 145.844 147.345 146.068C147.362 146.453 147.345 146.838 147.364 147.224C147.374 147.42 147.402 147.624 147.468 147.809C147.57 148.096 147.844 148.203 148.148 148.107C148.24 148.077 148.33 148.035 148.411 147.985C148.526 147.911 148.646 147.835 148.744 147.742C149.474 147.04 150.336 146.477 151.091 145.801C151.193 145.711 151.314 145.638 151.42 145.553C151.751 145.287 152.094 145.031 152.407 144.748C152.754 144.435 153.119 144.148 153.516 143.892C153.759 143.737 153.975 143.542 154.2 143.365C154.459 143.161 154.715 142.954 154.972 142.748C155.346 142.448 155.722 142.148 156.095 141.846C156.222 141.743 156.342 141.63 156.469 141.526C156.916 141.161 157.36 140.794 157.811 140.435C158.046 140.246 158.295 140.072 158.534 139.889C158.785 139.696 159.034 139.504 159.28 139.308C159.367 139.239 159.441 139.159 159.525 139.089C159.743 138.909 159.994 138.789 160.287 138.787C160.836 138.782 161.385 138.771 161.929 138.796C162.364 138.817 162.462 139.024 162.245 139.383C161.755 140.189 161.257 140.991 160.769 141.796C160.503 142.233 160.254 142.679 159.986 143.116C159.753 143.496 159.502 143.865 159.265 144.24C159.149 144.422 159.049 144.613 158.943 144.8C158.904 144.87 158.873 144.944 158.83 145.013C158.599 145.392 158.365 145.77 158.13 146.148C157.917 146.49 157.686 146.824 157.49 147.175C157.129 147.822 156.735 148.449 156.314 149.062C156.153 149.296 156.022 149.546 155.871 149.786C155.793 149.912 155.715 150.038 155.619 150.151C155.481 150.314 155.295 150.416 155.076 150.421C154.796 150.431 154.512 150.434 154.233 150.408C153.861 150.373 153.761 150.171 153.93 149.847C153.947 149.812 153.967 149.775 153.992 149.744C154.614 148.918 155.054 147.994 155.603 147.129C156.087 146.368 156.549 145.592 157.021 144.824C157.472 144.089 157.932 143.359 158.305 142.583C158.362 142.465 158.412 142.337 158.434 142.207C158.469 141.993 158.313 141.872 158.101 141.939C157.995 141.972 157.893 142.02 157.799 142.078C157.646 142.172 157.501 142.278 157.358 142.385C156.984 142.665 156.608 142.944 156.24 143.229C156.065 143.363 155.899 143.507 155.738 143.653C155.382 143.976 155.007 144.274 154.606 144.544C154.343 144.72 154.098 144.922 153.867 145.133C153.501 145.464 153.136 145.792 152.713 146.061C152.574 146.15 152.445 146.253 152.317 146.357C151.565 146.975 150.815 147.598 150.064 148.218C149.958 148.305 149.855 148.398 149.735 148.466C149.249 148.746 148.838 149.107 148.461 149.503C148.144 149.836 147.756 150.071 147.331 150.253C147.141 150.334 146.933 150.394 146.73 150.42C146.394 150.462 146.169 150.321 146.022 150.031C145.928 149.846 145.922 149.646 145.913 149.447C145.897 149.103 145.899 148.757 145.871 148.412C145.848 148.122 145.807 147.831 145.744 147.546C145.675 147.233 145.626 146.92 145.626 146.6C145.626 146.014 145.611 145.433 145.46 144.859C145.403 144.642 145.409 144.411 145.399 144.185C145.382 143.84 145.384 143.494 145.362 143.15C145.348 142.952 145.307 142.755 145.268 142.561C145.25 142.47 145.213 142.381 145.17 142.298C144.954 141.878 144.586 141.833 144.282 142.192C144.186 142.305 144.118 142.439 144.041 142.565C143.789 142.978 143.538 143.394 143.287 143.807C143.062 144.176 142.838 144.542 142.611 144.909C142.072 145.779 141.532 146.65 140.993 147.52C140.703 147.99 140.419 148.464 140.131 148.935C139.941 149.246 139.751 149.555 139.555 149.862C139.482 149.975 139.398 150.083 139.31 150.184C139.198 150.312 139.047 150.399 138.875 150.407C138.61 150.418 138.34 150.421 138.077 150.386C137.789 150.347 137.69 150.184 137.788 149.925C137.921 149.577 138.066 149.229 138.244 148.899C138.467 148.486 138.732 148.094 138.971 147.688C139.122 147.435 139.257 147.17 139.41 146.916C139.768 146.314 140.135 145.718 140.495 145.118C140.683 144.807 140.864 144.492 141.052 144.179C141.134 144.04 141.218 143.902 141.316 143.772C141.514 143.511 141.667 143.229 141.82 142.944C141.939 142.72 142.078 142.5 142.247 142.309C142.627 141.878 142.972 141.43 143.213 140.915C143.252 140.83 143.301 140.748 143.356 140.672C143.689 140.211 143.996 139.735 144.237 139.224C144.378 138.928 144.627 138.772 144.966 138.769C145.331 138.763 145.697 138.765 146.061 138.789C146.412 138.813 146.553 138.934 146.639 139.269C146.743 139.669 146.812 140.076 146.816 140.489C146.816 140.728 146.826 140.967 146.826 141.206C146.826 141.631 146.88 142.052 146.982 142.468C147.094 142.924 147.092 143.391 147.078 143.857L147.074 143.863Z" fill="#3B575C"/>
<path d="M135.23 138.766C136.403 138.766 137.576 138.766 138.749 138.766C139.062 138.766 139.37 138.801 139.666 138.896C139.92 138.977 140.176 139.053 140.427 139.142C140.872 139.3 141.197 139.582 141.379 139.997C141.448 140.157 141.509 140.32 141.568 140.483C141.651 140.715 141.653 140.95 141.602 141.191C141.542 141.477 141.487 141.766 141.442 142.053C141.395 142.346 141.29 142.615 141.128 142.871C140.827 143.351 140.553 143.846 140.255 144.328C139.526 145.513 138.721 146.653 137.907 147.788C137.783 147.962 137.625 148.12 137.462 148.266C137.176 148.522 136.866 148.756 136.578 149.012C135.928 149.596 135.151 149.957 134.291 150.176C134.088 150.228 133.875 150.252 133.666 150.271C133.217 150.309 132.766 150.341 132.316 150.371C131.993 150.393 131.667 150.419 131.344 150.421C129.903 150.426 128.462 150.421 127.019 150.428C126.481 150.432 125.946 150.386 125.414 150.322C125.302 150.309 125.189 150.293 125.077 150.285C124.192 150.215 123.541 149.803 123.096 149.09C122.835 148.674 122.796 148.231 122.944 147.781C123.076 147.375 123.253 146.983 123.407 146.583C123.596 146.092 123.892 145.654 124.164 145.203C124.409 144.799 124.679 144.41 124.935 144.013C125.037 143.854 125.138 143.694 125.239 143.535C125.317 143.409 125.39 143.281 125.475 143.158C125.875 142.58 126.283 142.005 126.682 141.425C126.881 141.132 127.106 140.861 127.37 140.618C127.583 140.424 127.784 140.218 128.008 140.034C128.6 139.549 129.235 139.139 130.043 139.037C130.252 139.011 130.459 138.961 130.662 138.907C131.06 138.799 131.466 138.766 131.876 138.768C132.992 138.77 134.11 138.768 135.226 138.768C135.226 138.768 135.226 138.768 135.226 138.766H135.23ZM129.824 149.184V149.177C130.77 149.177 131.719 149.184 132.665 149.177C133.97 149.164 135.007 148.624 135.802 147.679C136.196 147.211 136.543 146.707 136.88 146.201C137.546 145.198 138.191 144.184 138.842 143.173C138.958 142.992 139.072 142.806 139.163 142.613C139.356 142.209 139.47 141.786 139.457 141.34C139.441 140.845 139.208 140.468 138.735 140.249C138.536 140.157 138.311 140.092 138.092 140.066C137.686 140.019 137.276 139.994 136.868 139.99C135.752 139.981 134.634 139.981 133.519 139.99C132.925 139.995 132.334 140.045 131.74 140.042C131.113 140.038 130.542 140.19 130.007 140.487C129.972 140.507 129.933 140.524 129.895 140.54C129.432 140.757 129.053 141.065 128.736 141.453C128.156 142.161 127.683 142.93 127.188 143.689C127.003 143.972 126.816 144.252 126.619 144.529C126.167 145.157 125.741 145.8 125.392 146.483C125.241 146.779 125.126 147.098 125.037 147.417C124.939 147.777 124.986 148.133 125.242 148.439C125.599 148.865 126.059 149.13 126.642 149.173C126.812 149.186 126.981 149.184 127.151 149.184C128.042 149.184 128.931 149.184 129.822 149.184H129.824Z" fill="#3B575C"/>
<path d="M96.6945 150.415C96.3232 150.415 95.9538 150.4 95.5825 150.419C94.7088 150.46 93.845 150.362 92.9872 150.251C92.2624 150.158 91.7481 149.746 91.4046 149.152C91.3251 149.013 91.2755 148.858 91.2159 148.708C91.0988 148.423 91.1047 148.144 91.2159 147.854C91.3073 147.617 91.3748 147.373 91.4304 147.127C91.4959 146.838 91.6012 146.568 91.7501 146.307C92.0479 145.793 92.3379 145.277 92.6317 144.763C92.6714 144.693 92.7151 144.624 92.7588 144.556C93.2175 143.87 93.6842 143.187 94.1329 142.495C94.7882 141.485 95.4336 140.47 96.0789 139.455C96.4979 138.796 96.5694 138.754 97.4113 138.768C97.5821 138.772 97.7549 138.779 97.9197 138.811C98.146 138.852 98.2314 138.99 98.1639 139.192C98.1301 139.292 98.0726 139.386 98.015 139.477C97.451 140.368 96.8891 141.26 96.3192 142.148C96.0054 142.638 95.6758 143.119 95.3621 143.607C95.0186 144.141 94.6869 144.683 94.3434 145.218C94.1687 145.492 93.988 145.762 93.7993 146.026C93.4657 146.494 93.3287 147.023 93.2791 147.567C93.2096 148.327 93.7159 148.919 94.544 149.08C94.7803 149.126 95.0245 149.15 95.2648 149.152C96.5614 149.158 97.8581 149.156 99.1548 149.15C99.4109 149.15 99.6671 149.126 99.9213 149.096C100.076 149.08 100.233 149.048 100.376 148.995C100.837 148.817 101.285 148.612 101.696 148.347C102.042 148.125 102.312 147.835 102.53 147.504C102.967 146.851 103.396 146.194 103.827 145.538C104.095 145.131 104.353 144.717 104.631 144.317C105.122 143.616 105.565 142.891 105.999 142.159C106.097 141.996 106.212 141.844 106.315 141.685C106.462 141.458 106.603 141.228 106.752 141.003C106.982 140.653 107.221 140.305 107.451 139.956C107.6 139.73 107.753 139.506 107.884 139.27C108.067 138.94 108.347 138.772 108.738 138.77C109.022 138.77 109.31 138.766 109.59 138.798C109.876 138.831 109.971 139.011 109.868 139.258C109.838 139.332 109.79 139.399 109.745 139.467C109.459 139.895 109.163 140.316 108.885 140.749C108.591 141.204 108.321 141.672 108.029 142.125C107.648 142.717 107.254 143.3 106.865 143.886C106.776 144.021 106.667 144.147 106.589 144.288C106.051 145.27 105.412 146.196 104.8 147.138C104.409 147.741 103.966 148.314 103.436 148.817C103.108 149.128 102.759 149.437 102.364 149.666C101.772 150.01 101.125 150.262 100.404 150.28C100.106 150.288 99.8061 150.312 99.5102 150.352C99.127 150.404 98.7457 150.417 98.3605 150.415C97.8045 150.412 97.2485 150.415 96.6945 150.415Z" fill="#3B575C"/>
<path d="M168.025 147.233C167.177 147.233 166.327 147.227 165.479 147.236C165.227 147.238 164.971 147.27 164.722 147.312C164.32 147.383 163.918 147.464 163.521 147.56C163.332 147.607 163.143 147.675 162.973 147.766C162.457 148.043 161.966 148.352 161.53 148.739C161.264 148.976 160.966 149.18 160.68 149.396C160.427 149.589 160.151 149.757 159.921 149.97C159.552 150.309 159.13 150.468 158.615 150.42C158.475 150.407 158.333 150.413 158.191 150.401C158.122 150.396 158.051 150.379 157.986 150.359C157.828 150.309 157.781 150.181 157.864 150.04C157.884 150.005 157.909 149.972 157.937 149.942C157.972 149.902 158.01 149.861 158.053 149.828C158.789 149.269 159.447 148.625 160.226 148.11C160.502 147.929 160.759 147.714 160.995 147.488C161.364 147.136 161.76 146.822 162.188 146.533C162.498 146.326 162.788 146.091 163.068 145.846C163.472 145.495 163.868 145.134 164.316 144.828C164.521 144.688 164.708 144.525 164.904 144.371C164.935 144.345 164.965 144.316 164.998 144.292C165.712 143.747 166.392 143.168 167.067 142.581C167.252 142.42 167.461 142.278 167.67 142.145C168 141.934 168.303 141.697 168.573 141.423C168.834 141.158 169.129 140.934 169.433 140.714C169.778 140.462 170.104 140.184 170.443 139.923C170.835 139.62 171.23 139.318 171.63 139.022C171.963 138.776 172.346 138.72 172.754 138.8C173.032 138.854 173.164 138.996 173.19 139.265C173.2 139.37 173.194 139.477 173.194 139.583C173.19 140.432 173.2 141.28 173.251 142.13C173.318 143.255 173.34 144.386 173.353 145.513C173.371 146.894 173.361 148.275 173.361 149.656C173.361 149.774 173.361 149.896 173.338 150.013C173.288 150.246 173.125 150.387 172.87 150.407C172.602 150.429 172.334 150.418 172.072 150.348C171.892 150.3 171.774 150.192 171.738 150.022C171.711 149.892 171.701 149.759 171.699 149.628C171.695 149.15 171.699 148.673 171.695 148.193C171.695 148.06 171.693 147.927 171.669 147.797C171.612 147.484 171.419 147.303 171.084 147.247C170.946 147.225 170.802 147.222 170.662 147.222C169.784 147.22 168.909 147.222 168.031 147.222V147.233H168.025ZM168.489 146.124V146.12C169.181 146.12 169.873 146.124 170.565 146.118C170.748 146.118 170.932 146.098 171.111 146.068C171.377 146.024 171.531 145.857 171.579 145.615C171.604 145.485 171.61 145.35 171.604 145.219C171.563 144.477 171.521 143.736 171.468 142.996C171.448 142.718 171.403 142.443 171.36 142.167C171.344 142.063 171.314 141.958 171.267 141.863C171.133 141.6 170.877 141.508 170.597 141.637C170.447 141.706 170.315 141.811 170.184 141.911C169.899 142.128 169.621 142.352 169.339 142.574C169.22 142.668 169.102 142.763 168.986 142.859C168.804 143.005 168.629 143.161 168.439 143.3C168.14 143.522 167.824 143.723 167.53 143.951C166.954 144.399 166.385 144.854 165.821 145.315C165.716 145.4 165.627 145.513 165.566 145.628C165.462 145.826 165.552 146.004 165.781 146.057C165.957 146.098 166.144 146.12 166.325 146.122C167.045 146.13 167.767 146.126 168.487 146.126L168.489 146.124Z" fill="#3B575C"/>
<path d="M83.0122 147.227C82.1795 147.227 81.3468 147.227 80.5122 147.227C80.4276 147.227 80.3429 147.223 80.2583 147.233C79.5968 147.298 78.965 147.492 78.3252 147.652C77.8055 147.923 77.3055 148.227 76.8665 148.604C76.3961 149.008 75.9295 149.41 75.3981 149.744C75.2229 149.854 75.0693 149.995 74.9059 150.123C74.6461 150.327 74.3508 150.438 74.0103 150.421C73.7425 150.408 73.4748 150.403 73.2111 150.364C73.0004 150.332 72.9414 150.167 73.0614 150.008C73.1185 149.933 73.1855 149.859 73.2662 149.807C73.6973 149.525 74.0693 149.179 74.4551 148.846C74.4965 148.811 74.5398 148.778 74.5851 148.744C75.276 148.238 75.9571 147.721 76.5654 147.125C76.6618 147.031 76.776 146.947 76.8921 146.873C77.4059 146.541 77.8606 146.142 78.3311 145.76C79.1441 145.101 79.9236 144.406 80.7917 143.805C80.9846 143.671 81.1697 143.523 81.335 143.361C81.7622 142.951 82.2366 142.597 82.7169 142.245C82.9827 142.05 83.2287 141.829 83.4846 141.621C83.7838 141.378 84.0732 141.124 84.3882 140.9C84.7602 140.635 85.1106 140.349 85.4571 140.054C85.896 139.679 86.3626 139.334 86.8252 138.984C87.0948 138.778 87.4137 138.739 87.7484 138.782C88.0299 138.817 88.1775 138.956 88.2188 139.217C88.2287 139.282 88.2307 139.351 88.2287 139.416C88.1913 140.39 88.2503 141.356 88.4078 142.319C88.4787 142.751 88.4964 143.193 88.5003 143.63C88.5141 145.094 88.5062 146.557 88.5122 148.021C88.5141 148.566 88.5318 149.112 88.5397 149.657C88.5397 149.763 88.5436 149.87 88.5299 149.976C88.4944 150.24 88.3448 150.394 88.0673 150.414C87.772 150.434 87.4748 150.429 87.1775 150.423C86.9866 150.421 86.8547 150.316 86.8015 150.151C86.7622 150.026 86.7464 149.889 86.7444 149.759C86.7346 149.268 86.7385 148.774 86.7267 148.283C86.7228 148.097 86.7051 147.91 86.6677 147.728C86.6204 147.502 86.4669 147.346 86.2248 147.292C86.0614 147.257 85.8921 147.233 85.7248 147.231C84.8212 147.225 83.9177 147.229 83.0142 147.229L83.0122 147.227ZM83.6854 146.12C83.6854 146.12 83.6854 146.116 83.6854 146.114C84.3488 146.114 85.0122 146.116 85.6736 146.114C85.8429 146.114 86.0122 146.097 86.1775 146.075C86.461 146.036 86.6401 145.88 86.6834 145.611C86.713 145.428 86.7366 145.242 86.7326 145.057C86.713 144.141 86.6874 143.224 86.6519 142.308C86.646 142.137 86.6086 141.963 86.5476 141.803C86.4708 141.596 86.272 141.499 86.0397 141.536C85.9315 141.553 85.8212 141.594 85.7267 141.646C85.6185 141.705 85.5181 141.781 85.4236 141.861C84.9886 142.219 84.5693 142.595 84.083 142.894C84.0122 142.937 83.9472 142.992 83.8921 143.05C83.5417 143.421 83.1067 143.693 82.6854 143.983C82.459 144.139 82.2484 144.317 82.0378 144.491C81.7523 144.729 81.4728 144.972 81.1894 145.211C81.0949 145.291 80.9925 145.363 80.9059 145.448C80.839 145.515 80.7799 145.593 80.7386 145.676C80.6638 145.825 80.7386 145.973 80.9039 146.027C80.9689 146.049 81.0417 146.06 81.1106 146.066C81.3626 146.086 81.6165 146.114 81.8705 146.118C82.4768 146.125 83.083 146.12 83.6893 146.12H83.6854Z" fill="#3B575C"/>
<path d="M222.31 144.813C222.31 145.621 222.31 146.431 222.31 147.238C222.31 147.995 222.367 148.747 222.524 149.492C222.551 149.621 222.575 149.754 222.575 149.885C222.575 150.153 222.45 150.325 222.17 150.36C221.814 150.405 221.449 150.41 221.089 150.405C220.893 150.401 220.754 150.266 220.714 150.081C220.677 149.913 220.655 149.741 220.651 149.571C220.642 149.12 220.646 148.671 220.642 148.22C220.642 148.087 220.642 147.954 220.626 147.823C220.591 147.525 220.412 147.335 220.107 147.274C219.932 147.238 219.747 147.233 219.566 147.231C218.228 147.227 216.89 147.227 215.551 147.227C215.132 147.227 214.714 147.224 214.296 147.242C214.061 147.253 213.828 147.296 213.596 147.342C213.297 147.401 213.003 147.49 212.704 147.547C212.297 147.625 211.941 147.784 211.622 148.037C210.992 148.538 210.354 149.033 209.715 149.523C209.411 149.754 209.09 149.967 208.775 150.187C208.53 150.357 208.258 150.44 207.953 150.427C207.785 150.42 207.618 150.427 207.451 150.416C207.356 150.41 207.258 150.388 207.167 150.357C207.044 150.316 206.998 150.202 207.066 150.1C207.132 150 207.212 149.906 207.303 149.826C207.649 149.518 207.997 149.213 208.351 148.913C208.507 148.782 208.678 148.664 208.847 148.551C209.236 148.292 209.611 148.019 209.944 147.693C210.012 147.627 210.082 147.562 210.158 147.503C210.961 146.867 211.766 146.233 212.567 145.595C212.781 145.425 212.989 145.248 213.182 145.059C213.542 144.704 213.934 144.392 214.36 144.111C214.611 143.946 214.847 143.754 215.062 143.549C215.34 143.287 215.628 143.039 215.945 142.821C216.114 142.704 216.28 142.582 216.439 142.453C217.005 142 217.567 141.547 218.127 141.091C218.265 140.978 218.394 140.856 218.518 140.732C218.895 140.359 219.312 140.026 219.751 139.721C219.998 139.549 220.229 139.359 220.461 139.168C220.686 138.983 220.926 138.83 221.227 138.787C221.282 138.78 221.338 138.769 221.392 138.767C221.812 138.75 222.05 138.943 222.089 139.342C222.127 139.725 222.127 140.111 222.19 140.49C222.312 141.227 222.31 141.967 222.306 142.71C222.301 143.412 222.306 144.115 222.306 144.817L222.31 144.813ZM217.635 146.129V146.122C218.291 146.122 218.946 146.126 219.601 146.12C219.767 146.12 219.936 146.1 220.099 146.074C220.397 146.028 220.56 145.843 220.618 145.571C220.64 145.468 220.644 145.36 220.644 145.255C220.64 144.222 220.634 143.189 220.628 142.155C220.628 142.063 220.622 141.969 220.605 141.878C220.525 141.468 220.266 141.344 219.879 141.529C219.842 141.547 219.805 141.566 219.772 141.59C219.438 141.828 219.096 142.057 218.773 142.309C218.213 142.745 217.668 143.2 217.112 143.64C216.641 144.013 216.159 144.373 215.691 144.749C215.446 144.945 215.218 145.159 214.985 145.37C214.893 145.451 214.8 145.534 214.73 145.63C214.603 145.802 214.668 145.963 214.883 146.031C214.95 146.052 215.018 146.065 215.088 146.07C215.337 146.092 215.587 146.122 215.836 146.126C216.435 146.133 217.034 146.128 217.635 146.128V146.129Z" fill="#3B575C"/>
<path d="M206.804 138.772C208.149 138.772 209.494 138.772 210.839 138.772C210.996 138.772 211.157 138.779 211.312 138.807C211.532 138.848 211.625 139.011 211.53 139.2C211.294 139.676 210.913 140.006 210.31 140C208.387 139.984 206.464 140 204.54 139.991C203.887 139.987 203.24 140.032 202.593 140.08C202.407 140.095 202.218 140.128 202.044 140.187C201.371 140.415 200.766 140.749 200.288 141.251C199.946 141.611 199.597 141.964 199.355 142.396C199.238 142.608 199.067 142.793 198.928 142.997C198.417 143.738 197.905 144.477 197.407 145.226C197.137 145.634 196.895 146.058 196.643 146.477C196.393 146.895 196.317 147.346 196.315 147.822C196.315 148.539 196.964 149.03 197.516 149.097C197.817 149.134 198.121 149.162 198.424 149.162C200.534 149.167 202.647 149.164 204.758 149.164C204.917 149.164 205.077 149.16 205.234 149.177C205.466 149.203 205.558 149.338 205.494 149.545C205.429 149.751 205.329 149.942 205.175 150.107C204.998 150.298 204.772 150.405 204.5 150.424C204.399 150.431 204.298 150.427 204.196 150.427C202.099 150.427 200.002 150.427 197.905 150.422C197.631 150.422 197.357 150.392 197.085 150.37C196.782 150.346 196.482 150.309 196.18 150.285C195.387 150.222 194.793 149.853 194.351 149.269C194.055 148.876 194.057 148.426 194.115 147.965C194.22 147.14 194.613 146.416 195.032 145.702C195.5 144.907 196.041 144.151 196.579 143.395C196.627 143.328 196.678 143.262 196.714 143.191C197.099 142.472 197.631 141.84 198.107 141.175C198.218 141.021 198.357 140.882 198.496 140.747C198.746 140.506 199.004 140.275 199.26 140.039C199.837 139.509 200.5 139.131 201.323 139.018C201.452 139.001 201.581 138.979 201.704 138.942C202.206 138.786 202.722 138.768 203.246 138.772C204.431 138.779 205.617 138.774 206.804 138.774V138.766V138.772Z" fill="#3B575C"/>
<path d="M118.94 138.776C121.099 138.776 123.257 138.776 125.415 138.776C125.568 138.776 125.726 138.787 125.877 138.815C126.05 138.848 126.145 138.996 126.07 139.148C125.861 139.576 125.519 140.026 124.923 139.998C124.276 139.966 123.627 139.994 122.977 139.994C122.074 139.994 121.171 139.994 120.268 139.994C120.184 139.994 120.099 139.996 120.015 139.994C119.535 139.987 119.175 140.166 118.937 140.57C118.628 141.092 118.307 141.606 117.99 142.123C117.935 142.215 117.886 142.311 117.829 142.402C117.404 143.074 116.973 143.744 116.554 144.42C115.775 145.68 115 146.944 114.227 148.21C113.904 148.74 113.587 149.273 113.265 149.8C113.202 149.904 113.129 150.002 113.05 150.096C112.865 150.318 112.623 150.439 112.319 150.428C112.122 150.422 111.923 150.424 111.726 150.411C111.616 150.404 111.502 150.381 111.398 150.346C111.248 150.296 111.17 150.17 111.217 150.03C111.268 149.88 111.339 149.734 111.423 149.597C112.035 148.612 112.661 147.635 113.267 146.646C113.753 145.854 114.211 145.045 114.695 144.251C114.974 143.79 115.283 143.346 115.567 142.887C115.956 142.256 116.338 141.621 116.715 140.984C116.79 140.858 116.857 140.723 116.893 140.583C116.957 140.333 116.835 140.129 116.574 140.055C116.414 140.011 116.241 139.994 116.074 139.994C114.734 139.99 113.395 139.994 112.053 139.994C111.884 139.994 111.713 139.998 111.545 139.977C111.28 139.944 111.174 139.779 111.288 139.55C111.382 139.359 111.51 139.182 111.644 139.011C111.736 138.893 111.88 138.821 112.041 138.802C112.195 138.785 112.35 138.769 112.503 138.767C114.648 138.765 116.792 138.767 118.937 138.767V138.771L118.94 138.776Z" fill="#3B575C"/>
<path d="M185.654 138.77C187.788 138.77 189.921 138.77 192.056 138.77C192.226 138.77 192.397 138.781 192.56 138.812C192.757 138.849 192.836 139.001 192.761 139.175C192.653 139.423 192.491 139.642 192.281 139.825C192.151 139.938 191.985 139.977 191.812 139.981C191.53 139.986 191.247 139.994 190.965 139.994C189.665 139.994 188.365 139.994 187.065 139.994C186.909 139.994 186.753 139.994 186.598 140.001C186.206 140.025 185.895 140.185 185.68 140.497C185.611 140.597 185.544 140.699 185.479 140.801C184.872 141.775 184.264 142.747 183.659 143.721C183.383 144.169 183.121 144.625 182.845 145.073C182.55 145.556 182.243 146.032 181.945 146.515C181.699 146.917 181.461 147.326 181.218 147.73C181.045 148.019 180.87 148.308 180.692 148.595C180.458 148.974 180.224 149.352 179.987 149.728C179.901 149.865 179.816 150.004 179.711 150.128C179.546 150.328 179.325 150.435 179.052 150.428C178.825 150.422 178.599 150.424 178.374 150.409C178.264 150.402 178.151 150.374 178.045 150.341C177.941 150.308 177.889 150.222 177.897 150.122C177.903 150.045 177.921 149.965 177.952 149.893C177.99 149.808 178.045 149.728 178.094 149.648C178.736 148.617 179.384 147.589 180.019 146.554C180.47 145.817 180.901 145.071 181.342 144.33C181.39 144.249 181.431 144.164 181.488 144.088C181.973 143.432 182.345 142.714 182.763 142.021C182.971 141.675 183.202 141.34 183.413 140.996C183.489 140.87 183.562 140.736 183.598 140.597C183.669 140.32 183.545 140.123 183.251 140.053C183.076 140.01 182.889 139.997 182.707 139.997C181.478 139.994 180.249 139.997 179.02 139.997C178.807 139.997 178.597 140.001 178.384 139.992C178.287 139.988 178.187 139.97 178.096 139.936C177.947 139.883 177.883 139.751 177.943 139.612C178.051 139.366 178.197 139.135 178.409 138.957C178.5 138.883 178.626 138.829 178.746 138.807C178.91 138.775 179.083 138.774 179.252 138.775C181.203 138.777 183.153 138.783 185.103 138.786C185.286 138.786 185.469 138.786 185.654 138.786V138.766V138.77Z" fill="#3B575C"/>
<path d="M189.019 150.428C188.866 150.421 188.711 150.425 188.561 150.401C188.307 150.36 188.202 150.197 188.284 149.966C188.326 149.842 188.394 149.721 188.464 149.608C189.004 148.725 189.549 147.846 190.086 146.963C190.521 146.252 190.952 145.539 191.381 144.827C191.893 143.975 192.398 143.12 192.914 142.27C193.374 141.513 193.845 140.762 194.307 140.004C194.412 139.832 194.497 139.651 194.6 139.479C194.682 139.342 194.767 139.203 194.87 139.079C194.984 138.942 195.138 138.844 195.324 138.814C195.669 138.757 196.017 138.747 196.362 138.805C196.638 138.849 196.735 139.02 196.638 139.269C196.605 139.356 196.56 139.442 196.502 139.516C196.116 140.023 195.852 140.597 195.516 141.132C194.967 142.009 194.427 142.89 193.894 143.777C193.158 144.997 192.436 146.222 191.703 147.442C191.42 147.914 191.111 148.372 190.824 148.842C190.649 149.129 190.494 149.425 190.327 149.716C190.261 149.832 190.193 149.949 190.108 150.053C189.916 150.282 189.662 150.406 189.351 150.421C189.24 150.427 189.128 150.421 189.017 150.421C189.017 150.423 189.017 150.425 189.017 150.427L189.019 150.428Z" fill="#3B575C"/>
</svg>
