<svg width="315" height="228" viewBox="0 0 315 228" fill="none" xmlns="http://www.w3.org/2000/svg">
<rect width="315" height="228" rx="20" fill="#E7E9E7"/>
<path d="M259.997 150.072C258.195 149.396 256.455 148.643 254.403 148.692C250.094 148.792 246.727 152.312 246.998 156.291C247.38 161.935 253.497 164.613 258.814 162.218C259.206 162.041 259.503 161.673 260 161.703V163.757C256.956 165.162 253.81 165.433 250.625 164.278C246.27 162.696 243.97 158.351 244.985 153.796C245.894 149.719 249.689 146.909 254.209 146.83C256.271 146.793 258.178 147.177 260 148.021V150.075L259.997 150.072Z" fill="#3B575C"/>
<path d="M156.326 63V135.688C155.857 135.721 155.7 135.351 155.47 135.131C143.322 123.515 131.187 111.884 119.022 100.283C118.317 99.6099 118.329 99.2642 119.032 98.5973C131.142 87.0487 143.22 75.4756 155.308 63.9055C155.579 63.6455 155.87 63.4069 156.326 63ZM142.089 101.143C142.089 103.697 142.089 106.252 142.089 108.803C142.089 111.354 142.089 111.367 144.798 111.434C145.829 111.458 146.132 111.229 146.123 110.192C146.065 104.171 146.117 98.1476 146.072 92.124C146.065 91.1603 146.353 90.8819 147.336 90.937C148.805 91.0165 150.281 90.9584 151.756 90.9584C154.474 90.9584 154.436 90.9584 154.445 88.3794C154.445 87.5473 154.145 87.3791 153.347 87.3821C147.732 87.4097 142.118 87.3974 136.504 87.3974C133.821 87.3974 133.85 87.3974 133.863 89.9886C133.866 90.7228 134.061 90.9951 134.862 90.9737C136.734 90.9247 138.605 90.9492 140.477 90.9614C142.339 90.9737 142.083 90.7595 142.089 92.4513C142.105 95.3484 142.093 98.2455 142.093 101.143H142.089Z" fill="#3B575C"/>
<path d="M158.836 63.1401C159.247 63.5071 159.54 63.7549 159.816 64.0179C171.89 75.5084 183.959 87.0081 196.053 98.4772C196.775 99.1623 196.933 99.511 196.11 100.294C184.016 111.766 171.961 123.275 159.909 134.787C159.607 135.077 159.421 135.481 159.183 135.83C159.067 135.744 158.952 135.659 158.836 135.573V63.1401ZM164.482 105.065C164.482 106.209 164.524 107.151 164.466 108.09C164.424 108.744 164.668 109.124 165.262 109.451C166.736 110.264 168.303 110.824 169.967 111.087C173.467 111.641 176.923 111.684 180.057 109.76C184.331 107.136 184.11 101.505 179.668 99.144C177.732 98.1163 175.625 97.5352 173.509 96.9725C172.353 96.6636 171.181 96.3791 170.147 95.7919C168.223 94.697 168.3 92.5133 170.291 91.5254C170.779 91.2838 171.332 91.1309 171.874 91.0299C174.524 90.5222 177.038 91.0636 179.482 92.0148C180.131 92.2655 180.751 92.5806 181.515 92.9231C181.515 91.9383 181.451 91.1064 181.534 90.2837C181.614 89.4885 181.229 89.1337 180.539 88.8218C178.515 87.9073 176.377 87.4883 174.161 87.4363C171.772 87.3812 169.466 87.7085 167.382 88.9686C163.91 91.0636 163.647 96.8624 167.834 98.7311C169.363 99.4131 170.921 99.9728 172.533 100.416C174.18 100.869 175.863 101.23 177.385 102.031C179.63 103.218 179.733 105.686 177.568 107.007C176.531 107.64 175.365 107.894 174.151 107.949C170.664 108.108 167.549 107.071 164.482 105.068V105.065Z" fill="#3B575C"/>
<path d="M232.005 155.132C234.008 152.562 235.996 150.112 237.849 147.577C238.511 146.672 239.319 146.89 240.145 146.887C240.581 146.887 240.451 147.256 240.451 147.489C240.457 152.892 240.438 158.291 240.476 163.693C240.482 164.629 239.865 164.323 239.379 164.38C238.765 164.456 238.466 164.335 238.473 163.623C238.511 159.508 238.492 155.39 238.492 151.275C238.492 150.914 238.492 150.554 238.492 149.906C236.612 152.31 234.921 154.475 233.229 156.637C232.399 157.697 231.579 157.688 230.723 156.604C229.035 154.463 227.356 152.313 225.664 150.157C225.267 150.375 225.464 150.705 225.464 150.96C225.448 155.114 225.429 159.269 225.473 163.424C225.483 164.235 225.235 164.408 224.421 164.414C223.597 164.42 223.467 164.141 223.47 163.445C223.499 158.345 223.473 153.246 223.505 148.15C223.505 147.738 223.101 147.014 223.826 146.923C224.567 146.829 225.391 146.605 226.039 147.495C227.798 149.912 229.69 152.244 231.534 154.606C231.652 154.757 231.785 154.893 232.005 155.142V155.132Z" fill="#3B575C"/>
<path d="M165.877 150.142C163.821 152.699 161.949 155.028 160.073 157.354C158.377 159.459 156.665 161.552 154.998 163.678C154.603 164.182 154.201 164.388 153.523 164.412C152.727 164.439 152.621 164.157 152.627 163.505C152.659 160.178 152.643 156.851 152.643 153.524C152.643 151.558 152.695 149.59 152.621 147.625C152.589 146.782 153.048 146.842 153.639 146.839C154.24 146.836 154.66 146.8 154.651 147.628C154.599 152.004 154.628 156.384 154.628 161.039C156.581 158.604 158.37 156.369 160.163 154.136C161.904 151.968 163.683 149.83 165.36 147.619C165.893 146.915 166.491 146.809 167.284 146.83C167.789 146.842 167.869 147.036 167.866 147.443C167.856 152.887 167.846 158.334 167.872 163.778C167.875 164.673 167.233 164.321 166.802 164.376C166.24 164.448 165.848 164.418 165.858 163.654C165.9 159.456 165.877 155.259 165.877 151.061V150.139V150.142Z" fill="#3B575C"/>
<path d="M72.1813 161.364C74.5812 162.991 77.1194 163.527 79.8025 162.8C82.5241 162.063 84.1615 160.247 84.8114 157.634C84.9947 156.895 84.8532 156.548 83.9138 156.576C81.7069 156.636 79.4968 156.566 77.2899 156.612C76.55 156.627 76.3313 156.433 76.3377 155.724C76.3441 155.051 76.4825 154.811 77.2578 154.829C79.4647 154.884 81.6748 154.811 83.8817 154.866C84.7921 154.89 84.9433 154.623 84.7342 153.838C83.6758 149.88 79.484 147.814 75.0959 149.104C74.2563 149.351 73.4874 149.734 72.696 150.111C72.2842 148.207 72.4161 147.9 74.2531 147.358C79.188 145.91 84.0489 147.44 86.3169 151.778C88.5367 156.031 87.0215 161.209 82.8329 163.654C80.0148 165.3 76.9811 165.306 73.9282 164.372C72.014 163.785 71.9368 163.545 72.1845 161.361L72.1813 161.364Z" fill="#3B575C"/>
<path d="M206.936 155.615C206.936 152.964 206.955 150.316 206.924 147.666C206.918 147.049 207.058 146.825 207.743 146.831C211.319 146.864 214.891 146.87 218.467 146.828C219.258 146.819 219.33 147.134 219.333 147.763C219.339 148.431 219.168 148.698 218.424 148.689C215.549 148.653 212.674 148.701 209.799 148.656C209.023 148.643 208.811 148.865 208.849 149.597C208.911 150.805 208.923 152.023 208.846 153.228C208.796 154.024 209.113 154.145 209.83 154.13C212.082 154.09 214.337 154.13 216.589 154.103C217.212 154.093 217.499 154.215 217.471 154.901C217.446 155.505 217.424 155.891 216.614 155.873C214.362 155.824 212.107 155.897 209.855 155.836C209.014 155.815 208.821 156.079 208.849 156.85C208.908 158.438 208.92 160.032 208.846 161.617C208.805 162.452 209.113 162.598 209.892 162.586C212.805 162.54 215.72 162.592 218.636 162.552C219.405 162.543 219.719 162.692 219.732 163.53C219.744 164.38 219.349 164.41 218.685 164.404C215.11 164.383 211.537 164.371 207.961 164.413C207.173 164.423 206.902 164.268 206.921 163.442C206.98 160.831 206.942 158.22 206.942 155.609L206.936 155.615Z" fill="#3B575C"/>
<path d="M104.087 146.955C101.934 148.869 99.8889 150.688 97.8409 152.504C97.1731 153.095 96.5181 153.707 95.8184 154.262C95.2817 154.687 95.2114 154.972 95.7801 155.478C98.9975 158.349 102.177 161.26 105.64 164.404C104.068 164.249 102.822 164.744 101.633 163.564C99.2946 161.248 96.7801 159.095 94.3391 156.873C93.9494 156.518 93.55 156.169 92.994 155.675C92.994 158.38 92.9589 160.893 93.0164 163.404C93.0356 164.189 92.8343 164.428 91.9812 164.413C91.1984 164.398 91.0003 164.201 91.0035 163.467C91.0355 158.216 91.0451 152.965 90.9972 147.713C90.9908 146.874 91.3614 146.861 92.0387 146.831C92.8375 146.795 93.0324 147.043 93.0132 147.774C92.9621 149.869 92.994 151.967 92.994 154.302C95.4286 152.128 97.7642 150.203 99.8857 148.083C101.087 146.883 102.355 146.683 104.09 146.958L104.087 146.955Z" fill="#3B575C"/>
<path d="M148.916 161.505C149.044 163.65 148.999 163.818 147.042 164.417C141.207 166.212 135.417 163.784 134.009 158.223C132.679 152.959 135.825 148.052 141.287 147.033C143.129 146.689 145.028 146.762 146.85 147.367C148.675 147.973 148.803 148.168 148.485 150.063C142.569 148.082 139.514 148.563 137.174 151.837C135.356 154.383 135.561 158.369 137.627 160.62C140.317 163.55 143.871 163.845 148.912 161.505H148.916Z" fill="#3B575C"/>
<path d="M186.312 150.097C180.689 147.992 177.31 148.527 174.966 151.856C173.064 154.552 173.397 158.604 175.706 160.883C178.492 163.63 182.466 163.865 186.51 161.516C187.048 163.007 186.85 163.606 185.444 164.163C180 166.317 173.394 164.297 171.854 158.3C170.496 153.018 173.551 148.132 178.995 147.052C180.791 146.696 182.632 146.75 184.423 147.313C186.462 147.955 186.475 147.955 186.312 150.1V150.097Z" fill="#3B575C"/>
<path d="M63.283 156.591C63.283 158.938 63.2389 161.285 63.3081 163.633C63.3333 164.486 62.8705 164.398 62.3006 164.41C61.6992 164.425 61.3057 164.431 61.3151 163.612C61.3623 158.956 61.3151 154.298 61.3592 149.643C61.3655 148.844 61.1482 148.616 60.3233 148.653C58.834 148.72 57.3384 148.631 55.846 148.686C54.999 148.717 55.0242 148.267 55.0022 147.69C54.9801 147.086 55.1155 146.825 55.8271 146.828C60.1879 146.858 64.5487 146.861 68.9095 146.828C69.7376 146.822 69.6305 147.262 69.6399 147.76C69.6525 148.294 69.6588 148.713 68.8717 148.686C67.3006 148.638 65.7263 148.717 64.1583 148.653C63.3995 148.622 63.2546 148.871 63.2641 149.549C63.3081 151.896 63.2798 154.243 63.2798 156.591H63.283Z" fill="#3B575C"/>
<path d="M196.023 146.847C198.139 146.847 200.256 146.883 202.369 146.829C203.135 146.808 203.276 147.071 203.257 147.735C203.239 148.351 203.201 148.724 202.388 148.69C200.902 148.63 199.408 148.721 197.923 148.654C197.113 148.618 196.874 148.824 196.883 149.633C196.927 154.205 196.89 158.78 196.918 163.355C196.921 164.065 196.868 164.429 195.951 164.413C195.103 164.398 194.937 164.162 194.943 163.392C194.981 158.856 194.943 154.32 194.981 149.785C194.987 148.948 194.839 148.581 193.86 148.651C192.575 148.745 191.276 148.672 189.982 148.675C189.288 148.675 188.613 148.857 188.616 147.72C188.616 146.617 189.285 146.85 189.91 146.85C191.948 146.844 193.985 146.85 196.02 146.85L196.023 146.847Z" fill="#3B575C"/>
<path d="M119.166 158.535C118.238 158.535 117.308 158.514 116.38 158.541C115.782 158.559 115.358 158.562 115.405 157.753C115.442 157.086 115.523 156.768 116.342 156.795C118.198 156.858 120.057 156.846 121.916 156.801C122.635 156.783 122.735 157.083 122.722 157.666C122.71 158.201 122.728 158.601 121.953 158.547C121.028 158.481 120.097 158.532 119.166 158.532V158.535Z" fill="#3B575C"/>
</svg>
