<svg width="315" height="228" viewBox="0 0 315 228" fill="none" xmlns="http://www.w3.org/2000/svg">
<rect width="315" height="228" rx="20" fill="#E7E9E7"/>
<path d="M148.39 68.0017C160.132 68.0017 171.875 68.0017 183.618 68.0017C183.753 68.024 183.888 68.0531 184.026 68.0703C184.963 68.1885 185.911 68.2451 186.835 68.4319C191.389 69.3471 195.262 71.51 198.394 74.9428C202.067 78.9704 203.966 83.7418 203.978 89.1833C204.014 105.743 204 122.302 203.975 138.863C203.973 140.186 203.824 141.53 203.57 142.829C202.681 147.388 200.502 151.257 197.069 154.39C193.043 158.065 188.271 159.966 182.829 159.978C166.27 160.015 149.71 160 133.151 159.972C131.817 159.971 130.465 159.813 129.152 159.561C125.23 158.812 121.792 157.052 118.87 154.327C114.941 150.661 112.691 146.145 112.13 140.794C112.089 140.402 112.045 140.009 112 139.617C112 122.542 112 105.465 112 88.3898C112.022 88.2749 112.051 88.1601 112.065 88.0453C112.156 87.2569 112.202 86.46 112.338 85.6784C113.073 81.4092 114.955 77.7039 117.946 74.5778C120.609 71.7928 123.806 69.8595 127.525 68.8295C128.657 68.5159 129.822 68.3256 131.027 68.0668V68.6118C131.027 81.9765 131.032 95.3429 131.022 108.708C131.022 110.512 131.156 112.286 131.738 114.01C133.128 118.129 136.99 120.917 141.344 120.917C148.064 120.919 154.785 120.917 161.505 120.917H161.884V118.374H161.48C159.867 118.374 158.254 118.393 156.641 118.365C155.882 118.351 155.116 118.295 154.367 118.175C152.001 117.794 150.306 116.552 149.41 114.274C148.727 112.543 148.381 110.756 148.381 108.901C148.378 95.396 148.38 81.8908 148.381 68.3856C148.381 68.2571 148.39 68.1285 148.395 68L148.39 68.0017ZM146.561 138.501C146.561 139.235 146.561 139.91 146.561 140.587C146.561 140.893 146.719 141.047 147.036 141.048C155.724 141.048 164.411 141.041 173.099 141.053C174.898 141.055 176.621 140.722 178.272 140.021C180.807 138.943 182.692 137.19 183.859 134.669C184.713 132.827 184.931 130.851 184.943 128.885C184.996 119.681 184.967 110.478 184.967 101.273C184.967 101.158 184.967 101.043 184.967 100.913H165.605V101.405C165.605 110.576 165.605 119.748 165.605 128.919C165.605 130.792 165.24 132.587 164.483 134.301C163.725 136.014 162.527 137.257 160.715 137.86C159.491 138.268 158.235 138.488 156.951 138.496C153.64 138.515 150.328 138.503 147.017 138.503H146.559L146.561 138.501Z" fill="#3B575C"/>
</svg>
