<svg width="109" height="107" viewBox="0 0 109 107" fill="none" xmlns="http://www.w3.org/2000/svg">
<path d="M43.114 0.00199334C57.0265 0.00199334 70.9389 0.00199334 84.8513 0.00199334C85.0117 0.0279061 85.1721 0.061792 85.3346 0.0817249C86.4454 0.219262 87.5684 0.28504 88.6629 0.502309C94.0585 1.56673 98.6479 4.08226 102.358 8.07482C106.71 12.7591 108.96 18.3084 108.974 24.6371C109.017 43.8962 109 63.1554 108.97 82.4166C108.968 83.9554 108.791 85.5181 108.491 87.029C107.437 92.3312 104.856 96.8321 100.788 100.476C96.0182 104.749 90.3647 106.96 83.9171 106.974C64.2984 107.018 44.6777 107 25.059 106.968C23.4791 106.966 21.8769 106.783 20.3213 106.49C15.6751 105.618 11.6015 103.571 8.13909 100.402C3.4847 96.1384 0.818377 90.8861 0.154334 84.663C0.105597 84.2066 0.0527985 83.7501 0 83.2936C0 63.4345 0 43.5733 0 23.7142C0.0263993 23.5806 0.0609214 23.4471 0.0771671 23.3135C0.184795 22.3966 0.239624 21.4697 0.40005 20.5608C1.27123 15.5955 3.50095 11.286 7.04454 7.65025C10.2003 4.41115 13.9875 2.16272 18.3942 0.964752C19.7345 0.59998 21.1153 0.378725 22.5429 0.0777384V0.711605C22.5429 16.2553 22.549 31.8009 22.5368 47.3446C22.5368 49.4436 22.6952 51.5066 23.3857 53.5119C25.0326 58.3018 29.6078 61.5448 34.7658 61.5448C42.7282 61.5468 50.6906 61.5448 58.6531 61.5448H59.1018V58.5868H58.6226C56.7117 58.5868 54.8008 58.6087 52.8899 58.5768C51.9903 58.5609 51.0826 58.4951 50.1951 58.3556C47.3928 57.9131 45.3844 56.4679 44.3223 53.8188C43.5141 51.8056 43.1039 49.7266 43.1039 47.5699C43.0998 31.8627 43.1019 16.1556 43.1039 0.44849C43.1039 0.298993 43.114 0.149497 43.1201 0L43.114 0.00199334ZM40.9473 81.996C40.9473 82.8491 40.9473 83.6345 40.9473 84.4218C40.9473 84.778 41.1348 84.9567 41.5098 84.958C51.8035 84.958 62.0951 84.95 72.3888 84.964C74.521 84.966 76.5619 84.5793 78.5175 83.764C81.5209 82.5103 83.7547 80.4711 85.1376 77.539C86.1489 75.3962 86.4068 73.0979 86.421 70.8116C86.484 60.1077 86.4494 49.4037 86.4494 38.6977C86.4494 38.5642 86.4494 38.4306 86.4494 38.2791H63.5105V38.8512C63.5105 49.5173 63.5105 60.1854 63.5105 70.8515C63.5105 73.0302 63.078 75.1171 62.1804 77.1104C61.2828 79.1037 59.8634 80.5489 57.7169 81.2505C56.267 81.7249 54.7785 81.98 53.2575 81.99C49.3341 82.0119 45.4108 81.998 41.4874 81.998H40.9452L40.9473 81.996Z" fill="#3B575C"/>
</svg>
