<svg width="141" height="109" viewBox="0 0 141 109" fill="none" xmlns="http://www.w3.org/2000/svg">
<path d="M68.2616 108.997C66.8758 108.889 65.49 108.768 64.1015 108.671C54.2878 107.985 44.8853 105.582 36.0737 100.875C26.9198 95.9872 18.9915 89.4706 12.9569 80.5656C8.96519 74.6768 6.43101 68.1103 5.5642 60.9129C3.93548 47.416 7.08526 35.3128 15.458 24.9319C23.6816 14.7359 33.995 7.8525 46.0034 3.78876C51.7839 1.83171 57.7191 0.763698 63.7619 0.27957C69.0318 -0.142941 74.2961 -0.0959953 79.5467 0.484958C97.7 2.48895 113.264 10.0854 125.432 24.8058C127.326 27.0973 128.778 29.8026 130.435 32.3171C130.49 32.4022 130.515 32.5078 130.606 32.722C130.194 32.7425 129.852 32.7777 129.51 32.7777C112.922 32.7777 96.3363 32.7777 79.7482 32.7807C78.4535 32.7807 78.5667 32.634 78.5667 33.9983C78.5612 37.5956 78.5667 41.1898 78.5667 44.7871V45.8873C79.0084 45.8873 79.359 45.8873 79.7096 45.8873C97.8215 45.8932 115.931 45.9049 134.043 45.8873C134.854 45.8873 135.183 46.0634 135.318 46.9876C136.041 51.9668 136.008 56.9343 135.334 61.9076C135.318 62.0396 135.252 62.1658 135.191 62.3536H78.7268V94.5407C79.6267 94.4175 80.5101 94.3148 81.3852 94.171C90.288 92.7069 98.3819 89.2065 105.363 83.1006C107.707 81.0497 109.786 78.6555 111.944 76.3757C112.45 75.8416 112.9 75.5394 113.659 75.5453C119.058 75.5864 124.458 75.5688 129.858 75.5688H130.884C130.186 76.7864 129.593 77.8955 128.93 78.9606C122.374 89.4794 113.338 96.8147 102.65 102.02C96.5102 105.013 90.0644 106.923 83.3949 107.929C80.2313 108.407 77.0236 108.551 73.8351 108.85C73.479 108.883 73.1257 108.95 72.7696 109H68.2726L68.2616 108.997ZM63.3175 98.0792V33.1562H31.0247V20.9768C30.7624 21.1557 30.6051 21.2379 30.4726 21.3553C29.222 22.4614 27.9384 23.5265 26.7376 24.6913C22.8673 28.4441 19.6512 32.7337 17.3628 37.7745C14.4338 44.2208 13.5008 51.022 14.1053 58.1079C14.6547 64.5629 16.7223 70.437 20.1951 75.7331C25.6858 84.1012 33.1034 90.0163 41.6942 94.3353C49.4982 98.2582 57.7881 100.086 66.3872 100.5C75.3452 100.928 84.1237 99.9365 92.6317 96.8323C102.04 93.3993 110.18 87.8773 116.872 80.011C117.242 79.5768 117.587 79.119 118.067 78.5175C116.8 78.5175 115.746 78.4647 114.697 78.544C114.291 78.5733 113.816 78.8022 113.521 79.1014C111.906 80.7592 110.41 82.5519 108.742 84.1422C103.24 89.3855 96.7752 92.7597 89.7248 94.9398C82.5308 97.1667 75.1519 97.9384 67.6929 98.0792C66.2768 98.1057 64.8579 98.0822 63.312 98.0822L63.3175 98.0792ZM126.189 78.5146C124.715 78.5146 123.503 78.5469 122.294 78.4999C121.711 78.4765 121.355 78.6877 121.005 79.1748C115.991 86.1433 109.639 91.4188 102.415 95.5413C94.2411 100.204 85.446 102.612 76.2313 103.334C69.4569 103.865 62.7102 103.566 56.0159 102.246C43.6238 99.8045 32.819 94.0478 23.7783 84.6909C14.5028 75.0905 10.2323 63.4744 11.5242 49.6753C12.2613 41.8119 15.0632 34.8346 19.654 28.6729C24.4021 22.303 30.3125 17.3913 36.9654 13.439C44.1593 9.16698 51.8999 6.71113 60.0324 5.60204C64.4935 4.99468 68.9849 4.86558 73.4873 5.0475C78.6136 5.25288 83.6792 5.92479 88.6316 7.32436C101.695 11.0125 112.704 18.1365 121.12 29.5238C121.253 29.7028 121.466 29.9346 121.645 29.9405C123.1 29.9757 124.552 29.9581 126.134 29.9581C125.896 29.5854 125.761 29.3595 125.615 29.1424C122.942 25.1901 119.743 21.7748 116.198 18.7146C105.75 9.68632 93.7469 4.64259 80.4163 3.07871C72.7558 2.18087 65.098 2.31878 57.4789 3.59218C47.6293 5.23821 38.4809 8.86184 30.2214 14.8386C24.242 19.1635 18.8893 24.2219 14.8617 30.6887C8.62288 40.7057 6.89755 51.6617 9.1253 63.3424C10.5635 70.8889 13.9866 77.4143 18.8286 83.086C26.5498 92.1347 35.9881 98.3873 46.9061 102.099C55.5962 105.057 64.5404 106.104 73.6474 105.778C81.2776 105.503 88.7448 104.264 95.9692 101.597C106.796 97.5981 116.113 91.1782 123.635 81.9241C124.472 80.8942 125.234 79.791 126.186 78.5146H126.189ZM104.532 17.7023C93.6917 10.3993 81.7303 7.62951 69.0346 7.81142C57.1007 7.9816 45.8653 10.7866 35.6845 17.7023H104.532ZM33.857 30.1429H34.9364C44.855 30.1429 54.7736 30.1429 64.6922 30.1459C65.8682 30.1459 65.8434 29.9082 65.8434 31.3987C65.8434 52.2573 65.8434 73.1159 65.8434 93.9744C65.8434 94.2766 65.7854 94.5994 65.8655 94.8723C65.9345 95.1041 66.1553 95.4386 66.332 95.4532C67.4445 95.5559 68.5653 95.5823 69.7827 95.6381C69.7827 95.1129 69.7827 94.8165 69.7827 94.5202C69.7827 72.2884 69.7799 50.0567 69.7992 27.825C69.7992 27.0005 69.6115 26.7658 68.8137 26.7687C57.4734 26.798 46.1331 26.7892 34.7956 26.7892C34.6161 26.7892 34.4146 26.7423 34.2573 26.8098C34.0999 26.8743 33.8763 27.0504 33.8708 27.1853C33.8377 28.136 33.8542 29.0896 33.8542 30.1371L33.857 30.1429ZM118.189 29.9551C117.385 28.9869 116.712 28.2299 116.099 27.4201C115.718 26.9183 115.279 26.7804 114.694 26.7804C100.949 26.7951 87.2017 26.798 73.4569 26.7746C72.6978 26.7746 72.4466 26.9418 72.4493 27.8074C72.4742 49.9335 72.4687 72.0625 72.4687 94.1886C72.4687 94.5055 72.4687 94.8253 72.4687 95.2214C72.8496 95.2214 73.1036 95.2332 73.3576 95.2214C73.8462 95.195 74.3431 95.1892 74.8234 95.107C75.9994 94.9016 75.9966 94.8869 75.9966 93.6399C75.9966 72.8313 75.9966 52.0196 75.9966 31.2109C75.9966 30.8119 76.0298 30.4158 76.0491 29.9522H118.189V29.9551ZM112.312 23.7818C112.334 23.7172 112.356 23.6527 112.378 23.5911C111.436 22.7842 110.479 22.0008 109.562 21.1645C109.057 20.7068 108.519 20.5631 107.864 20.5631C83.5302 20.5777 59.196 20.5748 34.8618 20.5748C34.6299 20.5748 34.3842 20.5308 34.1689 20.5983C34.0116 20.6452 33.7825 20.833 33.7769 20.965C33.7438 21.8893 33.7576 22.8135 33.7576 23.7818H112.309H112.312ZM78.8096 52.6064H133.281C133.212 51.5971 133.101 50.6523 133.096 49.7017C133.093 48.9271 132.839 48.6865 132.094 48.6894C114.611 48.71 97.1258 48.707 79.6433 48.707C79.37 48.707 79.0967 48.7334 78.8069 48.751V52.6064H78.8096ZM78.9504 59.5984H79.8945C97.2721 59.5984 114.65 59.5984 132.027 59.5984C132.234 59.5984 132.45 59.6336 132.643 59.5808C132.789 59.5427 133.018 59.4077 133.029 59.2933C133.137 58.1402 133.209 56.9812 133.289 55.8281H78.9477V59.5955L78.9504 59.5984Z" fill="#3B575C"/>
</svg>
