<svg width="233" height="116" viewBox="0 0 233 116" fill="none" xmlns="http://www.w3.org/2000/svg">
<path d="M232.996 99.023C230.948 98.2537 228.971 97.3978 226.639 97.4532C221.741 97.5676 217.915 101.57 218.222 106.096C218.656 112.514 225.609 115.56 231.652 112.836C232.098 112.635 232.435 112.216 233 112.25V114.586C229.54 116.183 225.965 116.492 222.344 115.179C217.394 113.38 214.781 108.438 215.934 103.258C216.967 98.621 221.281 95.426 226.418 95.3359C228.762 95.2943 230.929 95.7309 233 96.6908V99.0265L232.996 99.023Z" fill="#3B575C"/>
<path d="M115.166 0V82.6642C114.632 82.7025 114.455 82.2815 114.193 82.031C100.386 68.8208 86.5926 55.5931 72.7669 42.4002C71.9647 41.6348 71.9792 41.2417 72.7777 40.4832C86.5418 27.3495 100.27 14.1879 114.008 1.02982C114.317 0.734097 114.647 0.462725 115.166 0ZM98.9846 43.3778C98.9846 46.2829 98.9846 49.188 98.9846 52.0896C98.9846 54.9912 98.9846 55.0051 102.063 55.0817C103.235 55.1095 103.58 54.8486 103.569 53.6691C103.504 46.8222 103.562 39.9718 103.511 33.1214C103.504 32.0254 103.83 31.7088 104.948 31.7715C106.618 31.8619 108.295 31.7958 109.972 31.7958C113.061 31.7958 113.017 31.7958 113.028 28.8629C113.028 27.9166 112.687 27.7252 111.779 27.7287C105.398 27.76 99.0172 27.7461 92.6361 27.7461C89.5871 27.7461 89.6198 27.7461 89.6343 30.6929C89.638 31.5279 89.8594 31.8376 90.7704 31.8132C92.8975 31.7575 95.0245 31.7854 97.1515 31.7993C99.2677 31.8132 98.9773 31.5697 98.9846 33.4936C99.0027 36.7884 98.9882 40.0831 98.9882 43.3778H98.9846Z" fill="#3B575C"/>
<path d="M118.019 0.159637C118.486 0.577023 118.818 0.858758 119.132 1.15788C132.856 14.2255 146.573 27.3036 160.318 40.3469C161.14 41.126 161.318 41.5225 160.384 42.413C146.638 55.4597 132.936 68.5482 119.238 81.6402C118.895 81.9707 118.683 82.4298 118.413 82.8263C118.282 82.7289 118.15 82.6315 118.019 82.5341V0.159637ZM124.435 47.839C124.435 49.1398 124.483 50.2111 124.417 51.2789C124.37 52.0233 124.647 52.4546 125.322 52.8267C126.998 53.7519 128.779 54.3884 130.67 54.6876C134.648 55.3171 138.575 55.3658 142.138 53.178C146.996 50.1937 146.744 43.7903 141.696 41.1052C139.495 39.9365 137.101 39.2756 134.696 38.6356C133.382 38.2843 132.049 37.9609 130.874 37.293C128.688 36.0478 128.775 33.5644 131.038 32.4409C131.593 32.1662 132.221 31.9922 132.838 31.8775C135.849 31.3001 138.707 31.9157 141.484 32.9974C142.222 33.2827 142.926 33.6409 143.795 34.0305C143.795 32.9105 143.722 31.9644 143.817 31.0288C143.908 30.1244 143.47 29.721 142.685 29.3662C140.386 28.3262 137.955 27.8497 135.436 27.7906C132.721 27.728 130.1 28.1001 127.731 29.5331C123.786 31.9157 123.486 38.5104 128.246 40.6356C129.983 41.4112 131.754 42.0478 133.586 42.5521C135.458 43.0669 137.371 43.4773 139.101 44.3886C141.652 45.7381 141.769 48.5451 139.309 50.0476C138.13 50.7676 136.805 51.0563 135.426 51.1189C131.462 51.2998 127.921 50.1207 124.435 47.8425V47.839Z" fill="#3B575C"/>
<path d="M201.181 104.778C203.458 101.854 205.717 99.0681 207.824 96.1856C208.576 95.1559 209.494 95.4039 210.433 95.4004C210.929 95.4004 210.78 95.8206 210.78 96.0858C210.788 102.229 210.766 108.37 210.809 114.513C210.817 115.578 210.115 115.23 209.562 115.295C208.865 115.381 208.525 115.244 208.532 114.434C208.576 109.754 208.554 105.071 208.554 100.39C208.554 99.9807 208.554 99.5709 208.554 98.8339C206.418 101.568 204.495 104.031 202.573 106.489C201.629 107.695 200.697 107.684 199.725 106.452C197.805 104.017 195.897 101.572 193.974 99.1197C193.523 99.3677 193.747 99.7431 193.747 100.032C193.729 104.757 193.707 109.482 193.757 114.207C193.768 115.13 193.486 115.326 192.561 115.333C191.625 115.34 191.477 115.023 191.48 114.231C191.513 108.432 191.484 102.632 191.52 96.8365C191.52 96.3681 191.061 95.5451 191.885 95.4418C192.727 95.335 193.663 95.0802 194.401 96.0926C196.399 98.8408 198.55 101.492 200.646 104.179C200.78 104.351 200.932 104.506 201.181 104.788V104.778Z" fill="#3B575C"/>
<path d="M126.021 99.1025C123.685 102.01 121.556 104.659 119.424 107.305C117.497 109.699 115.551 112.078 113.656 114.496C113.207 115.069 112.75 115.304 111.98 115.331C111.075 115.362 110.954 115.041 110.961 114.3C110.998 110.516 110.98 106.732 110.98 102.948C110.98 100.713 111.038 98.4747 110.954 96.2396C110.918 95.2807 111.44 95.3497 112.112 95.3463C112.794 95.3428 113.273 95.3014 113.262 96.2431C113.203 101.22 113.236 106.201 113.236 111.496C115.456 108.726 117.489 106.184 119.527 103.645C121.505 101.179 123.528 98.7472 125.434 96.2327C126.04 95.4325 126.719 95.3118 127.621 95.3359C128.194 95.3497 128.285 95.5705 128.281 96.0327C128.27 102.224 128.259 108.419 128.289 114.61C128.292 115.628 127.562 115.228 127.073 115.29C126.434 115.373 125.989 115.338 126 114.469C126.047 109.695 126.021 104.921 126.021 100.148V99.099V99.1025Z" fill="#3B575C"/>
<path d="M19.528 111.864C22.2557 113.715 25.1406 114.324 28.1901 113.497C31.2834 112.66 33.1446 110.595 33.8832 107.623C34.0916 106.782 33.9307 106.388 32.863 106.419C30.3547 106.488 27.8427 106.409 25.3344 106.461C24.4934 106.478 24.2448 106.256 24.2521 105.45C24.2594 104.686 24.4167 104.412 25.2979 104.433C27.8062 104.496 30.3181 104.412 32.8265 104.475C33.8612 104.502 34.0331 104.198 33.7954 103.305C32.5924 98.8045 27.8281 96.4554 22.8407 97.9223C21.8864 98.2025 21.0125 98.6384 20.113 99.0674C19.645 96.9017 19.7949 96.5523 21.8828 95.9365C27.4917 94.2897 33.0166 96.0299 35.5944 100.963C38.1173 105.8 36.3951 111.688 31.6345 114.47C28.4314 116.341 24.9834 116.348 21.5135 115.286C19.3379 114.618 19.2501 114.345 19.5317 111.861L19.528 111.864Z" fill="#3B575C"/>
<path d="M172.688 105.326C172.688 102.312 172.71 99.3008 172.674 96.2864C172.667 95.5854 172.827 95.3299 173.605 95.3368C177.67 95.3748 181.73 95.3817 185.795 95.3334C186.694 95.323 186.775 95.6821 186.779 96.3969C186.786 97.1565 186.591 97.4604 185.745 97.45C182.477 97.4086 179.21 97.4638 175.942 97.412C175.06 97.3982 174.82 97.6503 174.862 98.4824C174.933 99.8567 174.947 101.241 174.859 102.612C174.802 103.517 175.163 103.655 175.977 103.638C178.537 103.593 181.1 103.638 183.66 103.607C184.368 103.596 184.694 103.734 184.662 104.515C184.633 105.202 184.609 105.64 183.688 105.62C181.128 105.564 178.565 105.647 176.006 105.578C175.05 105.554 174.83 105.854 174.862 106.731C174.929 108.537 174.944 110.35 174.859 112.153C174.813 113.102 175.163 113.268 176.048 113.254C179.358 113.202 182.672 113.261 185.986 113.216C186.86 113.206 187.218 113.375 187.232 114.328C187.246 115.295 186.796 115.329 186.042 115.322C181.978 115.298 177.917 115.284 173.853 115.333C172.958 115.343 172.65 115.167 172.671 114.228C172.738 111.258 172.696 108.289 172.696 105.319L172.688 105.326Z" fill="#3B575C"/>
<path d="M55.7917 95.4784C53.3441 97.6542 51.02 99.723 48.6923 101.788C47.9333 102.461 47.1889 103.157 46.3936 103.788C45.7835 104.271 45.7036 104.595 46.35 105.171C50.0068 108.436 53.6201 111.746 57.5565 115.322C55.7699 115.146 54.3536 115.708 53.0028 114.367C50.3446 111.733 47.4866 109.284 44.7122 106.757C44.2692 106.354 43.8153 105.957 43.1834 105.395C43.1834 108.471 43.1435 111.329 43.2088 114.184C43.2306 115.077 43.0019 115.35 42.0323 115.332C41.1426 115.315 40.9174 115.091 40.9211 114.257C40.9574 108.285 40.9683 102.312 40.9138 96.3404C40.9065 95.3853 41.3278 95.3715 42.0976 95.3371C43.0055 95.2957 43.227 95.5784 43.2052 96.4094C43.1471 98.792 43.1834 101.178 43.1834 103.833C45.9506 101.361 48.6051 99.1713 51.0164 96.7611C52.3818 95.3957 53.8235 95.1681 55.7953 95.4819L55.7917 95.4784Z" fill="#3B575C"/>
<path d="M106.743 112.025C106.889 114.465 106.838 114.655 104.614 115.337C97.9817 117.378 91.4005 114.617 89.8008 108.292C88.2888 102.306 91.8643 96.7256 98.073 95.5665C100.166 95.1755 102.324 95.2586 104.395 95.9471C106.469 96.6356 106.615 96.8571 106.254 99.0126C99.5302 96.7602 96.057 97.3069 93.3982 101.03C91.3311 103.926 91.5648 108.458 93.9131 111.019C96.97 114.351 101.009 114.686 106.74 112.025H106.743Z" fill="#3B575C"/>
<path d="M149.247 99.0515C142.856 96.6571 139.016 97.2661 136.352 101.052C134.19 104.117 134.569 108.726 137.193 111.318C140.359 114.442 144.876 114.709 149.473 112.037C150.084 113.733 149.859 114.415 148.261 115.048C142.073 117.498 134.565 115.2 132.814 108.38C131.271 102.373 134.743 96.8163 140.931 95.5879C142.972 95.1831 145.065 95.2454 147.1 95.8855C149.418 96.6156 149.433 96.6156 149.247 99.055V99.0515Z" fill="#3B575C"/>
<path d="M9.41429 106.436C9.41429 109.106 9.36419 111.775 9.44292 114.445C9.47155 115.415 8.94549 115.315 8.29776 115.329C7.61424 115.346 7.16691 115.353 7.17765 114.421C7.23133 109.127 7.17765 103.829 7.22775 98.5346C7.2349 97.6264 6.98798 97.3673 6.05038 97.4088C4.35768 97.4848 2.65783 97.3846 0.96156 97.4468C-0.0010922 97.4813 0.0275368 96.9702 0.00248634 96.314C-0.0225641 95.6268 0.131317 95.3298 0.940089 95.3332C5.8965 95.3678 10.8529 95.3712 15.8093 95.3332C16.7505 95.3263 16.6288 95.8271 16.6396 96.3935C16.6539 97.0013 16.661 97.4779 15.7664 97.4468C13.9806 97.3915 12.1913 97.4813 10.4092 97.4088C9.5467 97.3743 9.38208 97.6574 9.39282 98.4276C9.44292 101.097 9.41071 103.767 9.41071 106.436H9.41429Z" fill="#3B575C"/>
<path d="M160.285 95.3552C162.69 95.3552 165.095 95.3966 167.497 95.3345C168.368 95.3104 168.529 95.6103 168.507 96.3654C168.486 97.0654 168.443 97.4895 167.519 97.4516C165.831 97.3826 164.132 97.486 162.444 97.4102C161.523 97.3688 161.252 97.6033 161.263 98.5239C161.313 103.723 161.27 108.926 161.302 114.129C161.305 114.936 161.245 115.35 160.203 115.333C159.239 115.315 159.05 115.046 159.057 114.171C159.1 109.013 159.057 103.854 159.1 98.6963C159.107 97.7446 158.939 97.3274 157.826 97.4067C156.366 97.5136 154.889 97.4309 153.419 97.4343C152.63 97.4343 151.863 97.6412 151.866 96.3482C151.866 95.0931 152.626 95.3586 153.336 95.3586C155.653 95.3517 157.969 95.3586 160.281 95.3586L160.285 95.3552Z" fill="#3B575C"/>
<path d="M72.9306 108.647C71.876 108.647 70.8179 108.624 69.7633 108.654C69.0838 108.675 68.6025 108.678 68.6556 107.759C68.6981 107 68.7901 106.638 69.7208 106.669C71.83 106.74 73.9427 106.727 76.0554 106.675C76.8729 106.655 76.9861 106.997 76.9719 107.66C76.9578 108.268 76.979 108.723 76.0978 108.661C75.0468 108.586 73.9887 108.644 72.9306 108.644V108.647Z" fill="#3B575C"/>
</svg>
