<svg width="197" height="85" viewBox="0 0 197 85" fill="none" xmlns="http://www.w3.org/2000/svg">
<path d="M123.051 60.2903C113.465 60.2903 103.879 60.2903 94.2928 60.2903C93.9987 60.2903 93.7045 60.3033 93.4104 60.2925C92.9087 60.2752 92.7582 60.0693 92.9452 59.6273C93.0547 59.3695 93.2143 59.1311 93.3579 58.8885C93.6088 58.4703 93.8642 58.0543 94.1195 57.6405C94.286 57.3718 94.4593 57.1096 94.6235 56.841C95.116 56.0349 95.604 55.2268 96.0965 54.4207C96.491 53.7772 96.8946 53.1359 97.2891 52.4924C97.5445 52.0764 97.7839 51.6517 98.037 51.2357C98.4018 50.629 98.8305 50.057 99.1019 49.4005C99.6081 48.7093 99.9889 47.951 100.436 47.2295C100.75 46.7225 101.106 46.2371 101.364 45.6976C101.419 45.585 101.496 45.4831 101.562 45.377C101.806 44.9913 102.057 44.6078 102.297 44.2199C102.974 43.1214 103.644 42.0186 104.319 40.9179C104.41 40.7706 104.515 40.6297 104.59 40.4759C104.919 39.7955 105.363 39.178 105.774 38.5432C105.936 38.2919 106.07 38.0254 106.216 37.7653C106.294 37.6288 106.36 37.4858 106.442 37.3515C106.923 36.5737 107.407 35.8001 107.888 35.0245C108.011 34.823 108.12 34.615 108.243 34.4113C108.471 34.0343 108.704 33.6616 108.932 33.2846C109.151 32.9206 109.365 32.5544 109.584 32.1904C109.972 31.5426 110.355 30.8926 110.747 30.2447C110.975 29.8677 111.221 29.4994 111.449 29.1246C112.307 27.7119 113.16 26.297 114.015 24.8822C114.665 23.8053 115.314 22.7263 115.967 21.6495C116.486 20.7871 117.009 19.9269 117.531 19.0646C117.556 19.0234 117.583 18.9844 117.606 18.9432C117.871 18.4622 118.281 18.2824 118.853 18.2976C120.08 18.3301 121.307 18.3301 122.534 18.3301C126.05 18.3301 129.568 18.3279 133.084 18.3257C134.213 18.3257 135.342 18.3257 136.471 18.3279C136.651 18.3279 136.831 18.3344 137.009 18.3604C137.198 18.3864 137.296 18.5077 137.285 18.6854C137.278 18.7916 137.253 18.9021 137.214 19.0017C137.168 19.1166 137.109 19.2293 137.041 19.3354C136.493 20.2021 135.935 21.0601 135.401 21.9311C134.998 22.5876 134.619 23.2593 134.238 23.9288C134.161 24.0632 134.108 24.2148 134.079 24.3665C134.024 24.6438 134.188 24.8388 134.48 24.8193C134.687 24.8063 134.904 24.7587 135.093 24.6785C135.814 24.3752 136.55 24.1325 137.328 23.996C137.549 23.957 137.77 23.879 137.976 23.7901C138.295 23.6536 138.621 23.5821 138.97 23.5691C139.362 23.554 139.75 23.4998 140.142 23.4673C140.484 23.4391 140.826 23.3915 141.166 23.3958C141.952 23.4066 142.732 23.3373 143.512 23.2441C144.632 23.1098 145.763 23.0665 146.891 23.0643C149.345 23.06 151.798 23.0643 154.252 23.0643C158.163 23.0578 162.071 23.047 165.982 23.0405C166.394 23.0405 166.796 22.9971 167.188 22.8693C167.388 22.8043 167.598 22.7675 167.808 22.735C168.948 22.5573 169.949 22.1088 170.854 21.4263C171.769 20.7373 172.473 19.8966 173.059 18.9519C173.126 18.8457 173.194 18.7374 173.274 18.6399C173.411 18.4752 173.591 18.3712 173.812 18.3474C173.942 18.3344 174.072 18.3236 174.204 18.3236C176.215 18.3236 178.229 18.3279 180.24 18.3301C184.116 18.3301 187.995 18.3301 191.871 18.3301C192.052 18.3301 192.232 18.3344 192.41 18.3604C192.688 18.4016 192.795 18.5749 192.724 18.8327C192.704 18.9064 192.67 18.9801 192.633 19.0472C192.565 19.1707 192.503 19.3008 192.416 19.4134C191.83 20.1826 191.383 21.0319 190.868 21.8445C190.69 22.124 190.494 22.3926 190.289 22.6526C189.669 23.4348 189.06 24.2257 188.307 24.9017C188.093 25.0923 187.863 25.2678 187.635 25.4455C187.306 25.7033 186.983 25.9633 186.645 26.2104C186.335 26.4379 186.023 26.6654 185.687 26.8582C184.949 27.2829 184.226 27.7465 183.378 27.9719C183.191 28.0217 183.017 28.117 182.833 28.1799C182.586 28.2644 182.34 28.3467 182.089 28.416C181.745 28.5135 181.396 28.5981 181.052 28.6891C180.972 28.7107 180.894 28.7476 180.815 28.7497C180.162 28.7736 179.59 29.0682 178.979 29.2351C178.856 29.2676 178.74 29.3326 178.635 29.4041C178.521 29.4821 178.5 29.6381 178.594 29.7377C178.689 29.8396 178.801 29.9414 178.926 30.0021C179.173 30.1234 179.428 30.2296 179.69 30.3162C180.6 30.6217 181.391 31.1049 182.096 31.7224C182.24 31.8481 182.376 31.9846 182.522 32.1081C183.161 32.6454 183.583 33.3171 183.929 34.0495C184.187 34.5933 184.365 35.1393 184.424 35.7395C184.515 36.6712 184.556 37.5963 184.41 38.5259C184.372 38.7707 184.351 39.0199 184.331 39.2669C184.312 39.4879 184.239 39.6894 184.146 39.8909C184.041 40.1162 183.936 40.3502 183.884 40.5886C183.669 41.6069 183.225 42.5386 182.719 43.4464C182.459 43.9123 182.144 44.3499 181.857 44.8028C181.697 45.0563 181.553 45.3185 181.394 45.5698C180.441 47.0735 179.503 48.588 178.525 50.0765C178.017 50.8544 177.437 51.5889 176.742 52.2346C176.099 52.8326 175.47 53.4414 174.831 54.0459C174.414 54.4424 173.958 54.7956 173.474 55.1163C172.535 55.7403 171.577 56.3339 170.521 56.7673C170.357 56.8344 170.189 56.9016 170.038 56.9926C169.55 57.2873 169.021 57.4845 168.478 57.6578C168.123 57.7705 167.781 57.9221 167.443 58.0781C167.158 58.2081 166.859 58.2731 166.556 58.3381C166.191 58.4183 165.826 58.5093 165.464 58.6003C164.752 58.7801 164.05 58.9838 163.32 59.0921C163.289 59.0965 163.254 59.0943 163.225 59.1051C162.372 59.4085 161.453 59.363 160.577 59.5558C160.311 59.6143 160.026 59.623 159.75 59.6273C159.321 59.6338 158.904 59.6685 158.495 59.805C158.185 59.9068 157.862 59.9523 157.531 59.948C157.367 59.9458 157.205 59.9523 157.041 59.9502C156.09 59.9328 155.146 59.9827 154.206 60.1343C153.465 60.2535 152.713 60.2947 151.958 60.2947C145.464 60.2947 138.97 60.2947 132.476 60.2947C129.336 60.2947 126.193 60.2947 123.054 60.2947L123.051 60.2903ZM136.655 48.2933V48.302C140.746 48.302 144.835 48.302 148.925 48.302C150.022 48.302 151.117 48.2977 152.213 48.289C152.672 48.2868 153.132 48.2543 153.568 48.1113C154.04 47.9575 154.519 47.8947 155.016 47.912C155.212 47.9185 155.41 47.9207 155.604 47.9077C155.88 47.8882 156.163 47.8773 156.43 47.8123C157.362 47.587 158.327 47.4592 159.182 46.9976C159.223 46.9738 159.275 46.9673 159.319 46.9456C159.839 46.7116 160.34 46.4495 160.755 46.066C161.166 45.6868 161.576 45.3055 161.966 44.9089C162.178 44.6944 162.367 44.4583 162.538 44.2134C163.104 43.4139 163.605 42.5776 164.105 41.7391C164.771 40.6211 165.272 39.4489 165.617 38.2117C165.681 37.982 165.712 37.7458 165.644 37.5205C165.441 36.864 165.115 36.2747 164.467 35.915C163.913 35.6073 163.32 35.3755 162.671 35.3365C161.92 35.291 161.168 35.2411 160.415 35.239C156.801 35.226 153.185 35.2281 149.568 35.2281C147.017 35.2281 144.465 35.2238 141.911 35.2325C139.72 35.2411 137.529 35.1783 135.337 35.304C134.685 35.3408 134.028 35.3191 133.374 35.3256C132.979 35.33 132.592 35.3776 132.216 35.499C131.903 35.6008 131.584 35.6572 131.253 35.6637C131.003 35.668 130.765 35.7243 130.553 35.8478C130.282 36.0038 129.983 36.0732 129.675 36.123C129.5 36.1512 129.308 36.1707 129.158 36.2508C128.533 36.5867 127.92 36.942 127.304 37.2952C127.236 37.3342 127.179 37.3948 127.122 37.4512C126.604 37.969 126.038 38.4414 125.525 38.9635C124.75 39.7522 124.082 40.6124 123.51 41.5376C122.896 42.5277 122.324 43.5396 121.731 44.5428C121.667 44.6511 121.594 44.7551 121.528 44.8613C121.318 45.195 121.109 45.5265 120.903 45.8645C120.634 46.3086 120.372 46.7571 120.11 47.2056C120.046 47.314 119.978 47.4223 119.936 47.5393C119.822 47.847 119.95 48.1048 120.274 48.2067C120.411 48.25 120.561 48.2673 120.707 48.2803C120.853 48.2933 121.001 48.289 121.15 48.289C126.319 48.289 131.488 48.289 136.658 48.289L136.655 48.2933Z" fill="#3B575C"/>
<path d="M78.9059 60.2482C75.8981 60.2482 72.8904 60.2482 69.8826 60.2482C69.7847 60.2482 69.6867 60.2482 69.5887 60.2482C69.2925 60.2374 69.0464 60.1248 68.8732 59.8975C68.741 59.7221 68.6134 59.5381 68.5246 59.339C68.2284 58.6808 67.8729 58.053 67.5174 57.423C67.3397 57.1091 67.1984 56.7757 67.0207 56.4618C66.4944 55.5331 66.1047 54.5394 65.5373 53.6301C65.3049 53.2577 65.134 52.8507 64.9312 52.461C64.7489 52.1147 64.5575 51.7726 64.3707 51.4262C64.2887 51.2747 64.1907 51.1275 64.1337 50.9673C63.9902 50.5689 63.7805 50.2009 63.5686 49.8329C63.3043 49.3696 63.0536 48.8976 62.8076 48.4257C62.468 47.7719 62.1422 47.1116 61.8027 46.4578C61.4677 45.8191 61.1214 45.1848 60.7819 44.5483C60.5905 44.1889 60.4036 43.8274 60.21 43.468C60.1143 43.2883 60.0231 43.1043 59.9092 42.9355C59.7109 42.6432 59.417 42.4873 59.0547 42.457C58.8929 42.4419 58.7289 42.4397 58.5648 42.4397C54.657 42.4397 50.7515 42.444 46.8436 42.4397C46.3332 42.4397 45.8342 42.483 45.3489 42.6432C45.1666 42.7038 44.9661 42.7146 44.7724 42.7385C44.6106 42.7601 44.4443 42.7536 44.2848 42.7861C43.4235 42.9701 42.5872 43.2082 41.7943 43.6066C40.9648 44.0223 40.222 44.5527 39.4678 45.0679C39.1739 45.2692 38.9437 45.5312 38.725 45.8061C38.39 46.2261 38.0459 46.6418 37.7087 47.0618C37.5902 47.209 37.4854 47.367 37.3715 47.5186C36.9385 48.1009 36.5124 48.6855 36.1843 49.3328C36.0431 49.6099 35.8448 49.8632 35.6716 50.1273C35.6033 50.2334 35.5304 50.3373 35.4711 50.4477C34.824 51.6514 34.0493 52.7836 33.3383 53.9527C32.7414 54.9334 32.1535 55.9184 31.5588 56.9013C31.4289 57.1156 31.2853 57.3256 31.1554 57.5399C30.8205 58.0898 30.4901 58.644 30.1529 59.1939C30.0207 59.4082 29.884 59.6204 29.7381 59.8261C29.5445 60.0967 29.2779 60.2655 28.9247 60.2785C28.6148 60.2893 28.3049 60.3002 27.995 60.2958C27.4231 60.285 26.8512 60.2461 26.2792 60.2461C21.8177 60.2417 17.3539 60.2417 12.8924 60.2439C12.3045 60.2439 11.7167 60.2699 11.1265 60.2742C10.9305 60.2742 10.7323 60.2677 10.5409 60.2331C10.3176 60.1919 10.2173 60.0166 10.2811 59.8109C10.3085 59.7221 10.3495 59.6355 10.3973 59.5554C10.6936 59.0554 10.9898 58.5553 11.2928 58.0573C11.4728 57.7629 11.6665 57.475 11.8556 57.1827C11.8898 57.1307 11.9286 57.081 11.9605 57.0268C12.4253 56.2431 12.8833 55.4551 13.3527 54.6736C13.6421 54.1886 13.9429 53.708 14.2413 53.2253C14.3416 53.0651 14.4533 52.9114 14.5512 52.749C15.0571 51.8982 15.5538 51.0409 16.0642 50.1922C16.4448 49.5601 16.8481 48.9388 17.2332 48.3088C17.5203 47.839 17.7914 47.3605 18.0694 46.8864C18.2768 46.5335 18.4773 46.1785 18.6892 45.8299C19.2611 44.8882 19.8353 43.9508 20.4118 43.0112C21.0794 41.9266 21.7562 40.8463 22.4215 39.7596C22.6836 39.3309 22.9228 38.8871 23.178 38.4541C23.554 37.8198 23.9391 37.1876 24.3196 36.5533C24.6774 35.9601 25.0328 35.367 25.3906 34.7759C25.8395 34.0355 26.2906 33.2973 26.7372 32.5569C27.054 32.0308 27.3638 31.5026 27.6783 30.9765C27.7512 30.8553 27.8104 30.7254 27.8948 30.6107C28.3733 29.9785 28.731 29.2793 29.1343 28.6038C29.4556 28.0626 29.7906 27.53 30.1164 26.9931C30.7817 25.889 31.4448 24.7849 32.1125 23.6808C32.2332 23.4795 32.3631 23.2803 32.4839 23.079C32.7755 22.594 33.0626 22.1069 33.3566 21.622C33.4956 21.3925 33.6482 21.1738 33.7872 20.9444C34.0424 20.5287 34.2885 20.1087 34.5437 19.6931C34.726 19.3986 34.9106 19.1064 35.1043 18.8184C35.3139 18.511 35.617 18.3443 36.0066 18.3378C36.5945 18.327 37.1824 18.3162 37.7725 18.3162C42.9062 18.314 48.0376 18.3118 53.1713 18.3097C53.4174 18.3097 53.6612 18.2989 53.9073 18.301C54.0532 18.301 54.2035 18.3054 54.3471 18.3313C54.6661 18.3876 54.78 18.589 54.6661 18.8791C54.6319 18.9656 54.5772 19.0436 54.5294 19.1258C53.8937 20.1931 53.2625 21.2626 52.6222 22.3256C52.3146 22.8387 51.9887 23.3409 51.6766 23.8497C51.2664 24.5208 50.8654 25.1962 50.4575 25.8695C50.3345 26.0709 50.2023 26.2657 50.0793 26.4692C49.1883 27.9522 48.2951 29.433 47.4087 30.9181C47.313 31.0783 47.231 31.2536 47.1786 31.429C47.0692 31.7862 47.2652 31.994 47.6389 31.8966C48.0787 31.784 48.5184 31.652 48.9422 31.4939C49.5552 31.2666 50.1772 31.0913 50.8312 31.0177C50.9132 31.009 50.9953 31.0003 51.0727 30.9787C51.5307 30.8466 52.0001 30.7968 52.4741 30.7687C52.7885 30.7492 53.087 30.6821 53.3764 30.5717C53.7592 30.4223 54.158 30.3682 54.5727 30.3639C59.2142 30.3054 63.8557 30.2968 68.4995 30.2989C69.8393 30.2989 71.1792 30.2361 72.519 30.208C73.239 30.1928 73.9568 30.1842 74.6768 30.1885C75.1895 30.1928 75.6862 30.1344 76.1716 29.9785C76.3721 29.9136 76.5817 29.8659 76.7914 29.84C77.4453 29.7555 78.0583 29.5542 78.6598 29.3031C79.1247 29.1104 79.6009 28.9329 80.0088 28.6449C80.6126 28.2206 81.1936 27.7682 81.7838 27.3243C81.8476 27.2767 81.9046 27.2183 81.9547 27.1576C82.5494 26.4194 83.217 25.7331 83.7092 24.9213C84.1011 24.2762 84.5136 23.6418 84.9146 23.0032C85.3772 22.2715 85.8443 21.5419 86.2954 20.8036C86.5415 20.401 86.7603 19.9853 86.9904 19.574C87.1431 19.3012 87.2935 19.0241 87.4484 18.7513C87.6193 18.4504 87.8905 18.3054 88.2482 18.301C88.3143 18.301 88.3781 18.2967 88.4442 18.2967C89.604 18.301 90.7661 18.3075 91.9259 18.3075C96.5036 18.3118 101.079 18.314 105.657 18.3162C105.903 18.3162 106.147 18.3097 106.393 18.3118C106.523 18.3118 106.655 18.314 106.782 18.3357C107.063 18.3833 107.193 18.589 107.113 18.8531C107.081 18.957 107.026 19.0544 106.981 19.154C106.828 19.4787 106.678 19.8056 106.52 20.1304C106.418 20.3425 106.313 20.5525 106.197 20.756C105.807 21.4553 105.424 22.1567 105.016 22.8473C104.57 23.605 104.1 24.3519 103.642 25.1032C103.105 25.9908 102.562 26.8762 102.036 27.7681C101.396 28.8528 100.676 29.8898 99.9101 30.8964C99.402 31.5632 98.8733 32.2149 98.347 32.8687C98.1989 33.0527 98.0348 33.228 97.8639 33.3947C97.2806 33.9598 96.6859 34.5162 96.1048 35.0834C95.4623 35.7112 94.7149 36.2113 93.9675 36.7135C93.8467 36.7936 93.7169 36.8607 93.6029 36.9495C92.9102 37.4799 92.1264 37.8631 91.3403 38.2441C90.7 38.5537 90.0665 38.8763 89.3829 39.0993C89.2599 39.1404 89.1528 39.2183 89.0343 39.2681C88.7814 39.372 88.5262 39.4781 88.2664 39.569C87.7902 39.7336 87.3117 39.8873 86.8332 40.0432C86.5711 40.1276 86.3023 40.199 86.0425 40.2921C85.4159 40.5194 84.7802 40.697 84.1148 40.7922C83.4381 40.8896 82.7727 41.0542 82.1005 41.1797C81.8111 41.2339 81.5263 41.2923 81.2574 41.4157C80.9886 41.5391 80.7083 41.6127 80.4075 41.6127C80.3597 41.6127 80.3095 41.6149 80.2617 41.6192C79.6829 41.6755 79.4505 41.9872 79.6237 42.5198C79.6989 42.7536 79.8288 42.9744 79.9472 43.1953C80.2594 43.7755 80.5807 44.3513 80.8929 44.9315C80.968 45.0701 81.0205 45.2173 81.0843 45.3602C81.1412 45.4879 81.1822 45.6264 81.2574 45.7455C81.5286 46.172 81.7337 46.6266 81.9638 47.0726C82.2988 47.7286 82.677 48.3629 83.037 49.008C83.1145 49.1444 83.2011 49.2786 83.258 49.4237C83.5998 50.2832 84.108 51.0669 84.5341 51.8874C85.049 52.8745 85.5663 53.8617 86.0881 54.8446C86.5005 55.6196 86.9266 56.3904 87.3459 57.1611C87.4051 57.2715 87.4758 57.3776 87.5236 57.4923C87.8061 58.1894 88.1958 58.8367 88.5467 59.5035C88.5968 59.6009 88.6538 59.6962 88.688 59.8001C88.7518 59.9863 88.6652 60.1551 88.4692 60.2049C88.3302 60.2396 88.1798 60.2482 88.034 60.2482C84.9943 60.2504 81.9524 60.2482 78.9127 60.2482C78.9127 60.246 78.9127 60.2439 78.9127 60.2417L78.9059 60.2482Z" fill="#3B575C"/>
<path d="M158.589 12.5969C151.454 12.5969 144.319 12.5969 137.184 12.5969C132.773 12.5969 128.359 12.599 123.948 12.6012C123.324 12.6012 122.701 12.6012 122.077 12.5903C121.931 12.5903 121.782 12.5708 121.643 12.534C121.464 12.4841 121.373 12.3431 121.414 12.1718C121.451 12.0244 121.515 11.8769 121.595 11.7425C122.043 11.0008 122.5 10.2657 122.951 9.52405C123.154 9.18793 123.349 8.8453 123.545 8.50485C123.552 8.49183 123.561 8.47666 123.57 8.46364C124.181 7.61575 124.59 6.6551 125.199 5.80503C125.281 5.6901 125.37 5.573 125.427 5.44723C125.709 4.8292 126.125 4.28707 126.475 3.70807C126.93 2.95343 127.378 2.19227 127.831 1.43546C127.936 1.25981 128.048 1.08849 128.174 0.925855C128.403 0.628767 128.716 0.487813 129.107 0.500824C129.434 0.511667 129.763 0.513835 130.09 0.513835C136.962 0.513835 143.836 0.518172 150.708 0.518172C160.631 0.518172 170.556 0.518173 180.478 0.516004C180.609 0.516004 180.741 0.520341 180.872 0.516004C181.828 0.472634 182.772 0.561543 183.705 0.758879C184.14 0.849957 184.579 0.884653 185.025 0.880316C185.503 0.875979 185.974 0.919349 186.438 1.02994C186.596 1.06681 186.76 1.10151 186.923 1.10801C187.488 1.13186 188.016 1.29667 188.549 1.45281C188.814 1.53087 189.084 1.60677 189.356 1.65882C190.383 1.85615 191.314 2.27251 192.212 2.7626C192.411 2.87102 192.599 2.9968 192.8 3.10088C193.708 3.57145 194.442 4.2437 195.096 4.98099C195.546 5.48843 195.924 6.06309 196.079 6.73533C196.111 6.87195 196.162 7.00423 196.214 7.13434C196.326 7.41408 196.372 7.70466 196.395 7.99958C196.42 8.32486 196.461 8.65014 196.486 8.97542C196.5 9.17709 196.507 9.37876 196.491 9.58043C196.466 9.95342 196.411 10.3221 196.388 10.6951C196.356 11.2003 196.173 11.6666 196.015 12.1393C195.917 12.4364 195.674 12.586 195.345 12.599C195.247 12.6034 195.149 12.6012 195.05 12.6012C190.195 12.599 185.34 12.5947 180.485 12.5947C173.449 12.5947 166.412 12.5947 159.376 12.5947C159.113 12.5947 158.85 12.5947 158.589 12.5947V12.5969Z" fill="#3B575C"/>
<path d="M74.025 12.5909C66.6795 12.5909 59.3318 12.5909 51.9864 12.5909C49.4882 12.5909 46.9922 12.5866 44.494 12.5866C43.1149 12.5866 41.7381 12.5931 40.359 12.5974C40.2301 12.5974 40.099 12.6039 39.9701 12.5931C39.6151 12.5627 39.4885 12.3894 39.5767 12.0536C39.6084 11.9345 39.6558 11.8153 39.7191 11.7092C39.8593 11.4643 39.9995 11.2174 40.1645 10.9877C40.4607 10.5761 40.6981 10.1363 40.9513 9.70303C41.4871 8.7823 42.0568 7.87889 42.6085 6.96465C42.8436 6.5747 43.0742 6.18257 43.3048 5.79044C43.393 5.64096 43.4653 5.48498 43.558 5.33983C44.121 4.43209 44.6885 3.52652 45.2491 2.61878C45.3644 2.43246 45.4526 2.22882 45.5634 2.04034C45.7623 1.70237 45.9636 1.36658 46.1761 1.03511C46.418 0.662483 46.7707 0.5 47.2387 0.5C55.9316 0.512999 64.6222 0.519498 73.3151 0.523831C78.6506 0.523831 83.9862 0.523831 89.3218 0.512999C90.1537 0.512999 90.9722 0.586658 91.7861 0.736142C92.3626 0.840131 92.9391 0.905124 93.5246 0.887793C94.0627 0.872628 94.5918 0.918123 95.1163 1.03728C95.3672 1.09361 95.6295 1.12393 95.8872 1.1326C96.2309 1.1456 96.5587 1.21059 96.891 1.29292C97.4698 1.43807 98.0599 1.54206 98.6432 1.68071C99.1292 1.79553 99.6153 1.92335 100.092 2.0685C100.585 2.22015 101.069 2.39997 101.555 2.56895C101.585 2.57978 101.616 2.59278 101.643 2.60795C102.6 3.13222 103.642 3.50268 104.544 4.11795C104.924 4.37793 105.283 4.67473 105.622 4.98453C105.998 5.32683 106.344 5.69945 106.694 6.06558C106.974 6.35805 107.806 7.69041 107.94 8.05654C108.188 8.74547 108.412 9.44523 108.555 10.1623C108.674 10.7624 108.638 11.369 108.609 11.9756C108.604 12.0818 108.577 12.1923 108.534 12.2919C108.462 12.4587 108.326 12.5692 108.132 12.5909C108.035 12.6017 107.937 12.6017 107.84 12.6017C105.765 12.5996 103.689 12.5909 101.614 12.5909C94.9331 12.5909 88.2501 12.5909 81.5694 12.5909C79.0553 12.5909 76.5413 12.5909 74.0272 12.5909H74.025Z" fill="#3B575C"/>
<path d="M86.4087 76.8854C86.4018 77.4889 86.4291 78.0837 86.6177 78.6679C86.6972 78.9148 86.7109 79.1833 86.7222 79.4431C86.7427 79.8898 86.7222 80.3365 86.745 80.7832C86.7563 81.0108 86.7881 81.247 86.8654 81.4618C86.9835 81.7947 87.3017 81.9192 87.6539 81.8075C87.7607 81.7732 87.8652 81.7238 87.9583 81.6658C88.0924 81.5799 88.231 81.4919 88.3446 81.3845C89.1922 80.5706 90.192 79.9177 91.0668 79.1339C91.185 79.0287 91.3258 78.9449 91.4485 78.8461C91.8326 78.5369 92.2302 78.2405 92.5938 77.9119C92.996 77.549 93.4186 77.2161 93.8799 76.9198C94.1616 76.7394 94.4116 76.5139 94.6729 76.3077C94.9728 76.0715 95.2705 75.831 95.5682 75.5926C96.0022 75.2447 96.4384 74.8968 96.8702 74.5468C97.0179 74.4265 97.1565 74.2955 97.3042 74.1752C97.8222 73.7522 98.338 73.327 98.8607 72.9103C99.1333 72.6913 99.4219 72.4894 99.6991 72.2768C99.99 72.0535 100.279 71.8301 100.565 71.6025C100.665 71.523 100.751 71.4307 100.849 71.3491C101.101 71.1408 101.392 71.0012 101.733 70.999C102.369 70.9926 103.005 70.9797 103.637 71.0098C104.141 71.0334 104.255 71.2739 104.003 71.6905C103.435 72.6247 102.858 73.5546 102.292 74.4888C101.983 74.9956 101.694 75.5131 101.383 76.02C101.112 76.4602 100.822 76.8876 100.547 77.3235C100.413 77.534 100.297 77.7552 100.174 77.9721C100.129 78.0537 100.092 78.1396 100.042 78.219C99.7741 78.6593 99.5037 79.0974 99.231 79.5355C98.9834 79.9328 98.7152 80.3193 98.488 80.7273C98.0699 81.4768 97.6132 82.2048 97.1247 82.9157C96.9383 83.1863 96.7861 83.4762 96.6111 83.7554C96.5202 83.9014 96.4293 84.0474 96.318 84.1784C96.1589 84.3674 95.9431 84.4855 95.6886 84.492C95.3637 84.5027 95.0342 84.507 94.7115 84.4769C94.2798 84.4361 94.1639 84.202 94.3593 83.8262C94.3798 83.7854 94.4025 83.7425 94.432 83.706C95.1523 82.7482 95.6636 81.6765 96.2998 80.6737C96.8611 79.791 97.3973 78.8912 97.9449 78C98.4676 77.1474 99.0016 76.3013 99.4333 75.4015C99.4992 75.264 99.5583 75.1159 99.5833 74.9655C99.6242 74.7164 99.4424 74.5768 99.197 74.6541C99.0743 74.6928 98.9561 74.7486 98.847 74.8152C98.6698 74.9247 98.5016 75.0471 98.3358 75.1717C97.9018 75.496 97.4655 75.8202 97.0383 76.151C96.8361 76.3056 96.6429 76.4731 96.4566 76.6427C96.0431 77.0164 95.6091 77.3622 95.1432 77.6757C94.8388 77.8797 94.5547 78.1138 94.2866 78.3586C93.8617 78.743 93.439 79.1231 92.9482 79.4345C92.7869 79.5376 92.6369 79.6579 92.4892 79.7781C91.6167 80.4954 90.7464 81.217 89.8761 81.9364C89.7534 82.0373 89.633 82.1447 89.4944 82.2242C88.9309 82.5484 88.4537 82.9672 88.0174 83.4268C87.6493 83.8133 87.1994 84.0861 86.7063 84.2965C86.4859 84.391 86.2451 84.4597 86.0087 84.4898C85.6202 84.5392 85.3589 84.376 85.1885 84.0388C85.0794 83.8241 85.0726 83.5921 85.0612 83.3624C85.043 82.9629 85.0453 82.5613 85.0135 82.1619C84.9862 81.8247 84.9385 81.4876 84.8658 81.1568C84.7863 80.7939 84.7295 80.431 84.7295 80.0595C84.7295 79.3808 84.7113 78.7065 84.5363 78.0408C84.4704 77.7895 84.4772 77.5211 84.4659 77.2591C84.4454 76.8596 84.4477 76.4581 84.4227 76.0586C84.4068 75.8288 84.3591 75.6012 84.3136 75.3757C84.2932 75.2705 84.25 75.1674 84.2 75.0708C83.9501 74.5833 83.5229 74.5317 83.1707 74.9483C83.0593 75.0793 82.9798 75.234 82.8912 75.38C82.5981 75.8589 82.3072 76.3421 82.0164 76.821C81.7551 77.2483 81.496 77.6736 81.2324 78.0988C80.6076 79.1081 79.9804 80.1174 79.3555 81.1268C79.0192 81.6723 78.6898 82.222 78.3557 82.7675C78.1353 83.1283 77.9149 83.4869 77.6877 83.8434C77.6036 83.9744 77.5059 84.099 77.4037 84.2171C77.2742 84.3653 77.0992 84.4662 76.8992 84.4748C76.5925 84.4877 76.2789 84.492 75.9744 84.4512C75.6404 84.4061 75.5245 84.2171 75.6381 83.9164C75.7926 83.5127 75.9608 83.1089 76.1676 82.7267C76.4266 82.2478 76.7333 81.7925 77.0106 81.3222C77.1855 81.028 77.3423 80.7209 77.5196 80.4267C77.9354 79.7287 78.3603 79.0372 78.7784 78.3414C78.9965 77.9807 79.2056 77.6156 79.4237 77.2526C79.5192 77.0916 79.6169 76.9305 79.7305 76.7802C79.96 76.4774 80.1372 76.151 80.3144 75.8202C80.453 75.5604 80.6144 75.3048 80.8098 75.0836C81.2506 74.5833 81.6505 74.0636 81.93 73.4666C81.9755 73.3678 82.0323 73.2733 82.0959 73.1852C82.4822 72.6505 82.8389 72.0986 83.1184 71.5059C83.282 71.1623 83.5706 70.9819 83.9637 70.9776C84.3863 70.9711 84.8113 70.9733 85.2339 71.0012C85.6406 71.0291 85.8042 71.1687 85.9042 71.5574C86.0246 72.0213 86.1042 72.4937 86.1087 72.9726C86.1087 73.2497 86.1201 73.5267 86.1201 73.8037C86.1201 74.2976 86.1837 74.7851 86.3019 75.2683C86.4314 75.7966 86.4291 76.3378 86.4132 76.879L86.4087 76.8854Z" fill="#3B575C"/>
<path d="M72.6718 70.9745C74.0322 70.9745 75.3927 70.9745 76.7531 70.9745C77.1166 70.9745 77.4733 71.0154 77.8163 71.1251C78.1112 71.2197 78.4084 71.3078 78.6988 71.4111C79.2155 71.5938 79.5928 71.9207 79.8032 72.4023C79.8832 72.5873 79.9541 72.7765 80.0227 72.9657C80.1187 73.2345 80.121 73.5076 80.0615 73.7871C79.9929 74.1183 79.9289 74.4537 79.8763 74.787C79.8215 75.1267 79.7003 75.4385 79.5128 75.7353C79.163 76.2922 78.8452 76.8663 78.4999 77.4254C77.6539 78.7994 76.7211 80.1218 75.7768 81.4378C75.6327 81.6399 75.4498 81.8227 75.2601 81.9926C74.9285 82.2893 74.5696 82.5602 74.2357 82.857C73.4812 83.5343 72.5804 83.9536 71.5835 84.2073C71.348 84.2675 71.1011 84.2955 70.8587 84.317C70.3374 84.3622 69.8138 84.3987 69.2925 84.4331C68.9175 84.4589 68.5403 84.489 68.1653 84.4912C66.4939 84.4976 64.8226 84.4912 63.1489 84.4998C62.5247 84.5041 61.9051 84.4503 61.2878 84.3772C61.1574 84.3622 61.0271 84.3428 60.8968 84.3342C59.8702 84.2525 59.1157 83.7751 58.5989 82.9473C58.2971 82.4656 58.2514 81.9517 58.4229 81.4292C58.5761 80.9583 58.7818 80.5046 58.9602 80.0401C59.1797 79.4703 59.5226 78.9628 59.8382 78.4403C60.1217 77.9715 60.4349 77.52 60.7322 77.0598C60.851 76.8749 60.9677 76.69 61.0843 76.5051C61.1757 76.3588 61.2603 76.2105 61.3586 76.0685C61.8228 75.3977 62.2961 74.7311 62.7579 74.058C62.9888 73.7183 63.2495 73.4044 63.5559 73.1227C63.8028 72.8969 64.036 72.6582 64.2967 72.4453C64.9826 71.882 65.7188 71.4068 66.6563 71.2885C66.8986 71.2584 67.1387 71.2003 67.3742 71.138C67.8361 71.0133 68.3071 70.9746 68.7826 70.9767C70.0767 70.9789 71.3731 70.9767 72.6673 70.9767C72.6673 70.9767 72.6673 70.9767 72.6673 70.9745H72.6718ZM66.4025 83.0569V83.0483C67.4999 83.0483 68.5997 83.0569 69.6972 83.0483C71.2108 83.0333 72.4135 82.4076 73.3349 81.3109C73.7922 80.769 74.1946 80.1842 74.5856 79.5971C75.3584 78.4338 76.106 77.2577 76.8605 76.0858C76.9954 75.875 77.1281 75.66 77.2332 75.4364C77.4573 74.9676 77.5899 74.4773 77.5739 73.9591C77.5556 73.385 77.2858 72.9485 76.7371 72.6948C76.5061 72.5873 76.2455 72.512 75.9917 72.4819C75.5207 72.4281 75.0451 72.398 74.5718 72.3937C73.2777 72.383 71.9813 72.383 70.6872 72.3937C69.999 72.4002 69.3131 72.4582 68.6249 72.4539C67.8978 72.4496 67.2347 72.626 66.6151 72.97C66.574 72.9937 66.5282 73.013 66.4848 73.0324C65.9475 73.2839 65.5085 73.6409 65.1404 74.0903C64.4682 74.9117 63.9194 75.8041 63.3455 76.6835C63.1306 77.0125 62.9134 77.3372 62.6848 77.6576C62.1612 78.3865 61.6673 79.1327 61.2626 79.924C61.0865 80.268 60.9539 80.6379 60.851 81.0077C60.7367 81.4249 60.7916 81.8377 61.0888 82.1925C61.5027 82.6871 62.0354 82.9946 62.7122 83.044C62.9088 83.0591 63.1055 83.0569 63.3021 83.0569C64.3355 83.0569 65.3667 83.0569 66.4002 83.0569H66.4025Z" fill="#3B575C"/>
<path d="M27.9798 84.4848C27.5492 84.4848 27.1208 84.4677 26.6902 84.4891C25.6769 84.5363 24.6751 84.4226 23.6802 84.2939C22.8397 84.1867 22.2432 83.7083 21.8448 83.0197C21.7527 82.8588 21.6951 82.6786 21.626 82.5049C21.4901 82.1745 21.497 81.8506 21.626 81.5139C21.7319 81.2393 21.8102 80.9561 21.8747 80.6708C21.9507 80.3362 22.0728 80.023 22.2455 79.7206C22.5909 79.1242 22.9272 78.5257 23.268 77.9294C23.3141 77.8479 23.3647 77.7685 23.4154 77.6891C23.9474 76.8933 24.4886 76.1018 25.009 75.2995C25.769 74.1283 26.5175 72.9506 27.2659 71.7729C27.7519 71.0093 27.8348 70.9599 28.8112 70.9771C29.0093 70.9814 29.2096 70.99 29.4008 71.0264C29.6633 71.0736 29.7623 71.2345 29.684 71.4683C29.6449 71.5842 29.5781 71.6936 29.5113 71.7987C28.8573 72.8326 28.2055 73.8665 27.5446 74.8962C27.1807 75.4647 26.7984 76.0224 26.4346 76.5887C26.0362 77.2086 25.6516 77.8371 25.2532 78.4571C25.0505 78.7746 24.8409 79.0877 24.6221 79.3945C24.2352 79.9372 24.0763 80.5507 24.0188 81.1814C23.9382 82.063 24.5254 82.7494 25.4858 82.9361C25.7598 82.9897 26.0431 83.0176 26.3217 83.0197C27.8256 83.0262 29.3294 83.024 30.8332 83.0176C31.1303 83.0176 31.4274 82.9897 31.7221 82.9554C31.9018 82.9361 32.0837 82.8996 32.2495 82.8374C32.7838 82.6315 33.3043 82.3934 33.781 82.0866C34.1817 81.8292 34.4949 81.4924 34.7482 81.1084C35.2549 80.3512 35.7523 79.5897 36.252 78.8282C36.5629 78.3563 36.8623 77.8758 37.1847 77.4124C37.7536 76.5994 38.2671 75.7585 38.7715 74.9091C38.8843 74.7203 39.0179 74.5444 39.1376 74.3599C39.3081 74.0961 39.4716 73.8301 39.6443 73.5684C39.9114 73.163 40.1878 72.7597 40.4549 72.3542C40.6277 72.0925 40.805 71.833 40.957 71.5584C41.1688 71.1766 41.4936 70.9814 41.9472 70.9792C42.2766 70.9792 42.6105 70.9749 42.9352 71.0114C43.2668 71.05 43.3774 71.2581 43.2576 71.5455C43.2231 71.6313 43.1678 71.7086 43.1148 71.7879C42.7832 72.2835 42.4401 72.7725 42.1177 73.2745C41.7768 73.8022 41.4636 74.3449 41.1251 74.8705C40.6829 75.5569 40.2269 76.2326 39.7756 76.9126C39.6719 77.0692 39.5453 77.2151 39.4555 77.3781C38.8314 78.5171 38.0898 79.5918 37.3805 80.6837C36.9268 81.383 36.4133 82.048 35.7984 82.6315C35.4184 82.9918 35.0131 83.3501 34.5548 83.6161C33.8685 84.015 33.1177 84.3068 32.2818 84.3282C31.9363 84.3368 31.5886 84.3647 31.2454 84.4119C30.801 84.472 30.3588 84.487 29.912 84.4848C29.2672 84.4805 28.6224 84.4848 27.9798 84.4848Z" fill="#3B575C"/>
<path d="M110.707 80.7938C109.723 80.7938 108.738 80.7873 107.754 80.7981C107.462 80.8002 107.164 80.8367 106.876 80.8861C106.41 80.9677 105.943 81.0621 105.483 81.1737C105.264 81.2274 105.044 81.3068 104.848 81.412C104.248 81.734 103.679 82.0925 103.174 82.5411C102.865 82.8159 102.519 83.052 102.188 83.3032C101.895 83.5264 101.575 83.7218 101.307 83.9686C100.88 84.3614 100.39 84.5461 99.7934 84.4902C99.6311 84.4752 99.4664 84.4817 99.3017 84.4688C99.2217 84.4623 99.1394 84.443 99.0639 84.4194C98.8809 84.3614 98.826 84.2133 98.9221 84.0502C98.945 84.0094 98.9747 83.9708 99.0067 83.9364C99.0479 83.8892 99.0913 83.842 99.1416 83.8033C99.9947 83.1551 100.759 82.408 101.662 81.8113C101.982 81.6009 102.279 81.3519 102.554 81.09C102.981 80.6821 103.441 80.3172 103.937 79.9824C104.296 79.7419 104.633 79.4693 104.957 79.186C105.426 78.7781 105.886 78.3595 106.405 78.0053C106.643 77.8422 106.86 77.6533 107.087 77.4751C107.123 77.4451 107.157 77.4107 107.196 77.3828C108.024 76.7517 108.813 76.0798 109.595 75.3993C109.81 75.2126 110.053 75.0473 110.295 74.8927C110.677 74.648 111.029 74.3733 111.343 74.0556C111.644 73.7486 111.988 73.4889 112.34 73.2334C112.74 72.9415 113.117 72.6195 113.511 72.3168C113.966 71.9648 114.423 71.6149 114.887 71.2714C115.274 70.9859 115.718 70.9215 116.191 71.0138C116.513 71.0761 116.667 71.2414 116.696 71.5526C116.708 71.675 116.701 71.7995 116.701 71.9218C116.696 72.9071 116.708 73.8903 116.767 74.8756C116.845 76.1807 116.87 77.4923 116.886 78.7996C116.907 80.4009 116.895 82.0023 116.895 83.6037C116.895 83.7411 116.895 83.8828 116.868 84.018C116.811 84.2885 116.621 84.4516 116.326 84.4752C116.015 84.501 115.704 84.4881 115.4 84.4065C115.192 84.3507 115.054 84.2262 115.013 84.0287C114.981 83.8785 114.97 83.7239 114.967 83.5715C114.963 83.0177 114.967 82.4638 114.963 81.9079C114.963 81.7533 114.961 81.5988 114.933 81.4485C114.867 81.0857 114.643 80.8753 114.254 80.8109C114.094 80.7852 113.927 80.7809 113.764 80.7809C112.747 80.7788 111.731 80.7809 110.714 80.7809V80.7938H110.707ZM111.244 79.508V79.5037C112.047 79.5037 112.85 79.508 113.652 79.5015C113.865 79.5015 114.078 79.4779 114.286 79.4436C114.595 79.392 114.773 79.1988 114.828 78.9176C114.858 78.7674 114.865 78.6107 114.858 78.4583C114.81 77.5975 114.762 76.7388 114.7 75.8802C114.677 75.5582 114.624 75.2383 114.574 74.9185C114.556 74.7983 114.521 74.6759 114.467 74.5665C114.311 74.2616 114.014 74.1543 113.689 74.3046C113.515 74.384 113.362 74.5064 113.211 74.6223C112.879 74.8734 112.557 75.1332 112.23 75.3908C112.093 75.5002 111.956 75.6097 111.821 75.7213C111.61 75.8909 111.407 76.0712 111.187 76.2322C110.839 76.4898 110.474 76.7238 110.133 76.9878C109.465 77.5073 108.804 78.0354 108.15 78.5699C108.029 78.6686 107.926 78.7996 107.855 78.9327C107.734 79.1624 107.839 79.3684 108.104 79.4307C108.308 79.4779 108.525 79.5037 108.735 79.5058C109.57 79.5144 110.407 79.5101 111.242 79.5101L111.244 79.508Z" fill="#3B575C"/>
<path d="M12.1116 80.7873C11.1459 80.7873 10.1802 80.7873 9.2122 80.7873C9.11403 80.7873 9.01586 80.783 8.9177 80.7938C8.15061 80.8691 7.41777 81.095 6.6758 81.28C6.07309 81.5941 5.49321 81.9469 4.9841 82.3836C4.43847 82.8526 3.8974 83.3194 3.28099 83.7067C3.07781 83.8336 2.89973 83.9971 2.71025 84.1455C2.40889 84.3822 2.06644 84.5113 1.67148 84.4919C1.361 84.4768 1.05051 84.4704 0.74459 84.4252C0.50031 84.3886 0.431821 84.1972 0.571083 84.0121C0.63729 83.9261 0.714912 83.84 0.808514 83.7798C1.30849 83.4528 1.73997 83.0505 2.18744 82.6654C2.23538 82.6246 2.28561 82.5858 2.33812 82.5471C3.13945 81.9598 3.92936 81.3596 4.63481 80.669C4.74667 80.5593 4.87909 80.4625 5.01378 80.3764C5.60964 79.9914 6.13701 79.5288 6.68265 79.0857C7.62552 78.322 8.52959 77.5152 9.53639 76.8182C9.76012 76.6633 9.97472 76.4912 10.1665 76.304C10.6619 75.8286 11.2121 75.4177 11.7692 75.0089C12.0774 74.7831 12.3627 74.5271 12.6595 74.2861C13.0065 74.0043 13.3421 73.7096 13.7074 73.4493C14.1389 73.1416 14.5453 72.8103 14.9471 72.4683C15.4562 72.0337 15.9972 71.6336 16.5338 71.227C16.8465 70.9882 17.2164 70.943 17.6045 70.9925C17.9309 71.0333 18.1022 71.1947 18.1501 71.498C18.1615 71.5733 18.1638 71.6529 18.1615 71.7282C18.1181 72.8576 18.1866 73.9785 18.3693 75.095C18.4515 75.5962 18.472 76.1083 18.4766 76.616C18.4926 78.3133 18.4834 80.0107 18.4903 81.7081C18.4926 82.3406 18.5131 82.9731 18.5222 83.6055C18.5222 83.7282 18.5268 83.8529 18.5108 83.9756C18.4697 84.2811 18.2962 84.4596 17.9743 84.4833C17.6319 84.5069 17.2871 84.5005 16.9424 84.494C16.721 84.4919 16.568 84.3693 16.5064 84.1778C16.4607 84.0337 16.4424 83.8745 16.4401 83.7239C16.4287 83.1538 16.4333 82.5815 16.4196 82.0114C16.415 81.7963 16.3945 81.579 16.3511 81.3682C16.2963 81.1057 16.1182 80.925 15.8374 80.8626C15.648 80.8218 15.4516 80.7938 15.2576 80.7916C14.2097 80.7852 13.1618 80.7895 12.1139 80.7895L12.1116 80.7873ZM12.8924 79.503C12.8924 79.503 12.8924 79.4987 12.8924 79.4966C13.6617 79.4966 14.4311 79.4987 15.1982 79.4966C15.3945 79.4966 15.5909 79.4772 15.7826 79.4514C16.1114 79.4062 16.3192 79.2255 16.3694 78.9136C16.4036 78.7006 16.431 78.4855 16.4265 78.2703C16.4036 77.2076 16.3739 76.1448 16.3328 75.0821C16.326 74.8842 16.2826 74.6819 16.2118 74.4969C16.1228 74.256 15.8922 74.1441 15.6228 74.1871C15.4973 74.2065 15.3694 74.2538 15.2598 74.3141C15.1343 74.3829 15.0178 74.4711 14.9083 74.5636C14.4037 74.9788 13.9174 75.4155 13.3535 75.7619C13.2714 75.8114 13.196 75.8759 13.1321 75.9426C12.7257 76.3729 12.2212 76.6891 11.7326 77.0247C11.4701 77.2054 11.2258 77.412 10.9815 77.6142C10.6505 77.8895 10.3263 78.1714 9.99755 78.4489C9.88797 78.5414 9.76925 78.6253 9.6688 78.7242C9.59118 78.8017 9.52269 78.892 9.47475 78.9889C9.38799 79.161 9.47475 79.3331 9.66652 79.3955C9.74186 79.4213 9.82633 79.4342 9.90623 79.4406C10.1985 79.4643 10.493 79.4966 10.7875 79.5009C11.4906 79.5095 12.1938 79.503 12.8969 79.503H12.8924Z" fill="#3B575C"/>
<path d="M173.665 77.9879C173.665 78.9247 173.665 79.8637 173.665 80.8005C173.665 81.6773 173.73 82.5498 173.913 83.4138C173.944 83.5638 173.971 83.7182 173.971 83.8704C173.971 84.1812 173.827 84.3806 173.502 84.4213C173.09 84.4728 172.666 84.4792 172.248 84.4728C172.02 84.4685 171.86 84.312 171.813 84.0976C171.77 83.9025 171.745 83.7032 171.741 83.5059C171.73 82.9829 171.734 82.4619 171.73 81.9389C171.73 81.7845 171.73 81.6302 171.711 81.4779C171.671 81.1328 171.463 80.912 171.109 80.8413C170.906 80.8005 170.692 80.7941 170.482 80.7919C168.931 80.7877 167.379 80.7877 165.825 80.7877C165.34 80.7877 164.855 80.7834 164.37 80.8048C164.097 80.8177 163.827 80.867 163.558 80.9206C163.211 80.9892 162.87 81.0921 162.523 81.1585C162.052 81.2486 161.639 81.4329 161.269 81.7266C160.538 82.3076 159.799 82.8821 159.057 83.4502C158.705 83.7182 158.333 83.9647 157.967 84.2198C157.683 84.417 157.367 84.5135 157.013 84.4985C156.819 84.4899 156.625 84.4985 156.431 84.4856C156.321 84.4792 156.208 84.4535 156.102 84.417C155.96 84.3699 155.906 84.237 155.985 84.1191C156.061 84.0033 156.154 83.894 156.26 83.8018C156.661 83.4438 157.065 83.09 157.476 82.7428C157.656 82.5906 157.854 82.4534 158.051 82.3226C158.502 82.0225 158.937 81.7052 159.323 81.3279C159.402 81.2507 159.483 81.1757 159.571 81.1071C160.502 80.3696 161.436 79.6343 162.365 78.8947C162.613 78.6975 162.855 78.4917 163.078 78.273C163.495 77.8614 163.951 77.4991 164.445 77.1733C164.736 76.9825 165.009 76.7595 165.259 76.5216C165.581 76.2172 165.915 75.9299 166.283 75.677C166.479 75.5419 166.671 75.4004 166.856 75.2503C167.512 74.7251 168.164 74.1999 168.813 73.6704C168.973 73.5396 169.122 73.3981 169.267 73.2545C169.704 72.8215 170.187 72.4356 170.697 72.0819C170.983 71.8825 171.251 71.6617 171.52 71.4409C171.781 71.2265 172.059 71.0486 172.408 70.9993C172.472 70.9907 172.537 70.9778 172.6 70.9757C173.087 70.9564 173.362 71.1794 173.408 71.6424C173.453 72.0862 173.453 72.5342 173.525 72.9737C173.667 73.829 173.665 74.6865 173.66 75.5483C173.653 76.363 173.66 77.1776 173.66 77.9922L173.665 77.9879ZM168.243 79.5143V79.5057C169.003 79.5057 169.763 79.51 170.523 79.5036C170.715 79.5036 170.911 79.48 171.1 79.45C171.445 79.3964 171.635 79.182 171.702 78.8669C171.727 78.7468 171.732 78.6225 171.732 78.5003C171.727 77.3019 171.721 76.1036 171.714 74.9052C171.714 74.798 171.707 74.6887 171.687 74.5836C171.594 74.1077 171.294 73.9641 170.845 74.1785C170.803 74.1999 170.76 74.2213 170.721 74.2492C170.333 74.5258 169.937 74.7916 169.562 75.0831C168.913 75.5891 168.281 76.1164 167.636 76.6266C167.09 77.0597 166.531 77.4777 165.987 77.9129C165.703 78.1401 165.439 78.3888 165.169 78.6332C165.063 78.7275 164.954 78.824 164.873 78.9355C164.727 79.1348 164.801 79.3213 165.051 79.4006C165.128 79.4242 165.207 79.4392 165.288 79.4457C165.577 79.4714 165.868 79.5057 166.157 79.51C166.851 79.5186 167.546 79.5121 168.243 79.5121V79.5143Z" fill="#3B575C"/>
<path d="M155.682 70.981C157.241 70.981 158.801 70.981 160.36 70.981C160.543 70.981 160.73 70.9896 160.91 71.0218C161.165 71.0691 161.272 71.2582 161.162 71.4774C160.889 72.0298 160.447 72.4123 159.748 72.4059C157.517 72.3865 155.286 72.4059 153.056 72.3951C152.298 72.3908 151.548 72.4424 150.797 72.4983C150.582 72.5155 150.362 72.5541 150.161 72.6229C149.38 72.8873 148.679 73.2741 148.125 73.8565C147.727 74.2734 147.323 74.6839 147.042 75.1847C146.906 75.4297 146.708 75.6446 146.546 75.881C145.955 76.7406 145.361 77.5981 144.783 78.4664C144.47 78.9392 144.189 79.4313 143.897 79.917C143.607 80.4027 143.518 80.925 143.516 81.4773C143.516 82.309 144.269 82.8785 144.91 82.9559C145.258 82.9989 145.611 83.0311 145.962 83.0311C148.41 83.0375 150.86 83.0332 153.308 83.0332C153.493 83.0332 153.678 83.0289 153.86 83.0483C154.129 83.0784 154.237 83.2353 154.162 83.476C154.087 83.7145 153.97 83.9359 153.792 84.1271C153.587 84.3485 153.325 84.4731 153.009 84.4946C152.892 84.5032 152.775 84.4989 152.656 84.4989C150.224 84.4989 147.793 84.4989 145.361 84.4925C145.043 84.4925 144.725 84.4581 144.409 84.4323C144.058 84.4044 143.71 84.3614 143.359 84.3335C142.44 84.2604 141.751 83.8327 141.239 83.1557C140.895 82.7001 140.897 82.1779 140.965 81.6428C141.087 80.6864 141.543 79.8461 142.029 79.0187C142.571 78.0967 143.198 77.2199 143.822 76.343C143.878 76.2657 143.937 76.1883 143.979 76.1066C144.426 75.2728 145.043 74.5399 145.595 73.7684C145.723 73.59 145.885 73.4288 146.046 73.272C146.336 72.9926 146.635 72.7239 146.932 72.451C147.601 71.8363 148.37 71.3979 149.324 71.2668C149.474 71.2475 149.623 71.2217 149.766 71.1787C150.348 70.9982 150.947 70.9767 151.555 70.981C152.929 70.9896 154.304 70.9831 155.682 70.9831V70.9745V70.981Z" fill="#3B575C"/>
<path d="M53.78 70.9862C56.2829 70.9862 58.7859 70.9862 61.2888 70.9862C61.4668 70.9862 61.6493 70.9991 61.825 71.0313C62.0258 71.07 62.1353 71.2417 62.0486 71.4177C61.8068 71.9136 61.4097 72.4352 60.7184 72.403C59.9678 72.3665 59.2148 72.3987 58.4619 72.3987C57.4146 72.3987 56.3674 72.3987 55.3201 72.3987C55.222 72.3987 55.1239 72.4009 55.0258 72.3987C54.4691 72.3901 54.0515 72.5983 53.7754 73.0663C53.4172 73.6717 53.0453 74.2684 52.678 74.8673C52.6141 74.9747 52.5571 75.0863 52.4909 75.1915C51.9981 75.9707 51.4984 76.7478 51.0124 77.5313C50.1089 78.9931 49.2099 80.4593 48.3132 81.9275C47.9391 82.5415 47.5717 83.1597 47.1975 83.7715C47.1245 83.8917 47.0401 84.0055 46.9488 84.1149C46.7344 84.3725 46.4537 84.5121 46.1001 84.4992C45.8719 84.4928 45.6415 84.4949 45.4133 84.4799C45.2855 84.4713 45.1532 84.4455 45.0323 84.4047C44.8589 84.3468 44.7676 84.2008 44.8224 84.0377C44.8817 83.8638 44.9638 83.6942 45.0619 83.5354C45.7715 82.3934 46.4971 81.2599 47.1998 80.1137C47.7634 79.1949 48.295 78.2568 48.8563 77.3359C49.1803 76.8014 49.5385 76.2862 49.867 75.7539C50.3188 75.0219 50.7614 74.2856 51.1995 73.5472C51.2862 73.4012 51.3638 73.2445 51.4048 73.0813C51.4801 72.7915 51.3387 72.5554 51.0352 72.4695C50.8504 72.418 50.6496 72.3987 50.4557 72.3987C48.9019 72.3944 47.3481 72.3987 45.7921 72.3987C45.5958 72.3987 45.3973 72.403 45.2034 72.3794C44.8954 72.3408 44.7722 72.1497 44.9045 71.8835C45.014 71.6624 45.1623 71.4563 45.3175 71.2589C45.4247 71.1215 45.5913 71.0378 45.7784 71.0163C45.9563 70.997 46.1366 70.9776 46.3146 70.9755C48.8015 70.9734 51.2885 70.9755 53.7754 70.9755V70.9798L53.78 70.9862Z" fill="#3B575C"/>
<path d="M131.152 70.9788C133.626 70.9788 136.101 70.9788 138.577 70.9788C138.773 70.9788 138.972 70.9917 139.162 71.0282C139.39 71.0712 139.482 71.2473 139.395 71.4492C139.269 71.7369 139.082 71.9903 138.837 72.2029C138.687 72.3339 138.495 72.379 138.294 72.3833C137.967 72.3898 137.638 72.3984 137.311 72.3984C135.804 72.3984 134.296 72.3984 132.788 72.3984C132.608 72.3984 132.427 72.3984 132.247 72.4069C131.792 72.4349 131.431 72.6195 131.182 72.9825C131.102 73.0984 131.024 73.2166 130.949 73.3347C130.245 74.4643 129.539 75.5917 128.838 76.7213C128.518 77.241 128.214 77.7693 127.895 78.289C127.552 78.8495 127.196 79.4014 126.851 79.9619C126.565 80.4279 126.289 80.9025 126.008 81.3707C125.807 81.7057 125.603 82.0407 125.398 82.3736C125.126 82.8138 124.854 83.2519 124.58 83.6878C124.479 83.8468 124.381 84.0078 124.26 84.1517C124.068 84.3836 123.812 84.5082 123.495 84.4996C123.232 84.4932 122.969 84.4953 122.709 84.4781C122.581 84.4695 122.451 84.4373 122.327 84.3987C122.206 84.36 122.147 84.2612 122.156 84.1453C122.163 84.0551 122.183 83.9627 122.22 83.879C122.263 83.7802 122.327 83.6878 122.384 83.5955C123.129 82.3993 123.881 81.2075 124.616 80.007C125.14 79.1523 125.64 78.2868 126.152 77.4278C126.206 77.3333 126.254 77.2346 126.321 77.1465C126.883 76.3863 127.314 75.5531 127.799 74.7499C128.041 74.3483 128.308 73.9596 128.553 73.5602C128.642 73.4141 128.726 73.2595 128.767 73.0984C128.85 72.7763 128.706 72.5487 128.365 72.4671C128.162 72.4177 127.945 72.4026 127.735 72.4026C126.309 72.3983 124.884 72.4026 123.458 72.4026C123.211 72.4026 122.967 72.4069 122.72 72.3962C122.608 72.3919 122.492 72.3704 122.387 72.3318C122.213 72.2695 122.14 72.117 122.209 71.956C122.334 71.6703 122.503 71.4019 122.75 71.1957C122.855 71.1098 123.001 71.0476 123.141 71.0218C123.33 70.9853 123.531 70.9831 123.728 70.9853C125.989 70.9874 128.251 70.9939 130.513 70.9982C130.725 70.9982 130.938 70.9982 131.152 70.9982V70.9745V70.9788Z" fill="#3B575C"/>
<path d="M135.055 84.5C134.877 84.4914 134.697 84.4957 134.524 84.4678C134.229 84.4206 134.107 84.2316 134.202 83.9633C134.252 83.8194 134.33 83.6799 134.411 83.5489C135.037 82.5248 135.669 81.505 136.293 80.481C136.797 79.6565 137.296 78.83 137.794 78.0034C138.388 77.0158 138.973 76.0239 139.572 75.0385C140.105 74.1604 140.652 73.2887 141.188 72.4106C141.309 72.211 141.408 72.0006 141.527 71.8009C141.622 71.642 141.721 71.481 141.84 71.3372C141.973 71.1783 142.151 71.0645 142.367 71.0302C142.768 70.9636 143.17 70.9529 143.571 71.0194C143.891 71.0709 144.003 71.2685 143.891 71.5583C143.852 71.6592 143.801 71.758 143.733 71.8438C143.285 72.4321 142.979 73.0977 142.59 73.7181C141.953 74.7358 141.327 75.7577 140.708 76.7861C139.855 78.2009 139.018 79.6222 138.167 81.037C137.839 81.5845 137.481 82.1148 137.148 82.6601C136.945 82.9929 136.765 83.3364 136.572 83.6734C136.495 83.8087 136.417 83.944 136.318 84.0642C136.095 84.3304 135.8 84.4742 135.44 84.4914C135.312 84.4979 135.181 84.4914 135.053 84.4914C135.053 84.4936 135.053 84.4957 135.053 84.4979L135.055 84.5Z" fill="#3B575C"/>
</svg>
