<svg width="120" height="120" viewBox="0 0 120 120" fill="none" xmlns="http://www.w3.org/2000/svg">
<rect width="120" height="120" rx="60" fill="#B5BFC1"/>
<g clip-path="url(#clip0_60_2754)">
<path d="M75.5 49.667V39.3336C75.5 38.6203 74.9216 38.042 74.2083 38.042H70.3333C69.6201 38.042 69.0416 38.6203 69.0416 39.3336V45.792M53.5914 38.8092L42.8767 42.355C40.7616 43.055 39.3333 45.032 39.3333 47.26V77.4378C39.3333 80.2914 41.6465 82.6045 44.5 82.6045H76.7916C79.6452 82.6045 81.9583 80.2914 81.9583 77.4378V57.3462C81.9583 55.5735 81.0498 53.9248 79.5512 52.9781L57.9741 39.3463C56.6672 38.5205 55.0591 38.3235 53.5914 38.8092ZM50.9583 59.3545H54.8333C55.5466 59.3545 56.125 58.7761 56.125 58.0628V54.1878C56.125 53.4744 55.5466 52.8961 54.8333 52.8961H50.9583C50.245 52.8961 49.6666 53.4744 49.6666 54.1878V58.0628C49.6666 58.7761 50.245 59.3545 50.9583 59.3545ZM72.9166 81.9586V65.167C72.9166 64.4537 72.3382 63.8753 71.625 63.8753H65.1666C64.4534 63.8753 63.875 64.4537 63.875 65.167V81.9586H72.9166Z" stroke="#103339" stroke-width="2.40385" stroke-linecap="round"/>
</g>
<defs>
<clipPath id="clip0_60_2754">
<rect width="62" height="62" fill="white" transform="translate(29 29)"/>
</clipPath>
</defs>
</svg>
