<svg width="62" height="62" viewBox="0 0 62 62" fill="none" xmlns="http://www.w3.org/2000/svg">
<g clip-path="url(#clip0_60_2711)">
<path d="M31 54.2503C22.4396 54.2503 15.5 47.3107 15.5 38.7503M31 54.2503C39.5604 54.2503 46.5 47.3107 46.5 38.7503M31 54.2503C26.7196 54.2503 23.25 47.3107 23.25 38.7503V23.2503C23.25 14.6899 26.7196 7.75031 31 7.75031M15.5 38.7503V23.2503M15.5 38.7503C15.5 41.6039 22.4396 43.917 31 43.917C39.5604 43.917 46.5 41.6039 46.5 38.7503M46.5 38.7503V23.2503M31 7.75031C39.5604 7.75031 46.5 14.6899 46.5 23.2503M31 7.75031C22.4396 7.75031 15.5 14.6899 15.5 23.2503M15.5 23.2503C15.5 26.1039 22.4396 28.417 31 28.417C39.5604 28.417 46.5 26.1039 46.5 23.2503" stroke="#103339" stroke-width="2.40385" stroke-linecap="round"/>
</g>
<defs>
<clipPath id="clip0_60_2711">
<rect width="62" height="62" fill="white"/>
</clipPath>
</defs>
</svg>
