<svg width="62" height="62" viewBox="0 0 62 62" fill="none" xmlns="http://www.w3.org/2000/svg">
<g clip-path="url(#clip0_60_2723)">
<path d="M46.5 20.667V10.3336C46.5 9.62027 45.9216 9.04197 45.2083 9.04197H41.3333C40.6201 9.04197 40.0416 9.62027 40.0416 10.3336V16.792M24.5914 9.80917L13.8767 13.355C11.7616 14.055 10.3333 16.032 10.3333 18.26V48.4378C10.3333 51.2914 12.6465 53.6045 15.5 53.6045H47.7916C50.6452 53.6045 52.9583 51.2914 52.9583 48.4378V28.3462C52.9583 26.5735 52.0498 24.9248 50.5512 23.9781L28.9741 10.3463C27.6672 9.52053 26.0591 9.32347 24.5914 9.80917ZM21.9583 30.3545H25.8333C26.5466 30.3545 27.125 29.7761 27.125 29.0628V25.1878C27.125 24.4744 26.5466 23.8961 25.8333 23.8961H21.9583C21.245 23.8961 20.6666 24.4744 20.6666 25.1878V29.0628C20.6666 29.7761 21.245 30.3545 21.9583 30.3545ZM43.9166 52.9586V36.167C43.9166 35.4537 43.3382 34.8753 42.625 34.8753H36.1666C35.4534 34.8753 34.875 35.4537 34.875 36.167V52.9586H43.9166Z" stroke="#103339" stroke-width="2.40385" stroke-linecap="round"/>
</g>
<defs>
<clipPath id="clip0_60_2723">
<rect width="62" height="62" fill="white"/>
</clipPath>
</defs>
</svg>
