<svg width="120" height="120" viewBox="0 0 120 120" fill="none" xmlns="http://www.w3.org/2000/svg">
<rect width="120" height="120" rx="60" fill="#B5BFC1"/>
<g clip-path="url(#clip0_60_2748)">
<path d="M75.5 70.3336H75.787C77.0551 70.3336 78.0833 71.3618 78.0833 72.63C78.0833 77.0686 74.485 80.667 70.0463 80.667H49.9537C45.5149 80.667 41.9166 77.0686 41.9166 72.63C41.9166 71.3618 42.9447 70.3336 44.2129 70.3336H60M53.9722 39.3336H66.0277C72.686 39.3336 78.0833 44.7311 78.0833 51.3892C78.0833 53.2915 76.5411 54.8336 74.639 54.8336H45.3611C43.4588 54.8336 41.9166 53.2915 41.9166 51.3892C41.9166 44.7311 47.3141 39.3336 53.9722 39.3336ZM41.9166 60.0003H78.0833C79.5101 60.0003 80.6666 61.1569 80.6666 62.5836C80.6666 64.0104 79.5101 65.167 78.0833 65.167H75.988C73.8115 65.167 71.9223 66.6676 71.4302 68.7878L70.5893 72.4104C69.9706 75.0759 66.1752 75.0759 65.5565 72.4104L64.8032 69.1652C64.2596 66.8242 62.1736 65.167 59.7703 65.167H41.9166C40.4899 65.167 39.3333 64.0104 39.3333 62.5836C39.3333 61.1569 40.4899 60.0003 41.9166 60.0003Z" stroke="#103339" stroke-width="2.40385" stroke-linecap="round"/>
</g>
<defs>
<clipPath id="clip0_60_2748">
<rect width="62" height="62" fill="white" transform="translate(29 29)"/>
</clipPath>
</defs>
</svg>
