<svg width="120" height="120" viewBox="0 0 120 120" fill="none" xmlns="http://www.w3.org/2000/svg">
<rect width="120" height="120" rx="60" fill="#B5BFC1"/>
<g clip-path="url(#clip0_60_2728)">
<path d="M81.4226 38.5778C86.404 43.5594 80.8514 57.1889 69.02 69.0203C57.1886 80.8517 43.5591 86.4043 38.5775 81.4229C33.5959 76.4412 39.1487 62.8118 50.98 50.9803C62.8114 39.149 76.4409 33.5962 81.4226 38.5778Z" stroke="#103339" stroke-width="2.30769" stroke-linecap="round"/>
<path d="M38.5775 38.5778C33.5959 43.5594 39.1487 57.1889 50.98 69.0203C62.8114 80.8517 76.4409 86.4043 81.4226 81.4229C86.404 76.4412 80.8514 62.8118 69.02 50.9803C57.1886 39.149 43.5591 33.5962 38.5775 38.5778Z" stroke="#103339" stroke-width="2.30769" stroke-linecap="round"/>
<path d="M65.1666 60.0003C65.1666 62.8538 62.8535 65.167 60 65.167C57.1464 65.167 54.8333 62.8538 54.8333 60.0003C54.8333 57.1468 57.1464 54.8336 60 54.8336C62.8535 54.8336 65.1666 57.1468 65.1666 60.0003Z" stroke="#103339" stroke-width="2.30769" stroke-linecap="round"/>
</g>
<defs>
<clipPath id="clip0_60_2728">
<rect width="62" height="62" fill="white" transform="translate(29 29)"/>
</clipPath>
</defs>
</svg>
