<svg width="62" height="62" viewBox="0 0 62 62" fill="none" xmlns="http://www.w3.org/2000/svg">
<g clip-path="url(#clip0_60_2717)">
<path d="M46.5 41.3336H46.787C48.0551 41.3336 49.0833 42.3618 49.0833 43.63C49.0833 48.0686 45.485 51.667 41.0463 51.667H20.9537C16.5149 51.667 12.9166 48.0686 12.9166 43.63C12.9166 42.3618 13.9447 41.3336 15.2129 41.3336H31M24.9722 10.3336H37.0277C43.686 10.3336 49.0833 15.7311 49.0833 22.3892C49.0833 24.2915 47.5411 25.8336 45.639 25.8336H16.3611C14.4588 25.8336 12.9166 24.2915 12.9166 22.3892C12.9166 15.7311 18.3141 10.3336 24.9722 10.3336ZM12.9166 31.0003H49.0833C50.5101 31.0003 51.6666 32.1569 51.6666 33.5836C51.6666 35.0104 50.5101 36.167 49.0833 36.167H46.988C44.8115 36.167 42.9223 37.6676 42.4302 39.7878L41.5893 43.4104C40.9706 46.0759 37.1752 46.0759 36.5565 43.4104L35.8032 40.1652C35.2596 37.8242 33.1736 36.167 30.7703 36.167H12.9166C11.4899 36.167 10.3333 35.0104 10.3333 33.5836C10.3333 32.1569 11.4899 31.0003 12.9166 31.0003Z" stroke="#103339" stroke-width="2.40385" stroke-linecap="round"/>
</g>
<defs>
<clipPath id="clip0_60_2717">
<rect width="62" height="62" fill="white"/>
</clipPath>
</defs>
</svg>
