<svg width="62" height="62" viewBox="0 0 62 62" fill="none" xmlns="http://www.w3.org/2000/svg">
<g clip-path="url(#clip0_60_2697)">
<path d="M52.4226 9.57784C57.404 14.5594 51.8514 28.1889 40.02 40.0203C28.1886 51.8517 14.5591 57.4043 9.57753 52.4229C4.59593 47.4412 10.1487 33.8118 21.98 21.9803C33.8114 10.149 47.4409 4.59624 52.4226 9.57784Z" stroke="#103339" stroke-width="2.30769" stroke-linecap="round"/>
<path d="M9.57753 9.57784C4.59593 14.5594 10.1487 28.1889 21.98 40.0203C33.8114 51.8517 47.4409 57.4043 52.4226 52.4229C57.404 47.4412 51.8514 33.8118 40.02 21.9803C28.1886 10.149 14.5591 4.59624 9.57753 9.57784Z" stroke="#103339" stroke-width="2.30769" stroke-linecap="round"/>
<path d="M36.1666 31.0003C36.1666 33.8538 33.8535 36.167 31 36.167C28.1464 36.167 25.8333 33.8538 25.8333 31.0003C25.8333 28.1468 28.1464 25.8336 31 25.8336C33.8535 25.8336 36.1666 28.1468 36.1666 31.0003Z" stroke="#103339" stroke-width="2.30769" stroke-linecap="round"/>
</g>
<defs>
<clipPath id="clip0_60_2697">
<rect width="62" height="62" fill="white"/>
</clipPath>
</defs>
</svg>
