<svg width="120" height="120" viewBox="0 0 120 120" fill="none" xmlns="http://www.w3.org/2000/svg">
<rect width="120" height="120" rx="60" fill="#B5BFC1"/>
<g clip-path="url(#clip0_60_2742)">
<path d="M60 83.2503C51.4396 83.2503 44.5 76.3107 44.5 67.7503M60 83.2503C68.5604 83.2503 75.5 76.3107 75.5 67.7503M60 83.2503C55.7196 83.2503 52.25 76.3107 52.25 67.7503V52.2503C52.25 43.6899 55.7196 36.7503 60 36.7503M44.5 67.7503V52.2503M44.5 67.7503C44.5 70.6039 51.4396 72.917 60 72.917C68.5604 72.917 75.5 70.6039 75.5 67.7503M75.5 67.7503V52.2503M60 36.7503C68.5604 36.7503 75.5 43.6899 75.5 52.2503M60 36.7503C51.4396 36.7503 44.5 43.6899 44.5 52.2503M44.5 52.2503C44.5 55.1039 51.4396 57.417 60 57.417C68.5604 57.417 75.5 55.1039 75.5 52.2503" stroke="#103339" stroke-width="2.40385" stroke-linecap="round"/>
</g>
<defs>
<clipPath id="clip0_60_2742">
<rect width="62" height="62" fill="white" transform="translate(29 29)"/>
</clipPath>
</defs>
</svg>
