<svg width="141" height="140" viewBox="0 0 141 140" fill="none" xmlns="http://www.w3.org/2000/svg">
<path d="M3.83337 70C3.83337 32.9969 33.8303 3 70.8334 3C107.836 3 137.833 32.9969 137.833 70C137.833 107.003 107.836 137 70.8334 137C33.8303 137 3.83337 107.003 3.83337 70Z" fill="#B5BFC1"/>
<path d="M3.83337 70C3.83337 32.9969 33.8303 3 70.8334 3C107.836 3 137.833 32.9969 137.833 70C137.833 107.003 107.836 137 70.8334 137C33.8303 137 3.83337 107.003 3.83337 70Z" stroke="#E7E9E7" stroke-width="6"/>
<g clip-path="url(#clip0_60_2652)">
<path d="M87.3317 44.072C83.4267 47.9773 77.0951 47.9773 73.1897 44.072M44.9054 86.4983C48.8107 82.5933 48.8107 76.2616 44.9054 72.3563M96.7601 53.5001C92.8547 57.4054 92.8547 63.737 96.7601 67.6423M54.3335 95.9266C58.2387 92.0213 64.5704 92.0213 68.4757 95.9266M42.5484 74.7133L75.5467 41.715C78.1501 39.1115 82.3714 39.1115 84.9747 41.715L99.1171 55.8571C101.72 58.4606 101.72 62.6817 99.1171 65.2853L66.1187 98.2836C63.5151 100.887 59.294 100.887 56.6905 98.2836L42.5484 84.1413C39.9449 81.538 39.9449 77.317 42.5484 74.7133ZM75.5467 65.2853C78.1501 67.8886 78.1501 72.11 75.5467 74.7133C72.9431 77.317 68.7221 77.317 66.1187 74.7133C63.5151 72.11 63.5151 67.8886 66.1187 65.2853C68.7221 62.6817 72.9431 62.6817 75.5467 65.2853Z" stroke="#103339" stroke-width="3.125" stroke-linecap="round"/>
</g>
<defs>
<clipPath id="clip0_60_2652">
<rect width="80" height="80" fill="white" transform="translate(30.8334 30)"/>
</clipPath>
</defs>
</svg>
