<svg width="141" height="140" viewBox="0 0 141 140" fill="none" xmlns="http://www.w3.org/2000/svg">
<path d="M3.66669 70C3.66669 32.9969 33.6636 3 70.6667 3C107.67 3 137.667 32.9969 137.667 70C137.667 107.003 107.67 137 70.6667 137C33.6636 137 3.66669 107.003 3.66669 70Z" fill="#F5F6F5"/>
<path d="M3.66669 70C3.66669 32.9969 33.6636 3 70.6667 3C107.67 3 137.667 32.9969 137.667 70C137.667 107.003 107.67 137 70.6667 137C33.6636 137 3.66669 107.003 3.66669 70Z" stroke="#E7E9E7" stroke-width="6"/>
<path d="M96.556 52.2274C95.902 51.168 94.828 50.3922 93.5697 50.0758C92.3084 49.7594 90.9677 49.9258 89.839 50.5375C87.9634 51.5523 85.702 51.5511 83.8277 50.5345L81.885 49.4811C80.1267 48.5275 79.0317 46.6878 79.0317 44.6875C79.0317 42.1375 76.8367 40 74.1224 40H67.2107C64.4964 40 62.3013 42.1375 62.3013 44.6875C62.3013 46.6879 61.2065 48.5279 59.4483 49.4821L57.5082 50.5352C55.6336 51.5527 53.3718 51.5536 51.4964 50.5375C50.3678 49.9258 49.0243 49.7594 47.7633 50.0758C46.5047 50.3922 45.431 51.168 44.7767 52.2274L41.3258 57.843C40.674 58.9024 40.4967 60.1633 40.8338 61.3445C41.1709 62.5282 41.995 63.536 43.1237 64.1477C44.9703 65.15 46.1206 67.0827 46.1212 69.1837L46.1217 70.8163C46.1223 72.9173 44.9727 74.85 43.1262 75.8523C41.9975 76.4663 41.1709 77.472 40.8338 78.653C40.4967 79.8367 40.674 81.0977 41.3258 82.157L44.7817 87.7727C45.4334 88.832 46.5072 89.6077 47.7658 89.9243C49.0269 90.2407 50.3678 90.0743 51.4989 89.4623C53.3745 88.4477 55.6357 88.449 57.5102 89.4657L59.4457 90.5153C61.2053 91.4697 62.3012 93.3107 62.3012 95.3127C62.3012 97.8627 64.496 100 67.2107 100H74.1204C76.837 100 79.0297 97.8627 79.0297 95.3127C79.031 93.3107 80.128 91.47 81.8877 90.5157L83.8254 89.4653C85.7 88.4487 87.9614 88.4477 89.837 89.4623C90.968 90.074 92.309 90.2407 93.5677 89.9243C94.8287 89.6077 95.9024 88.832 96.554 87.7727L100.008 82.157C100.659 81.0977 100.837 79.8367 100.5 78.6553C100.162 77.472 99.3384 76.464 98.2097 75.8523C96.363 74.85 95.2134 72.9173 95.2134 70.8163V69.1837C95.2134 67.0827 96.363 65.15 98.2097 64.1477C99.3384 63.5337 100.162 62.5281 100.5 61.3468C100.837 60.1632 100.659 58.9023 100.008 57.8429L96.556 52.2274Z" stroke="#103339" stroke-width="3.125" stroke-linecap="round"/>
<path d="M80.6667 70C80.6667 75.523 76.1897 80 70.6667 80C65.1437 80 60.6667 75.523 60.6667 70C60.6667 64.477 65.1437 60 70.6667 60C76.1897 60 80.6667 64.477 80.6667 70Z" stroke="#103339" stroke-width="3.125" stroke-linecap="round"/>
</svg>
