<svg width="140" height="140" viewBox="0 0 140 140" fill="none" xmlns="http://www.w3.org/2000/svg">
<path d="M3 70C3 32.9969 32.9969 3 70 3C107.003 3 137 32.9969 137 70C137 107.003 107.003 137 70 137C32.9969 137 3 107.003 3 70Z" fill="#F5F6F5"/>
<path d="M3 70C3 32.9969 32.9969 3 70 3C107.003 3 137 32.9969 137 70C137 107.003 107.003 137 70 137C32.9969 137 3 107.003 3 70Z" stroke="#E7E9E7" stroke-width="6"/>
<g clip-path="url(#clip0_60_2646)">
<path d="M98.3027 67.144C99.4537 68.8987 99.4537 71.1013 98.3027 72.856C94.6773 78.382 85.243 90 69.9997 90C54.7563 90 45.322 78.382 41.6966 72.856C40.5456 71.1013 40.5456 68.8987 41.6966 67.144C45.322 61.6178 54.7563 50 69.9997 50C85.243 50 94.6773 61.6178 98.3027 67.144Z" stroke="#103339" stroke-width="3.125" stroke-linecap="round"/>
<path d="M79.9997 70C79.9997 75.523 75.5223 80 69.9997 80C64.4767 80 59.9996 75.523 59.9996 70C59.9996 64.477 64.4767 60 69.9997 60C75.5223 60 79.9997 64.477 79.9997 70Z" stroke="#103339" stroke-width="3.125" stroke-linecap="round"/>
</g>
<defs>
<clipPath id="clip0_60_2646">
<rect width="80" height="80" fill="white" transform="translate(30 30)"/>
</clipPath>
</defs>
</svg>
