<svg width="140" height="140" viewBox="0 0 140 140" fill="none" xmlns="http://www.w3.org/2000/svg">
<path d="M3 70C3 32.9969 32.9969 3 70 3C107.003 3 137 32.9969 137 70C137 107.003 107.003 137 70 137C32.9969 137 3 107.003 3 70Z" fill="#B5BFC1"/>
<path d="M3 70C3 32.9969 32.9969 3 70 3C107.003 3 137 32.9969 137 70C137 107.003 107.003 137 70 137C32.9969 137 3 107.003 3 70Z" stroke="#E7E9E7" stroke-width="6"/>
<g clip-path="url(#clip0_60_2662)">
<path d="M70 100C72.3563 100 96.5257 89.044 96.6667 51.651C96.6667 51.4245 96.5587 51.2109 96.3773 51.0807C85.2657 43.354 71.205 40 70 40C68.795 40 54.7343 43.3542 43.6225 51.0807C43.4415 51.2109 43.3333 51.4245 43.3333 51.651C43.4741 89.0447 67.644 100 70 100Z" stroke="#103339" stroke-width="3.125" stroke-linecap="round"/>
</g>
<defs>
<clipPath id="clip0_60_2662">
<rect width="80" height="80" fill="white" transform="translate(30 30)"/>
</clipPath>
</defs>
</svg>
