<svg width="40" height="40" viewBox="0 0 40 40" fill="none" xmlns="http://www.w3.org/2000/svg">
<path d="M32 16.9081C32 21.9654 25.9613 30.3406 22.4514 34.7814C21.1673 36.4062 18.8327 36.4062 17.5486 34.7814C14.0388 30.3406 8 21.9654 8 16.9081C8 9.77918 13.3726 4 20 4C26.6274 4 32 9.77918 32 16.9081Z" stroke="#E7E9E7" stroke-width="2" stroke-linecap="round"/>
<path d="M25 16C25 18.7614 22.7614 21 20 21C17.2387 21 15 18.7614 15 16C15 13.2386 17.2387 11 20 11C22.7614 11 25 13.2386 25 16Z" stroke="#E7E9E7" stroke-width="2" stroke-linecap="round"/>
</svg>
